%TF.GenerationSoftware,KiCad,Pcbnew,(7.0.0)*%
%TF.CreationDate,2023-05-21T08:54:48-04:00*%
%TF.ProjectId,Solenoid_Driver,536f6c65-6e6f-4696-945f-447269766572,V1.0*%
%TF.SameCoordinates,Original*%
%TF.FileFunction,Drillmap*%
%TF.FilePolarity,Positive*%
%FSLAX45Y45*%
G04 Gerber Fmt 4.5, Leading zero omitted, Abs format (unit mm)*
G04 Created by KiCad (PCBNEW (7.0.0)) date 2023-05-21 08:54:48*
%MOMM*%
%LPD*%
G01*
G04 APERTURE LIST*
%ADD10C,0.100000*%
%ADD11C,0.200000*%
%ADD12C,0.040000*%
%ADD13C,0.140000*%
G04 APERTURE END LIST*
D10*
X12000000Y-6000000D02*
X17600000Y-6000000D01*
X17600000Y-6000000D02*
X17600000Y-11600000D01*
X17600000Y-11600000D02*
X12000000Y-11600000D01*
X12000000Y-11600000D02*
X12000000Y-6000000D01*
D11*
D12*
X13388750Y-6560000D02*
X13428750Y-6600000D01*
X13428750Y-6560000D02*
X13388750Y-6600000D01*
X14140000Y-10540000D02*
X14180000Y-10580000D01*
X14180000Y-10540000D02*
X14140000Y-10580000D01*
X14140000Y-10970000D02*
X14180000Y-11010000D01*
X14180000Y-10970000D02*
X14140000Y-11010000D01*
X14300000Y-6560000D02*
X14340000Y-6600000D01*
X14340000Y-6560000D02*
X14300000Y-6600000D01*
X14530000Y-6410000D02*
X14570000Y-6450000D01*
X14570000Y-6410000D02*
X14530000Y-6450000D01*
X14760000Y-6900000D02*
X14800000Y-6940000D01*
X14800000Y-6900000D02*
X14760000Y-6940000D01*
X14760000Y-7030000D02*
X14800000Y-7070000D01*
X14800000Y-7030000D02*
X14760000Y-7070000D01*
X14760000Y-7160000D02*
X14800000Y-7200000D01*
X14800000Y-7160000D02*
X14760000Y-7200000D01*
X14760000Y-10050000D02*
X14800000Y-10090000D01*
X14800000Y-10050000D02*
X14760000Y-10090000D01*
X14760000Y-10180000D02*
X14800000Y-10220000D01*
X14800000Y-10180000D02*
X14760000Y-10220000D01*
X14760000Y-10310000D02*
X14800000Y-10350000D01*
X14800000Y-10310000D02*
X14760000Y-10350000D01*
X15150000Y-6780000D02*
X15190000Y-6820000D01*
X15190000Y-6780000D02*
X15150000Y-6820000D01*
X15150000Y-6970000D02*
X15190000Y-7010000D01*
X15190000Y-6970000D02*
X15150000Y-7010000D01*
X15150000Y-7100000D02*
X15190000Y-7140000D01*
X15190000Y-7100000D02*
X15150000Y-7140000D01*
X15150000Y-9940000D02*
X15190000Y-9980000D01*
X15190000Y-9940000D02*
X15150000Y-9980000D01*
X15150000Y-10120000D02*
X15190000Y-10160000D01*
X15190000Y-10120000D02*
X15150000Y-10160000D01*
X15150000Y-10250000D02*
X15190000Y-10290000D01*
X15190000Y-10250000D02*
X15150000Y-10290000D01*
X15240000Y-7440000D02*
X15280000Y-7480000D01*
X15280000Y-7440000D02*
X15240000Y-7480000D01*
X15690000Y-10240000D02*
X15730000Y-10280000D01*
X15730000Y-10240000D02*
X15690000Y-10280000D01*
X15690000Y-10380000D02*
X15730000Y-10420000D01*
X15730000Y-10380000D02*
X15690000Y-10420000D01*
X15690000Y-10520000D02*
X15730000Y-10560000D01*
X15730000Y-10520000D02*
X15690000Y-10560000D01*
X15700000Y-6970000D02*
X15740000Y-7010000D01*
X15740000Y-6970000D02*
X15700000Y-7010000D01*
X15700000Y-7100000D02*
X15740000Y-7140000D01*
X15740000Y-7100000D02*
X15700000Y-7140000D01*
X15700000Y-7220000D02*
X15740000Y-7260000D01*
X15740000Y-7220000D02*
X15700000Y-7260000D01*
X15700000Y-10120000D02*
X15740000Y-10160000D01*
X15740000Y-10120000D02*
X15700000Y-10160000D01*
X15800000Y-6900000D02*
X15840000Y-6940000D01*
X15840000Y-6900000D02*
X15800000Y-6940000D01*
X15800000Y-7030000D02*
X15840000Y-7070000D01*
X15840000Y-7030000D02*
X15800000Y-7070000D01*
X15800000Y-7160000D02*
X15840000Y-7200000D01*
X15840000Y-7160000D02*
X15800000Y-7200000D01*
X15800000Y-7290000D02*
X15840000Y-7330000D01*
X15840000Y-7290000D02*
X15800000Y-7330000D01*
X15800000Y-7680000D02*
X15840000Y-7720000D01*
X15840000Y-7680000D02*
X15800000Y-7720000D01*
X15800000Y-7810000D02*
X15840000Y-7850000D01*
X15840000Y-7810000D02*
X15800000Y-7850000D01*
X15800000Y-7940000D02*
X15840000Y-7980000D01*
X15840000Y-7940000D02*
X15800000Y-7980000D01*
X15800000Y-8190000D02*
X15840000Y-8230000D01*
X15840000Y-8190000D02*
X15800000Y-8230000D01*
X15800000Y-8330000D02*
X15840000Y-8370000D01*
X15840000Y-8330000D02*
X15800000Y-8370000D01*
X15800000Y-8460000D02*
X15840000Y-8500000D01*
X15840000Y-8460000D02*
X15800000Y-8500000D01*
X15800000Y-8600000D02*
X15840000Y-8640000D01*
X15840000Y-8600000D02*
X15800000Y-8640000D01*
X15800000Y-10180000D02*
X15840000Y-10220000D01*
X15840000Y-10180000D02*
X15800000Y-10220000D01*
X15800000Y-10310000D02*
X15840000Y-10350000D01*
X15840000Y-10310000D02*
X15800000Y-10350000D01*
X15800000Y-10450000D02*
X15840000Y-10490000D01*
X15840000Y-10450000D02*
X15800000Y-10490000D01*
X17030000Y-7500000D02*
X17070000Y-7540000D01*
X17070000Y-7500000D02*
X17030000Y-7540000D01*
X17030000Y-7630000D02*
X17070000Y-7670000D01*
X17070000Y-7630000D02*
X17030000Y-7670000D01*
X17030000Y-7760000D02*
X17070000Y-7800000D01*
X17070000Y-7760000D02*
X17030000Y-7800000D01*
X17030000Y-7890000D02*
X17070000Y-7930000D01*
X17070000Y-7890000D02*
X17030000Y-7930000D01*
X17030000Y-8200000D02*
X17070000Y-8240000D01*
X17070000Y-8200000D02*
X17030000Y-8240000D01*
X17030000Y-8330000D02*
X17070000Y-8370000D01*
X17070000Y-8330000D02*
X17030000Y-8370000D01*
X17030000Y-8460000D02*
X17070000Y-8500000D01*
X17070000Y-8460000D02*
X17030000Y-8500000D01*
X17030000Y-8600000D02*
X17070000Y-8640000D01*
X17070000Y-8600000D02*
X17030000Y-8640000D01*
X17030000Y-8890000D02*
X17070000Y-8930000D01*
X17070000Y-8890000D02*
X17030000Y-8930000D01*
X17030000Y-9030000D02*
X17070000Y-9070000D01*
X17070000Y-9030000D02*
X17030000Y-9070000D01*
X17030000Y-9160000D02*
X17070000Y-9200000D01*
X17070000Y-9160000D02*
X17030000Y-9200000D01*
X17030000Y-9300000D02*
X17070000Y-9340000D01*
X17070000Y-9300000D02*
X17030000Y-9340000D01*
X17030000Y-9430000D02*
X17070000Y-9470000D01*
X17070000Y-9430000D02*
X17030000Y-9470000D01*
X17030000Y-9560000D02*
X17070000Y-9600000D01*
X17070000Y-9560000D02*
X17030000Y-9600000D01*
X17030000Y-9700000D02*
X17070000Y-9740000D01*
X17070000Y-9700000D02*
X17030000Y-9740000D01*
X17030000Y-9830000D02*
X17070000Y-9870000D01*
X17070000Y-9830000D02*
X17030000Y-9870000D01*
X17030000Y-9950000D02*
X17070000Y-9990000D01*
X17070000Y-9950000D02*
X17030000Y-9990000D01*
D13*
X12900000Y-7800000D02*
G75*
G03*
X12900000Y-7800000I-70000J0D01*
G01*
X12900000Y-8300000D02*
G75*
G03*
X12900000Y-8300000I-70000J0D01*
G01*
X12900000Y-9300000D02*
G75*
G03*
X12900000Y-9300000I-70000J0D01*
G01*
X12900000Y-9800000D02*
G75*
G03*
X12900000Y-9800000I-70000J0D01*
G01*
X16520000Y-7100000D02*
G75*
G03*
X16520000Y-7100000I-70000J0D01*
G01*
X16520000Y-7600000D02*
G75*
G03*
X16520000Y-7600000I-70000J0D01*
G01*
X16520000Y-8500000D02*
G75*
G03*
X16520000Y-8500000I-70000J0D01*
G01*
X16520000Y-9000000D02*
G75*
G03*
X16520000Y-9000000I-70000J0D01*
G01*
X16520000Y-9900000D02*
G75*
G03*
X16520000Y-9900000I-70000J0D01*
G01*
X16520000Y-10400000D02*
G75*
G03*
X16520000Y-10400000I-70000J0D01*
G01*
D11*
X12242619Y-11898476D02*
X12242619Y-11698476D01*
X12242619Y-11698476D02*
X12290238Y-11698476D01*
X12290238Y-11698476D02*
X12318809Y-11708000D01*
X12318809Y-11708000D02*
X12337857Y-11727048D01*
X12337857Y-11727048D02*
X12347381Y-11746095D01*
X12347381Y-11746095D02*
X12356905Y-11784190D01*
X12356905Y-11784190D02*
X12356905Y-11812762D01*
X12356905Y-11812762D02*
X12347381Y-11850857D01*
X12347381Y-11850857D02*
X12337857Y-11869905D01*
X12337857Y-11869905D02*
X12318809Y-11888952D01*
X12318809Y-11888952D02*
X12290238Y-11898476D01*
X12290238Y-11898476D02*
X12242619Y-11898476D01*
X12442619Y-11898476D02*
X12442619Y-11765143D01*
X12442619Y-11803238D02*
X12452143Y-11784190D01*
X12452143Y-11784190D02*
X12461667Y-11774667D01*
X12461667Y-11774667D02*
X12480714Y-11765143D01*
X12480714Y-11765143D02*
X12499762Y-11765143D01*
X12566428Y-11898476D02*
X12566428Y-11765143D01*
X12566428Y-11698476D02*
X12556905Y-11708000D01*
X12556905Y-11708000D02*
X12566428Y-11717524D01*
X12566428Y-11717524D02*
X12575952Y-11708000D01*
X12575952Y-11708000D02*
X12566428Y-11698476D01*
X12566428Y-11698476D02*
X12566428Y-11717524D01*
X12690238Y-11898476D02*
X12671190Y-11888952D01*
X12671190Y-11888952D02*
X12661667Y-11869905D01*
X12661667Y-11869905D02*
X12661667Y-11698476D01*
X12795000Y-11898476D02*
X12775952Y-11888952D01*
X12775952Y-11888952D02*
X12766428Y-11869905D01*
X12766428Y-11869905D02*
X12766428Y-11698476D01*
X12991190Y-11898476D02*
X12991190Y-11698476D01*
X12991190Y-11698476D02*
X13057857Y-11841333D01*
X13057857Y-11841333D02*
X13124524Y-11698476D01*
X13124524Y-11698476D02*
X13124524Y-11898476D01*
X13305476Y-11898476D02*
X13305476Y-11793714D01*
X13305476Y-11793714D02*
X13295952Y-11774667D01*
X13295952Y-11774667D02*
X13276905Y-11765143D01*
X13276905Y-11765143D02*
X13238809Y-11765143D01*
X13238809Y-11765143D02*
X13219762Y-11774667D01*
X13305476Y-11888952D02*
X13286428Y-11898476D01*
X13286428Y-11898476D02*
X13238809Y-11898476D01*
X13238809Y-11898476D02*
X13219762Y-11888952D01*
X13219762Y-11888952D02*
X13210238Y-11869905D01*
X13210238Y-11869905D02*
X13210238Y-11850857D01*
X13210238Y-11850857D02*
X13219762Y-11831809D01*
X13219762Y-11831809D02*
X13238809Y-11822286D01*
X13238809Y-11822286D02*
X13286428Y-11822286D01*
X13286428Y-11822286D02*
X13305476Y-11812762D01*
X13400714Y-11765143D02*
X13400714Y-11965143D01*
X13400714Y-11774667D02*
X13419762Y-11765143D01*
X13419762Y-11765143D02*
X13457857Y-11765143D01*
X13457857Y-11765143D02*
X13476905Y-11774667D01*
X13476905Y-11774667D02*
X13486428Y-11784190D01*
X13486428Y-11784190D02*
X13495952Y-11803238D01*
X13495952Y-11803238D02*
X13495952Y-11860381D01*
X13495952Y-11860381D02*
X13486428Y-11879428D01*
X13486428Y-11879428D02*
X13476905Y-11888952D01*
X13476905Y-11888952D02*
X13457857Y-11898476D01*
X13457857Y-11898476D02*
X13419762Y-11898476D01*
X13419762Y-11898476D02*
X13400714Y-11888952D01*
X13581667Y-11879428D02*
X13591190Y-11888952D01*
X13591190Y-11888952D02*
X13581667Y-11898476D01*
X13581667Y-11898476D02*
X13572143Y-11888952D01*
X13572143Y-11888952D02*
X13581667Y-11879428D01*
X13581667Y-11879428D02*
X13581667Y-11898476D01*
X13581667Y-11774667D02*
X13591190Y-11784190D01*
X13591190Y-11784190D02*
X13581667Y-11793714D01*
X13581667Y-11793714D02*
X13572143Y-11784190D01*
X13572143Y-11784190D02*
X13581667Y-11774667D01*
X13581667Y-11774667D02*
X13581667Y-11793714D01*
D12*
X11955000Y-12225000D02*
X11995000Y-12265000D01*
X11995000Y-12225000D02*
X11955000Y-12265000D01*
D11*
X12280714Y-12118476D02*
X12299762Y-12118476D01*
X12299762Y-12118476D02*
X12318809Y-12128000D01*
X12318809Y-12128000D02*
X12328333Y-12137524D01*
X12328333Y-12137524D02*
X12337857Y-12156571D01*
X12337857Y-12156571D02*
X12347381Y-12194667D01*
X12347381Y-12194667D02*
X12347381Y-12242286D01*
X12347381Y-12242286D02*
X12337857Y-12280381D01*
X12337857Y-12280381D02*
X12328333Y-12299428D01*
X12328333Y-12299428D02*
X12318809Y-12308952D01*
X12318809Y-12308952D02*
X12299762Y-12318476D01*
X12299762Y-12318476D02*
X12280714Y-12318476D01*
X12280714Y-12318476D02*
X12261667Y-12308952D01*
X12261667Y-12308952D02*
X12252143Y-12299428D01*
X12252143Y-12299428D02*
X12242619Y-12280381D01*
X12242619Y-12280381D02*
X12233095Y-12242286D01*
X12233095Y-12242286D02*
X12233095Y-12194667D01*
X12233095Y-12194667D02*
X12242619Y-12156571D01*
X12242619Y-12156571D02*
X12252143Y-12137524D01*
X12252143Y-12137524D02*
X12261667Y-12128000D01*
X12261667Y-12128000D02*
X12280714Y-12118476D01*
X12433095Y-12299428D02*
X12442619Y-12308952D01*
X12442619Y-12308952D02*
X12433095Y-12318476D01*
X12433095Y-12318476D02*
X12423571Y-12308952D01*
X12423571Y-12308952D02*
X12433095Y-12299428D01*
X12433095Y-12299428D02*
X12433095Y-12318476D01*
X12614048Y-12185143D02*
X12614048Y-12318476D01*
X12566428Y-12108952D02*
X12518809Y-12251809D01*
X12518809Y-12251809D02*
X12642619Y-12251809D01*
X12756905Y-12118476D02*
X12775952Y-12118476D01*
X12775952Y-12118476D02*
X12795000Y-12128000D01*
X12795000Y-12128000D02*
X12804524Y-12137524D01*
X12804524Y-12137524D02*
X12814048Y-12156571D01*
X12814048Y-12156571D02*
X12823571Y-12194667D01*
X12823571Y-12194667D02*
X12823571Y-12242286D01*
X12823571Y-12242286D02*
X12814048Y-12280381D01*
X12814048Y-12280381D02*
X12804524Y-12299428D01*
X12804524Y-12299428D02*
X12795000Y-12308952D01*
X12795000Y-12308952D02*
X12775952Y-12318476D01*
X12775952Y-12318476D02*
X12756905Y-12318476D01*
X12756905Y-12318476D02*
X12737857Y-12308952D01*
X12737857Y-12308952D02*
X12728333Y-12299428D01*
X12728333Y-12299428D02*
X12718809Y-12280381D01*
X12718809Y-12280381D02*
X12709286Y-12242286D01*
X12709286Y-12242286D02*
X12709286Y-12194667D01*
X12709286Y-12194667D02*
X12718809Y-12156571D01*
X12718809Y-12156571D02*
X12728333Y-12137524D01*
X12728333Y-12137524D02*
X12737857Y-12128000D01*
X12737857Y-12128000D02*
X12756905Y-12118476D01*
X12947381Y-12118476D02*
X12966429Y-12118476D01*
X12966429Y-12118476D02*
X12985476Y-12128000D01*
X12985476Y-12128000D02*
X12995000Y-12137524D01*
X12995000Y-12137524D02*
X13004524Y-12156571D01*
X13004524Y-12156571D02*
X13014048Y-12194667D01*
X13014048Y-12194667D02*
X13014048Y-12242286D01*
X13014048Y-12242286D02*
X13004524Y-12280381D01*
X13004524Y-12280381D02*
X12995000Y-12299428D01*
X12995000Y-12299428D02*
X12985476Y-12308952D01*
X12985476Y-12308952D02*
X12966429Y-12318476D01*
X12966429Y-12318476D02*
X12947381Y-12318476D01*
X12947381Y-12318476D02*
X12928333Y-12308952D01*
X12928333Y-12308952D02*
X12918809Y-12299428D01*
X12918809Y-12299428D02*
X12909286Y-12280381D01*
X12909286Y-12280381D02*
X12899762Y-12242286D01*
X12899762Y-12242286D02*
X12899762Y-12194667D01*
X12899762Y-12194667D02*
X12909286Y-12156571D01*
X12909286Y-12156571D02*
X12918809Y-12137524D01*
X12918809Y-12137524D02*
X12928333Y-12128000D01*
X12928333Y-12128000D02*
X12947381Y-12118476D01*
X13099762Y-12318476D02*
X13099762Y-12185143D01*
X13099762Y-12204190D02*
X13109286Y-12194667D01*
X13109286Y-12194667D02*
X13128333Y-12185143D01*
X13128333Y-12185143D02*
X13156905Y-12185143D01*
X13156905Y-12185143D02*
X13175952Y-12194667D01*
X13175952Y-12194667D02*
X13185476Y-12213714D01*
X13185476Y-12213714D02*
X13185476Y-12318476D01*
X13185476Y-12213714D02*
X13195000Y-12194667D01*
X13195000Y-12194667D02*
X13214048Y-12185143D01*
X13214048Y-12185143D02*
X13242619Y-12185143D01*
X13242619Y-12185143D02*
X13261667Y-12194667D01*
X13261667Y-12194667D02*
X13271190Y-12213714D01*
X13271190Y-12213714D02*
X13271190Y-12318476D01*
X13366429Y-12318476D02*
X13366429Y-12185143D01*
X13366429Y-12204190D02*
X13375952Y-12194667D01*
X13375952Y-12194667D02*
X13395000Y-12185143D01*
X13395000Y-12185143D02*
X13423571Y-12185143D01*
X13423571Y-12185143D02*
X13442619Y-12194667D01*
X13442619Y-12194667D02*
X13452143Y-12213714D01*
X13452143Y-12213714D02*
X13452143Y-12318476D01*
X13452143Y-12213714D02*
X13461667Y-12194667D01*
X13461667Y-12194667D02*
X13480714Y-12185143D01*
X13480714Y-12185143D02*
X13509286Y-12185143D01*
X13509286Y-12185143D02*
X13528333Y-12194667D01*
X13528333Y-12194667D02*
X13537857Y-12213714D01*
X13537857Y-12213714D02*
X13537857Y-12318476D01*
X13895952Y-12108952D02*
X13724524Y-12366095D01*
X14120714Y-12118476D02*
X14139762Y-12118476D01*
X14139762Y-12118476D02*
X14158810Y-12128000D01*
X14158810Y-12128000D02*
X14168333Y-12137524D01*
X14168333Y-12137524D02*
X14177857Y-12156571D01*
X14177857Y-12156571D02*
X14187381Y-12194667D01*
X14187381Y-12194667D02*
X14187381Y-12242286D01*
X14187381Y-12242286D02*
X14177857Y-12280381D01*
X14177857Y-12280381D02*
X14168333Y-12299428D01*
X14168333Y-12299428D02*
X14158810Y-12308952D01*
X14158810Y-12308952D02*
X14139762Y-12318476D01*
X14139762Y-12318476D02*
X14120714Y-12318476D01*
X14120714Y-12318476D02*
X14101667Y-12308952D01*
X14101667Y-12308952D02*
X14092143Y-12299428D01*
X14092143Y-12299428D02*
X14082619Y-12280381D01*
X14082619Y-12280381D02*
X14073095Y-12242286D01*
X14073095Y-12242286D02*
X14073095Y-12194667D01*
X14073095Y-12194667D02*
X14082619Y-12156571D01*
X14082619Y-12156571D02*
X14092143Y-12137524D01*
X14092143Y-12137524D02*
X14101667Y-12128000D01*
X14101667Y-12128000D02*
X14120714Y-12118476D01*
X14273095Y-12299428D02*
X14282619Y-12308952D01*
X14282619Y-12308952D02*
X14273095Y-12318476D01*
X14273095Y-12318476D02*
X14263571Y-12308952D01*
X14263571Y-12308952D02*
X14273095Y-12299428D01*
X14273095Y-12299428D02*
X14273095Y-12318476D01*
X14406429Y-12118476D02*
X14425476Y-12118476D01*
X14425476Y-12118476D02*
X14444524Y-12128000D01*
X14444524Y-12128000D02*
X14454048Y-12137524D01*
X14454048Y-12137524D02*
X14463571Y-12156571D01*
X14463571Y-12156571D02*
X14473095Y-12194667D01*
X14473095Y-12194667D02*
X14473095Y-12242286D01*
X14473095Y-12242286D02*
X14463571Y-12280381D01*
X14463571Y-12280381D02*
X14454048Y-12299428D01*
X14454048Y-12299428D02*
X14444524Y-12308952D01*
X14444524Y-12308952D02*
X14425476Y-12318476D01*
X14425476Y-12318476D02*
X14406429Y-12318476D01*
X14406429Y-12318476D02*
X14387381Y-12308952D01*
X14387381Y-12308952D02*
X14377857Y-12299428D01*
X14377857Y-12299428D02*
X14368333Y-12280381D01*
X14368333Y-12280381D02*
X14358810Y-12242286D01*
X14358810Y-12242286D02*
X14358810Y-12194667D01*
X14358810Y-12194667D02*
X14368333Y-12156571D01*
X14368333Y-12156571D02*
X14377857Y-12137524D01*
X14377857Y-12137524D02*
X14387381Y-12128000D01*
X14387381Y-12128000D02*
X14406429Y-12118476D01*
X14663571Y-12318476D02*
X14549286Y-12318476D01*
X14606429Y-12318476D02*
X14606429Y-12118476D01*
X14606429Y-12118476D02*
X14587381Y-12147048D01*
X14587381Y-12147048D02*
X14568333Y-12166095D01*
X14568333Y-12166095D02*
X14549286Y-12175619D01*
X14844524Y-12118476D02*
X14749286Y-12118476D01*
X14749286Y-12118476D02*
X14739762Y-12213714D01*
X14739762Y-12213714D02*
X14749286Y-12204190D01*
X14749286Y-12204190D02*
X14768333Y-12194667D01*
X14768333Y-12194667D02*
X14815952Y-12194667D01*
X14815952Y-12194667D02*
X14835000Y-12204190D01*
X14835000Y-12204190D02*
X14844524Y-12213714D01*
X14844524Y-12213714D02*
X14854048Y-12232762D01*
X14854048Y-12232762D02*
X14854048Y-12280381D01*
X14854048Y-12280381D02*
X14844524Y-12299428D01*
X14844524Y-12299428D02*
X14835000Y-12308952D01*
X14835000Y-12308952D02*
X14815952Y-12318476D01*
X14815952Y-12318476D02*
X14768333Y-12318476D01*
X14768333Y-12318476D02*
X14749286Y-12308952D01*
X14749286Y-12308952D02*
X14739762Y-12299428D01*
X14920714Y-12118476D02*
X15054048Y-12118476D01*
X15054048Y-12118476D02*
X14968333Y-12318476D01*
X15120714Y-12118476D02*
X15120714Y-12156571D01*
X15196905Y-12118476D02*
X15196905Y-12156571D01*
X15459762Y-12394667D02*
X15450238Y-12385143D01*
X15450238Y-12385143D02*
X15431191Y-12356571D01*
X15431191Y-12356571D02*
X15421667Y-12337524D01*
X15421667Y-12337524D02*
X15412143Y-12308952D01*
X15412143Y-12308952D02*
X15402619Y-12261333D01*
X15402619Y-12261333D02*
X15402619Y-12223238D01*
X15402619Y-12223238D02*
X15412143Y-12175619D01*
X15412143Y-12175619D02*
X15421667Y-12147048D01*
X15421667Y-12147048D02*
X15431191Y-12128000D01*
X15431191Y-12128000D02*
X15450238Y-12099428D01*
X15450238Y-12099428D02*
X15459762Y-12089905D01*
X15631191Y-12118476D02*
X15535952Y-12118476D01*
X15535952Y-12118476D02*
X15526429Y-12213714D01*
X15526429Y-12213714D02*
X15535952Y-12204190D01*
X15535952Y-12204190D02*
X15555000Y-12194667D01*
X15555000Y-12194667D02*
X15602619Y-12194667D01*
X15602619Y-12194667D02*
X15621667Y-12204190D01*
X15621667Y-12204190D02*
X15631191Y-12213714D01*
X15631191Y-12213714D02*
X15640714Y-12232762D01*
X15640714Y-12232762D02*
X15640714Y-12280381D01*
X15640714Y-12280381D02*
X15631191Y-12299428D01*
X15631191Y-12299428D02*
X15621667Y-12308952D01*
X15621667Y-12308952D02*
X15602619Y-12318476D01*
X15602619Y-12318476D02*
X15555000Y-12318476D01*
X15555000Y-12318476D02*
X15535952Y-12308952D01*
X15535952Y-12308952D02*
X15526429Y-12299428D01*
X15812143Y-12118476D02*
X15774048Y-12118476D01*
X15774048Y-12118476D02*
X15755000Y-12128000D01*
X15755000Y-12128000D02*
X15745476Y-12137524D01*
X15745476Y-12137524D02*
X15726429Y-12166095D01*
X15726429Y-12166095D02*
X15716905Y-12204190D01*
X15716905Y-12204190D02*
X15716905Y-12280381D01*
X15716905Y-12280381D02*
X15726429Y-12299428D01*
X15726429Y-12299428D02*
X15735952Y-12308952D01*
X15735952Y-12308952D02*
X15755000Y-12318476D01*
X15755000Y-12318476D02*
X15793095Y-12318476D01*
X15793095Y-12318476D02*
X15812143Y-12308952D01*
X15812143Y-12308952D02*
X15821667Y-12299428D01*
X15821667Y-12299428D02*
X15831191Y-12280381D01*
X15831191Y-12280381D02*
X15831191Y-12232762D01*
X15831191Y-12232762D02*
X15821667Y-12213714D01*
X15821667Y-12213714D02*
X15812143Y-12204190D01*
X15812143Y-12204190D02*
X15793095Y-12194667D01*
X15793095Y-12194667D02*
X15755000Y-12194667D01*
X15755000Y-12194667D02*
X15735952Y-12204190D01*
X15735952Y-12204190D02*
X15726429Y-12213714D01*
X15726429Y-12213714D02*
X15716905Y-12232762D01*
X16036905Y-12318476D02*
X16036905Y-12118476D01*
X16122619Y-12318476D02*
X16122619Y-12213714D01*
X16122619Y-12213714D02*
X16113095Y-12194667D01*
X16113095Y-12194667D02*
X16094048Y-12185143D01*
X16094048Y-12185143D02*
X16065476Y-12185143D01*
X16065476Y-12185143D02*
X16046429Y-12194667D01*
X16046429Y-12194667D02*
X16036905Y-12204190D01*
X16246429Y-12318476D02*
X16227381Y-12308952D01*
X16227381Y-12308952D02*
X16217857Y-12299428D01*
X16217857Y-12299428D02*
X16208333Y-12280381D01*
X16208333Y-12280381D02*
X16208333Y-12223238D01*
X16208333Y-12223238D02*
X16217857Y-12204190D01*
X16217857Y-12204190D02*
X16227381Y-12194667D01*
X16227381Y-12194667D02*
X16246429Y-12185143D01*
X16246429Y-12185143D02*
X16275000Y-12185143D01*
X16275000Y-12185143D02*
X16294048Y-12194667D01*
X16294048Y-12194667D02*
X16303572Y-12204190D01*
X16303572Y-12204190D02*
X16313095Y-12223238D01*
X16313095Y-12223238D02*
X16313095Y-12280381D01*
X16313095Y-12280381D02*
X16303572Y-12299428D01*
X16303572Y-12299428D02*
X16294048Y-12308952D01*
X16294048Y-12308952D02*
X16275000Y-12318476D01*
X16275000Y-12318476D02*
X16246429Y-12318476D01*
X16427381Y-12318476D02*
X16408333Y-12308952D01*
X16408333Y-12308952D02*
X16398810Y-12289905D01*
X16398810Y-12289905D02*
X16398810Y-12118476D01*
X16579762Y-12308952D02*
X16560714Y-12318476D01*
X16560714Y-12318476D02*
X16522619Y-12318476D01*
X16522619Y-12318476D02*
X16503572Y-12308952D01*
X16503572Y-12308952D02*
X16494048Y-12289905D01*
X16494048Y-12289905D02*
X16494048Y-12213714D01*
X16494048Y-12213714D02*
X16503572Y-12194667D01*
X16503572Y-12194667D02*
X16522619Y-12185143D01*
X16522619Y-12185143D02*
X16560714Y-12185143D01*
X16560714Y-12185143D02*
X16579762Y-12194667D01*
X16579762Y-12194667D02*
X16589286Y-12213714D01*
X16589286Y-12213714D02*
X16589286Y-12232762D01*
X16589286Y-12232762D02*
X16494048Y-12251809D01*
X16665476Y-12308952D02*
X16684524Y-12318476D01*
X16684524Y-12318476D02*
X16722619Y-12318476D01*
X16722619Y-12318476D02*
X16741667Y-12308952D01*
X16741667Y-12308952D02*
X16751191Y-12289905D01*
X16751191Y-12289905D02*
X16751191Y-12280381D01*
X16751191Y-12280381D02*
X16741667Y-12261333D01*
X16741667Y-12261333D02*
X16722619Y-12251809D01*
X16722619Y-12251809D02*
X16694048Y-12251809D01*
X16694048Y-12251809D02*
X16675000Y-12242286D01*
X16675000Y-12242286D02*
X16665476Y-12223238D01*
X16665476Y-12223238D02*
X16665476Y-12213714D01*
X16665476Y-12213714D02*
X16675000Y-12194667D01*
X16675000Y-12194667D02*
X16694048Y-12185143D01*
X16694048Y-12185143D02*
X16722619Y-12185143D01*
X16722619Y-12185143D02*
X16741667Y-12194667D01*
X16817857Y-12394667D02*
X16827381Y-12385143D01*
X16827381Y-12385143D02*
X16846429Y-12356571D01*
X16846429Y-12356571D02*
X16855953Y-12337524D01*
X16855953Y-12337524D02*
X16865476Y-12308952D01*
X16865476Y-12308952D02*
X16875000Y-12261333D01*
X16875000Y-12261333D02*
X16875000Y-12223238D01*
X16875000Y-12223238D02*
X16865476Y-12175619D01*
X16865476Y-12175619D02*
X16855953Y-12147048D01*
X16855953Y-12147048D02*
X16846429Y-12128000D01*
X16846429Y-12128000D02*
X16827381Y-12099428D01*
X16827381Y-12099428D02*
X16817857Y-12089905D01*
D13*
X11995000Y-12509000D02*
G75*
G03*
X11995000Y-12509000I-70000J0D01*
G01*
D11*
X12347381Y-12582476D02*
X12233095Y-12582476D01*
X12290238Y-12582476D02*
X12290238Y-12382476D01*
X12290238Y-12382476D02*
X12271190Y-12411048D01*
X12271190Y-12411048D02*
X12252143Y-12430095D01*
X12252143Y-12430095D02*
X12233095Y-12439619D01*
X12433095Y-12563428D02*
X12442619Y-12572952D01*
X12442619Y-12572952D02*
X12433095Y-12582476D01*
X12433095Y-12582476D02*
X12423571Y-12572952D01*
X12423571Y-12572952D02*
X12433095Y-12563428D01*
X12433095Y-12563428D02*
X12433095Y-12582476D01*
X12614048Y-12449143D02*
X12614048Y-12582476D01*
X12566428Y-12372952D02*
X12518809Y-12515809D01*
X12518809Y-12515809D02*
X12642619Y-12515809D01*
X12756905Y-12382476D02*
X12775952Y-12382476D01*
X12775952Y-12382476D02*
X12795000Y-12392000D01*
X12795000Y-12392000D02*
X12804524Y-12401524D01*
X12804524Y-12401524D02*
X12814048Y-12420571D01*
X12814048Y-12420571D02*
X12823571Y-12458667D01*
X12823571Y-12458667D02*
X12823571Y-12506286D01*
X12823571Y-12506286D02*
X12814048Y-12544381D01*
X12814048Y-12544381D02*
X12804524Y-12563428D01*
X12804524Y-12563428D02*
X12795000Y-12572952D01*
X12795000Y-12572952D02*
X12775952Y-12582476D01*
X12775952Y-12582476D02*
X12756905Y-12582476D01*
X12756905Y-12582476D02*
X12737857Y-12572952D01*
X12737857Y-12572952D02*
X12728333Y-12563428D01*
X12728333Y-12563428D02*
X12718809Y-12544381D01*
X12718809Y-12544381D02*
X12709286Y-12506286D01*
X12709286Y-12506286D02*
X12709286Y-12458667D01*
X12709286Y-12458667D02*
X12718809Y-12420571D01*
X12718809Y-12420571D02*
X12728333Y-12401524D01*
X12728333Y-12401524D02*
X12737857Y-12392000D01*
X12737857Y-12392000D02*
X12756905Y-12382476D01*
X12947381Y-12382476D02*
X12966429Y-12382476D01*
X12966429Y-12382476D02*
X12985476Y-12392000D01*
X12985476Y-12392000D02*
X12995000Y-12401524D01*
X12995000Y-12401524D02*
X13004524Y-12420571D01*
X13004524Y-12420571D02*
X13014048Y-12458667D01*
X13014048Y-12458667D02*
X13014048Y-12506286D01*
X13014048Y-12506286D02*
X13004524Y-12544381D01*
X13004524Y-12544381D02*
X12995000Y-12563428D01*
X12995000Y-12563428D02*
X12985476Y-12572952D01*
X12985476Y-12572952D02*
X12966429Y-12582476D01*
X12966429Y-12582476D02*
X12947381Y-12582476D01*
X12947381Y-12582476D02*
X12928333Y-12572952D01*
X12928333Y-12572952D02*
X12918809Y-12563428D01*
X12918809Y-12563428D02*
X12909286Y-12544381D01*
X12909286Y-12544381D02*
X12899762Y-12506286D01*
X12899762Y-12506286D02*
X12899762Y-12458667D01*
X12899762Y-12458667D02*
X12909286Y-12420571D01*
X12909286Y-12420571D02*
X12918809Y-12401524D01*
X12918809Y-12401524D02*
X12928333Y-12392000D01*
X12928333Y-12392000D02*
X12947381Y-12382476D01*
X13099762Y-12582476D02*
X13099762Y-12449143D01*
X13099762Y-12468190D02*
X13109286Y-12458667D01*
X13109286Y-12458667D02*
X13128333Y-12449143D01*
X13128333Y-12449143D02*
X13156905Y-12449143D01*
X13156905Y-12449143D02*
X13175952Y-12458667D01*
X13175952Y-12458667D02*
X13185476Y-12477714D01*
X13185476Y-12477714D02*
X13185476Y-12582476D01*
X13185476Y-12477714D02*
X13195000Y-12458667D01*
X13195000Y-12458667D02*
X13214048Y-12449143D01*
X13214048Y-12449143D02*
X13242619Y-12449143D01*
X13242619Y-12449143D02*
X13261667Y-12458667D01*
X13261667Y-12458667D02*
X13271190Y-12477714D01*
X13271190Y-12477714D02*
X13271190Y-12582476D01*
X13366429Y-12582476D02*
X13366429Y-12449143D01*
X13366429Y-12468190D02*
X13375952Y-12458667D01*
X13375952Y-12458667D02*
X13395000Y-12449143D01*
X13395000Y-12449143D02*
X13423571Y-12449143D01*
X13423571Y-12449143D02*
X13442619Y-12458667D01*
X13442619Y-12458667D02*
X13452143Y-12477714D01*
X13452143Y-12477714D02*
X13452143Y-12582476D01*
X13452143Y-12477714D02*
X13461667Y-12458667D01*
X13461667Y-12458667D02*
X13480714Y-12449143D01*
X13480714Y-12449143D02*
X13509286Y-12449143D01*
X13509286Y-12449143D02*
X13528333Y-12458667D01*
X13528333Y-12458667D02*
X13537857Y-12477714D01*
X13537857Y-12477714D02*
X13537857Y-12582476D01*
X13895952Y-12372952D02*
X13724524Y-12630095D01*
X14120714Y-12382476D02*
X14139762Y-12382476D01*
X14139762Y-12382476D02*
X14158810Y-12392000D01*
X14158810Y-12392000D02*
X14168333Y-12401524D01*
X14168333Y-12401524D02*
X14177857Y-12420571D01*
X14177857Y-12420571D02*
X14187381Y-12458667D01*
X14187381Y-12458667D02*
X14187381Y-12506286D01*
X14187381Y-12506286D02*
X14177857Y-12544381D01*
X14177857Y-12544381D02*
X14168333Y-12563428D01*
X14168333Y-12563428D02*
X14158810Y-12572952D01*
X14158810Y-12572952D02*
X14139762Y-12582476D01*
X14139762Y-12582476D02*
X14120714Y-12582476D01*
X14120714Y-12582476D02*
X14101667Y-12572952D01*
X14101667Y-12572952D02*
X14092143Y-12563428D01*
X14092143Y-12563428D02*
X14082619Y-12544381D01*
X14082619Y-12544381D02*
X14073095Y-12506286D01*
X14073095Y-12506286D02*
X14073095Y-12458667D01*
X14073095Y-12458667D02*
X14082619Y-12420571D01*
X14082619Y-12420571D02*
X14092143Y-12401524D01*
X14092143Y-12401524D02*
X14101667Y-12392000D01*
X14101667Y-12392000D02*
X14120714Y-12382476D01*
X14273095Y-12563428D02*
X14282619Y-12572952D01*
X14282619Y-12572952D02*
X14273095Y-12582476D01*
X14273095Y-12582476D02*
X14263571Y-12572952D01*
X14263571Y-12572952D02*
X14273095Y-12563428D01*
X14273095Y-12563428D02*
X14273095Y-12582476D01*
X14406429Y-12382476D02*
X14425476Y-12382476D01*
X14425476Y-12382476D02*
X14444524Y-12392000D01*
X14444524Y-12392000D02*
X14454048Y-12401524D01*
X14454048Y-12401524D02*
X14463571Y-12420571D01*
X14463571Y-12420571D02*
X14473095Y-12458667D01*
X14473095Y-12458667D02*
X14473095Y-12506286D01*
X14473095Y-12506286D02*
X14463571Y-12544381D01*
X14463571Y-12544381D02*
X14454048Y-12563428D01*
X14454048Y-12563428D02*
X14444524Y-12572952D01*
X14444524Y-12572952D02*
X14425476Y-12582476D01*
X14425476Y-12582476D02*
X14406429Y-12582476D01*
X14406429Y-12582476D02*
X14387381Y-12572952D01*
X14387381Y-12572952D02*
X14377857Y-12563428D01*
X14377857Y-12563428D02*
X14368333Y-12544381D01*
X14368333Y-12544381D02*
X14358810Y-12506286D01*
X14358810Y-12506286D02*
X14358810Y-12458667D01*
X14358810Y-12458667D02*
X14368333Y-12420571D01*
X14368333Y-12420571D02*
X14377857Y-12401524D01*
X14377857Y-12401524D02*
X14387381Y-12392000D01*
X14387381Y-12392000D02*
X14406429Y-12382476D01*
X14654048Y-12382476D02*
X14558810Y-12382476D01*
X14558810Y-12382476D02*
X14549286Y-12477714D01*
X14549286Y-12477714D02*
X14558810Y-12468190D01*
X14558810Y-12468190D02*
X14577857Y-12458667D01*
X14577857Y-12458667D02*
X14625476Y-12458667D01*
X14625476Y-12458667D02*
X14644524Y-12468190D01*
X14644524Y-12468190D02*
X14654048Y-12477714D01*
X14654048Y-12477714D02*
X14663571Y-12496762D01*
X14663571Y-12496762D02*
X14663571Y-12544381D01*
X14663571Y-12544381D02*
X14654048Y-12563428D01*
X14654048Y-12563428D02*
X14644524Y-12572952D01*
X14644524Y-12572952D02*
X14625476Y-12582476D01*
X14625476Y-12582476D02*
X14577857Y-12582476D01*
X14577857Y-12582476D02*
X14558810Y-12572952D01*
X14558810Y-12572952D02*
X14549286Y-12563428D01*
X14844524Y-12382476D02*
X14749286Y-12382476D01*
X14749286Y-12382476D02*
X14739762Y-12477714D01*
X14739762Y-12477714D02*
X14749286Y-12468190D01*
X14749286Y-12468190D02*
X14768333Y-12458667D01*
X14768333Y-12458667D02*
X14815952Y-12458667D01*
X14815952Y-12458667D02*
X14835000Y-12468190D01*
X14835000Y-12468190D02*
X14844524Y-12477714D01*
X14844524Y-12477714D02*
X14854048Y-12496762D01*
X14854048Y-12496762D02*
X14854048Y-12544381D01*
X14854048Y-12544381D02*
X14844524Y-12563428D01*
X14844524Y-12563428D02*
X14835000Y-12572952D01*
X14835000Y-12572952D02*
X14815952Y-12582476D01*
X14815952Y-12582476D02*
X14768333Y-12582476D01*
X14768333Y-12582476D02*
X14749286Y-12572952D01*
X14749286Y-12572952D02*
X14739762Y-12563428D01*
X15044524Y-12582476D02*
X14930238Y-12582476D01*
X14987381Y-12582476D02*
X14987381Y-12382476D01*
X14987381Y-12382476D02*
X14968333Y-12411048D01*
X14968333Y-12411048D02*
X14949286Y-12430095D01*
X14949286Y-12430095D02*
X14930238Y-12439619D01*
X15120714Y-12382476D02*
X15120714Y-12420571D01*
X15196905Y-12382476D02*
X15196905Y-12420571D01*
X15459762Y-12658667D02*
X15450238Y-12649143D01*
X15450238Y-12649143D02*
X15431191Y-12620571D01*
X15431191Y-12620571D02*
X15421667Y-12601524D01*
X15421667Y-12601524D02*
X15412143Y-12572952D01*
X15412143Y-12572952D02*
X15402619Y-12525333D01*
X15402619Y-12525333D02*
X15402619Y-12487238D01*
X15402619Y-12487238D02*
X15412143Y-12439619D01*
X15412143Y-12439619D02*
X15421667Y-12411048D01*
X15421667Y-12411048D02*
X15431191Y-12392000D01*
X15431191Y-12392000D02*
X15450238Y-12363428D01*
X15450238Y-12363428D02*
X15459762Y-12353905D01*
X15640714Y-12582476D02*
X15526429Y-12582476D01*
X15583571Y-12582476D02*
X15583571Y-12382476D01*
X15583571Y-12382476D02*
X15564524Y-12411048D01*
X15564524Y-12411048D02*
X15545476Y-12430095D01*
X15545476Y-12430095D02*
X15526429Y-12439619D01*
X15764524Y-12382476D02*
X15783572Y-12382476D01*
X15783572Y-12382476D02*
X15802619Y-12392000D01*
X15802619Y-12392000D02*
X15812143Y-12401524D01*
X15812143Y-12401524D02*
X15821667Y-12420571D01*
X15821667Y-12420571D02*
X15831191Y-12458667D01*
X15831191Y-12458667D02*
X15831191Y-12506286D01*
X15831191Y-12506286D02*
X15821667Y-12544381D01*
X15821667Y-12544381D02*
X15812143Y-12563428D01*
X15812143Y-12563428D02*
X15802619Y-12572952D01*
X15802619Y-12572952D02*
X15783572Y-12582476D01*
X15783572Y-12582476D02*
X15764524Y-12582476D01*
X15764524Y-12582476D02*
X15745476Y-12572952D01*
X15745476Y-12572952D02*
X15735952Y-12563428D01*
X15735952Y-12563428D02*
X15726429Y-12544381D01*
X15726429Y-12544381D02*
X15716905Y-12506286D01*
X15716905Y-12506286D02*
X15716905Y-12458667D01*
X15716905Y-12458667D02*
X15726429Y-12420571D01*
X15726429Y-12420571D02*
X15735952Y-12401524D01*
X15735952Y-12401524D02*
X15745476Y-12392000D01*
X15745476Y-12392000D02*
X15764524Y-12382476D01*
X16036905Y-12582476D02*
X16036905Y-12382476D01*
X16122619Y-12582476D02*
X16122619Y-12477714D01*
X16122619Y-12477714D02*
X16113095Y-12458667D01*
X16113095Y-12458667D02*
X16094048Y-12449143D01*
X16094048Y-12449143D02*
X16065476Y-12449143D01*
X16065476Y-12449143D02*
X16046429Y-12458667D01*
X16046429Y-12458667D02*
X16036905Y-12468190D01*
X16246429Y-12582476D02*
X16227381Y-12572952D01*
X16227381Y-12572952D02*
X16217857Y-12563428D01*
X16217857Y-12563428D02*
X16208333Y-12544381D01*
X16208333Y-12544381D02*
X16208333Y-12487238D01*
X16208333Y-12487238D02*
X16217857Y-12468190D01*
X16217857Y-12468190D02*
X16227381Y-12458667D01*
X16227381Y-12458667D02*
X16246429Y-12449143D01*
X16246429Y-12449143D02*
X16275000Y-12449143D01*
X16275000Y-12449143D02*
X16294048Y-12458667D01*
X16294048Y-12458667D02*
X16303572Y-12468190D01*
X16303572Y-12468190D02*
X16313095Y-12487238D01*
X16313095Y-12487238D02*
X16313095Y-12544381D01*
X16313095Y-12544381D02*
X16303572Y-12563428D01*
X16303572Y-12563428D02*
X16294048Y-12572952D01*
X16294048Y-12572952D02*
X16275000Y-12582476D01*
X16275000Y-12582476D02*
X16246429Y-12582476D01*
X16427381Y-12582476D02*
X16408333Y-12572952D01*
X16408333Y-12572952D02*
X16398810Y-12553905D01*
X16398810Y-12553905D02*
X16398810Y-12382476D01*
X16579762Y-12572952D02*
X16560714Y-12582476D01*
X16560714Y-12582476D02*
X16522619Y-12582476D01*
X16522619Y-12582476D02*
X16503572Y-12572952D01*
X16503572Y-12572952D02*
X16494048Y-12553905D01*
X16494048Y-12553905D02*
X16494048Y-12477714D01*
X16494048Y-12477714D02*
X16503572Y-12458667D01*
X16503572Y-12458667D02*
X16522619Y-12449143D01*
X16522619Y-12449143D02*
X16560714Y-12449143D01*
X16560714Y-12449143D02*
X16579762Y-12458667D01*
X16579762Y-12458667D02*
X16589286Y-12477714D01*
X16589286Y-12477714D02*
X16589286Y-12496762D01*
X16589286Y-12496762D02*
X16494048Y-12515809D01*
X16665476Y-12572952D02*
X16684524Y-12582476D01*
X16684524Y-12582476D02*
X16722619Y-12582476D01*
X16722619Y-12582476D02*
X16741667Y-12572952D01*
X16741667Y-12572952D02*
X16751191Y-12553905D01*
X16751191Y-12553905D02*
X16751191Y-12544381D01*
X16751191Y-12544381D02*
X16741667Y-12525333D01*
X16741667Y-12525333D02*
X16722619Y-12515809D01*
X16722619Y-12515809D02*
X16694048Y-12515809D01*
X16694048Y-12515809D02*
X16675000Y-12506286D01*
X16675000Y-12506286D02*
X16665476Y-12487238D01*
X16665476Y-12487238D02*
X16665476Y-12477714D01*
X16665476Y-12477714D02*
X16675000Y-12458667D01*
X16675000Y-12458667D02*
X16694048Y-12449143D01*
X16694048Y-12449143D02*
X16722619Y-12449143D01*
X16722619Y-12449143D02*
X16741667Y-12458667D01*
X16817857Y-12658667D02*
X16827381Y-12649143D01*
X16827381Y-12649143D02*
X16846429Y-12620571D01*
X16846429Y-12620571D02*
X16855953Y-12601524D01*
X16855953Y-12601524D02*
X16865476Y-12572952D01*
X16865476Y-12572952D02*
X16875000Y-12525333D01*
X16875000Y-12525333D02*
X16875000Y-12487238D01*
X16875000Y-12487238D02*
X16865476Y-12439619D01*
X16865476Y-12439619D02*
X16855953Y-12411048D01*
X16855953Y-12411048D02*
X16846429Y-12392000D01*
X16846429Y-12392000D02*
X16827381Y-12363428D01*
X16827381Y-12363428D02*
X16817857Y-12353905D01*
M02*
