G04 #@! TF.GenerationSoftware,KiCad,Pcbnew,(7.0.0)*
G04 #@! TF.CreationDate,2023-05-21T08:53:19-04:00*
G04 #@! TF.ProjectId,Solenoid_Driver,536f6c65-6e6f-4696-945f-447269766572,V1.0*
G04 #@! TF.SameCoordinates,Original*
G04 #@! TF.FileFunction,Copper,L1,Top*
G04 #@! TF.FilePolarity,Positive*
%FSLAX46Y46*%
G04 Gerber Fmt 4.6, Leading zero omitted, Abs format (unit mm)*
G04 Created by KiCad (PCBNEW (7.0.0)) date 2023-05-21 08:53:19*
%MOMM*%
%LPD*%
G01*
G04 APERTURE LIST*
G04 Aperture macros list*
%AMRoundRect*
0 Rectangle with rounded corners*
0 $1 Rounding radius*
0 $2 $3 $4 $5 $6 $7 $8 $9 X,Y pos of 4 corners*
0 Add a 4 corners polygon primitive as box body*
4,1,4,$2,$3,$4,$5,$6,$7,$8,$9,$2,$3,0*
0 Add four circle primitives for the rounded corners*
1,1,$1+$1,$2,$3*
1,1,$1+$1,$4,$5*
1,1,$1+$1,$6,$7*
1,1,$1+$1,$8,$9*
0 Add four rect primitives between the rounded corners*
20,1,$1+$1,$2,$3,$4,$5,0*
20,1,$1+$1,$4,$5,$6,$7,0*
20,1,$1+$1,$6,$7,$8,$9,0*
20,1,$1+$1,$8,$9,$2,$3,0*%
G04 Aperture macros list end*
G04 #@! TA.AperFunction,SMDPad,CuDef*
%ADD10R,0.600000X0.900000*%
G04 #@! TD*
G04 #@! TA.AperFunction,SMDPad,CuDef*
%ADD11RoundRect,0.250000X-0.650000X0.412500X-0.650000X-0.412500X0.650000X-0.412500X0.650000X0.412500X0*%
G04 #@! TD*
G04 #@! TA.AperFunction,SMDPad,CuDef*
%ADD12RoundRect,0.237500X-0.250000X-0.237500X0.250000X-0.237500X0.250000X0.237500X-0.250000X0.237500X0*%
G04 #@! TD*
G04 #@! TA.AperFunction,ComponentPad*
%ADD13C,2.100000*%
G04 #@! TD*
G04 #@! TA.AperFunction,SMDPad,CuDef*
%ADD14R,1.780000X2.082800*%
G04 #@! TD*
G04 #@! TA.AperFunction,SMDPad,CuDef*
%ADD15R,0.950000X0.950000*%
G04 #@! TD*
G04 #@! TA.AperFunction,SMDPad,CuDef*
%ADD16RoundRect,0.237500X0.250000X0.237500X-0.250000X0.237500X-0.250000X-0.237500X0.250000X-0.237500X0*%
G04 #@! TD*
G04 #@! TA.AperFunction,SMDPad,CuDef*
%ADD17R,1.500000X0.650000*%
G04 #@! TD*
G04 #@! TA.AperFunction,SMDPad,CuDef*
%ADD18RoundRect,0.237500X-0.237500X0.250000X-0.237500X-0.250000X0.237500X-0.250000X0.237500X0.250000X0*%
G04 #@! TD*
G04 #@! TA.AperFunction,SMDPad,CuDef*
%ADD19RoundRect,0.237500X0.237500X-0.250000X0.237500X0.250000X-0.237500X0.250000X-0.237500X-0.250000X0*%
G04 #@! TD*
G04 #@! TA.AperFunction,ViaPad*
%ADD20C,0.800000*%
G04 #@! TD*
G04 #@! TA.AperFunction,Conductor*
%ADD21C,0.400000*%
G04 #@! TD*
G04 #@! TA.AperFunction,Conductor*
%ADD22C,0.250000*%
G04 #@! TD*
G04 APERTURE END LIST*
D10*
X155899999Y-77749999D03*
X155899999Y-75449999D03*
X155799999Y-96219999D03*
X155799999Y-98519999D03*
D11*
X151900000Y-81862500D03*
X151900000Y-78737500D03*
D12*
X151312500Y-109900000D03*
X149487500Y-109900000D03*
D13*
X128300000Y-83000000D03*
X128300000Y-78000000D03*
D14*
X137329999Y-69066099D03*
X139869999Y-69066099D03*
X139869999Y-78133899D03*
X137329999Y-78133899D03*
D13*
X164500000Y-85000000D03*
X164500000Y-90000000D03*
D15*
X153749999Y-109899999D03*
X155249999Y-109899999D03*
X151899999Y-88199999D03*
X151899999Y-86699999D03*
D16*
X147975000Y-75200000D03*
X149800000Y-75200000D03*
D17*
X155199999Y-100789999D03*
X155199999Y-102059999D03*
X155199999Y-103329999D03*
X155199999Y-104599999D03*
X149799999Y-104599999D03*
X149799999Y-103329999D03*
X149799999Y-102059999D03*
X149799999Y-100789999D03*
D18*
X137300000Y-81087500D03*
X137300000Y-82912500D03*
D13*
X128300000Y-98000000D03*
X128300000Y-93000000D03*
X164500000Y-99000000D03*
X164500000Y-104000000D03*
D16*
X147987500Y-106620000D03*
X149812500Y-106620000D03*
D12*
X149187500Y-65500000D03*
X151012500Y-65500000D03*
D15*
X155149999Y-65499999D03*
X153649999Y-65499999D03*
D19*
X137200000Y-103687500D03*
X137200000Y-105512500D03*
X154400000Y-88187500D03*
X154400000Y-90012500D03*
D11*
X150100000Y-97962500D03*
X150100000Y-94837500D03*
D14*
X139743185Y-98833899D03*
X137203185Y-98833899D03*
X137203185Y-89766099D03*
X139743185Y-89766099D03*
D16*
X139887500Y-65800000D03*
X141712500Y-65800000D03*
D12*
X137312500Y-65800000D03*
X135487500Y-65800000D03*
D13*
X164500000Y-71000000D03*
X164500000Y-76000000D03*
D17*
X155199999Y-69319999D03*
X155199999Y-70589999D03*
X155199999Y-71859999D03*
X155199999Y-73129999D03*
X149799999Y-73129999D03*
X149799999Y-71859999D03*
X149799999Y-70589999D03*
X149799999Y-69319999D03*
D16*
X137875000Y-87000000D03*
X139700000Y-87000000D03*
D19*
X139700000Y-102287500D03*
X139700000Y-104112500D03*
D20*
X158200000Y-73100000D03*
X158200000Y-71800000D03*
X158200000Y-70500000D03*
X158200000Y-69200000D03*
X157200000Y-69900000D03*
X157200000Y-71200000D03*
X157200000Y-72400000D03*
X145500000Y-64300000D03*
X143200000Y-65800000D03*
X152600000Y-74600000D03*
X158200000Y-79600000D03*
X170500000Y-91800000D03*
X170500000Y-95800000D03*
X170500000Y-77800000D03*
X170500000Y-99700000D03*
X158200000Y-77000000D03*
X170500000Y-93200000D03*
X141600000Y-109900000D03*
X134087500Y-65800000D03*
X170500000Y-76500000D03*
X170500000Y-75200000D03*
X170500000Y-89100000D03*
X170500000Y-98500000D03*
X170500000Y-94500000D03*
X170500000Y-79100000D03*
X158200000Y-78300000D03*
X141600000Y-105600000D03*
X170500000Y-90500000D03*
X170500000Y-97200000D03*
X170500000Y-84800000D03*
X151700000Y-101400000D03*
X151700000Y-68000000D03*
X151700000Y-102700000D03*
X158200000Y-86200000D03*
X151700000Y-69900000D03*
X147800000Y-69200000D03*
X151700000Y-71200000D03*
X170500000Y-82200000D03*
X147800000Y-100700000D03*
X158200000Y-83500000D03*
X158200000Y-84800000D03*
X147800000Y-71800000D03*
X147800000Y-102000000D03*
X170500000Y-86200000D03*
X147800000Y-103300000D03*
X147800000Y-70500000D03*
X158200000Y-82100000D03*
X151700000Y-99600000D03*
X170500000Y-83500000D03*
X157100000Y-104000000D03*
X158200000Y-102000000D03*
X157200000Y-101400000D03*
X157100000Y-105400000D03*
X157100000Y-102600000D03*
X158200000Y-103300000D03*
X158200000Y-104700000D03*
D21*
X137203186Y-91996814D02*
X137203186Y-89766100D01*
X128300000Y-98000000D02*
X131200000Y-98000000D01*
X131200000Y-98000000D02*
X137203186Y-91996814D01*
X152000000Y-75200000D02*
X149800000Y-75200000D01*
X152600000Y-74600000D02*
X152000000Y-75200000D01*
X146793750Y-64300000D02*
X147993750Y-65500000D01*
X147993750Y-65500000D02*
X149187500Y-65500000D01*
X145500000Y-64300000D02*
X146793750Y-64300000D01*
X139700000Y-105300000D02*
X139700000Y-104112500D01*
X140000000Y-105600000D02*
X139700000Y-105300000D01*
X141600000Y-105600000D02*
X140000000Y-105600000D01*
X128300000Y-92700000D02*
X128300000Y-93000000D01*
X134000000Y-87000000D02*
X128300000Y-92700000D01*
X137875000Y-87000000D02*
X134000000Y-87000000D01*
X129800000Y-74800000D02*
X128300000Y-76300000D01*
X128300000Y-76300000D02*
X128300000Y-78000000D01*
X138500000Y-74800000D02*
X129800000Y-74800000D01*
X139870000Y-76170000D02*
X138500000Y-74800000D01*
X139870000Y-78133900D02*
X139870000Y-76170000D01*
X153650000Y-65500000D02*
X151012500Y-65500000D01*
X151912500Y-88187500D02*
X151900000Y-88200000D01*
X154400000Y-88187500D02*
X151912500Y-88187500D01*
X136912500Y-83000000D02*
X128300000Y-83000000D01*
X137300000Y-82612500D02*
X136912500Y-83000000D01*
X137330000Y-80757500D02*
X137300000Y-80787500D01*
X137330000Y-78133900D02*
X137330000Y-80757500D01*
X143200000Y-65800000D02*
X141712500Y-65800000D01*
X149487500Y-109900000D02*
X141600000Y-109900000D01*
X139743186Y-102144314D02*
X139743186Y-98833900D01*
X139600000Y-102287500D02*
X139743186Y-102144314D01*
X149812500Y-104612500D02*
X149800000Y-104600000D01*
X149812500Y-106620000D02*
X149812500Y-104612500D01*
X149812500Y-107787500D02*
X149812500Y-106620000D01*
X149300000Y-108300000D02*
X149812500Y-107787500D01*
X137200000Y-106600000D02*
X138900000Y-108300000D01*
X138900000Y-108300000D02*
X149300000Y-108300000D01*
X137200000Y-105512500D02*
X137200000Y-106600000D01*
D22*
X137203186Y-103684314D02*
X137200000Y-103687500D01*
D21*
X137203186Y-98833900D02*
X137203186Y-103684314D01*
X139743186Y-87043186D02*
X139700000Y-87000000D01*
X139743186Y-89766100D02*
X139743186Y-87043186D01*
X155150000Y-69270000D02*
X155200000Y-69320000D01*
X155150000Y-65700000D02*
X155150000Y-69270000D01*
X137330000Y-65817500D02*
X137312500Y-65800000D01*
X137330000Y-69066100D02*
X137330000Y-65817500D01*
X149800000Y-75200000D02*
X149800000Y-73130000D01*
X139870000Y-69066100D02*
X139870000Y-65817500D01*
X139870000Y-65817500D02*
X139887500Y-65800000D01*
X153750000Y-109900000D02*
X151312500Y-109900000D01*
D22*
X155200000Y-109850000D02*
X155250000Y-109900000D01*
D21*
X155200000Y-104600000D02*
X155200000Y-109850000D01*
X134087500Y-65800000D02*
X135487500Y-65800000D01*
X137333900Y-65821400D02*
X137312500Y-65800000D01*
G04 #@! TA.AperFunction,Conductor*
G36*
X166996091Y-66909439D02*
G01*
X167036319Y-66936319D01*
X167563681Y-67463681D01*
X167590561Y-67503909D01*
X167600000Y-67551362D01*
X167600000Y-72641922D01*
X167588293Y-72694517D01*
X167555383Y-72737181D01*
X167034489Y-73171259D01*
X166997319Y-73192594D01*
X166955106Y-73200000D01*
X160300000Y-73200000D01*
X160292067Y-73205832D01*
X160292063Y-73205835D01*
X158328126Y-74649907D01*
X157175126Y-75497702D01*
X157144255Y-75520401D01*
X157109453Y-75538321D01*
X157070799Y-75544500D01*
X156904266Y-75544500D01*
X156902305Y-75544624D01*
X156902303Y-75544625D01*
X156812315Y-75550358D01*
X156812300Y-75550359D01*
X156808375Y-75550610D01*
X156804506Y-75551357D01*
X156804496Y-75551359D01*
X156715969Y-75568468D01*
X156715956Y-75568470D01*
X156714036Y-75568842D01*
X156712159Y-75569330D01*
X156712134Y-75569336D01*
X156656149Y-75583902D01*
X156656130Y-75583907D01*
X156653604Y-75584565D01*
X156651138Y-75585435D01*
X156651117Y-75585442D01*
X156537836Y-75625434D01*
X156537828Y-75625437D01*
X156532867Y-75627189D01*
X156528281Y-75629748D01*
X156528262Y-75629757D01*
X156520164Y-75634278D01*
X156459734Y-75650000D01*
X155340266Y-75650000D01*
X155279834Y-75634277D01*
X155271735Y-75629757D01*
X155267136Y-75627190D01*
X155262177Y-75625439D01*
X155262172Y-75625437D01*
X155148882Y-75585442D01*
X155148868Y-75585437D01*
X155146396Y-75584565D01*
X155143862Y-75583905D01*
X155143850Y-75583902D01*
X155087865Y-75569336D01*
X155087847Y-75569332D01*
X155085964Y-75568842D01*
X155084037Y-75568469D01*
X155084030Y-75568468D01*
X154995503Y-75551359D01*
X154995495Y-75551358D01*
X154991625Y-75550610D01*
X154987697Y-75550359D01*
X154987684Y-75550358D01*
X154897696Y-75544625D01*
X154897695Y-75544624D01*
X154895734Y-75544500D01*
X154893768Y-75544500D01*
X153595862Y-75544500D01*
X153548409Y-75535061D01*
X153508181Y-75508181D01*
X153497702Y-75497702D01*
X153467218Y-75447612D01*
X153463158Y-75389115D01*
X153486428Y-75335296D01*
X153563170Y-75233674D01*
X155100000Y-75233674D01*
X155103450Y-75246549D01*
X155116326Y-75250000D01*
X155683674Y-75250000D01*
X155696549Y-75246549D01*
X155700000Y-75233674D01*
X156100000Y-75233674D01*
X156103450Y-75246549D01*
X156116326Y-75250000D01*
X156683674Y-75250000D01*
X156696549Y-75246549D01*
X156700000Y-75233674D01*
X156700000Y-74955482D01*
X156699646Y-74948885D01*
X156694426Y-74900332D01*
X156690888Y-74885358D01*
X156646452Y-74766222D01*
X156638037Y-74750810D01*
X156562501Y-74649907D01*
X156550092Y-74637498D01*
X156449189Y-74561962D01*
X156433777Y-74553547D01*
X156314641Y-74509111D01*
X156299667Y-74505573D01*
X156251114Y-74500353D01*
X156244518Y-74500000D01*
X156116326Y-74500000D01*
X156103450Y-74503450D01*
X156100000Y-74516326D01*
X156100000Y-75233674D01*
X155700000Y-75233674D01*
X155700000Y-74516326D01*
X155696549Y-74503450D01*
X155683674Y-74500000D01*
X155555482Y-74500000D01*
X155548885Y-74500353D01*
X155500332Y-74505573D01*
X155485358Y-74509111D01*
X155366222Y-74553547D01*
X155350810Y-74561962D01*
X155249907Y-74637498D01*
X155237498Y-74649907D01*
X155161962Y-74750810D01*
X155153547Y-74766222D01*
X155109111Y-74885358D01*
X155105573Y-74900332D01*
X155100353Y-74948885D01*
X155100000Y-74955482D01*
X155100000Y-75233674D01*
X153563170Y-75233674D01*
X153582366Y-75208255D01*
X153677405Y-75017389D01*
X153735756Y-74812310D01*
X153755429Y-74600000D01*
X153735756Y-74387690D01*
X153719188Y-74329462D01*
X153678975Y-74188129D01*
X153677405Y-74182611D01*
X153582366Y-73991745D01*
X153453872Y-73821593D01*
X153449383Y-73817501D01*
X153340461Y-73718204D01*
X153310565Y-73676653D01*
X153300000Y-73626567D01*
X153300000Y-73499518D01*
X153950000Y-73499518D01*
X153950353Y-73506114D01*
X153955573Y-73554667D01*
X153959111Y-73569641D01*
X154003547Y-73688777D01*
X154011962Y-73704189D01*
X154087498Y-73805092D01*
X154099907Y-73817501D01*
X154200810Y-73893037D01*
X154216222Y-73901452D01*
X154335358Y-73945888D01*
X154350332Y-73949426D01*
X154398885Y-73954646D01*
X154405482Y-73955000D01*
X154983674Y-73955000D01*
X154996549Y-73951549D01*
X155000000Y-73938674D01*
X155400000Y-73938674D01*
X155403450Y-73951549D01*
X155416326Y-73955000D01*
X155994518Y-73955000D01*
X156001114Y-73954646D01*
X156049667Y-73949426D01*
X156064641Y-73945888D01*
X156183777Y-73901452D01*
X156199189Y-73893037D01*
X156300092Y-73817501D01*
X156312501Y-73805092D01*
X156388037Y-73704189D01*
X156396452Y-73688777D01*
X156440888Y-73569641D01*
X156444426Y-73554667D01*
X156449646Y-73506114D01*
X156450000Y-73499518D01*
X156450000Y-73346326D01*
X156446549Y-73333450D01*
X156433674Y-73330000D01*
X155416326Y-73330000D01*
X155403450Y-73333450D01*
X155400000Y-73346326D01*
X155400000Y-73938674D01*
X155000000Y-73938674D01*
X155000000Y-73346326D01*
X154996549Y-73333450D01*
X154983674Y-73330000D01*
X153966326Y-73330000D01*
X153953450Y-73333450D01*
X153950000Y-73346326D01*
X153950000Y-73499518D01*
X153300000Y-73499518D01*
X153300000Y-72913674D01*
X153950000Y-72913674D01*
X153953450Y-72926549D01*
X153966326Y-72930000D01*
X154983674Y-72930000D01*
X154996549Y-72926549D01*
X155000000Y-72913674D01*
X155400000Y-72913674D01*
X155403450Y-72926549D01*
X155416326Y-72930000D01*
X156433674Y-72930000D01*
X156446549Y-72926549D01*
X156450000Y-72913674D01*
X156450000Y-72760482D01*
X156449646Y-72753885D01*
X156444426Y-72705332D01*
X156440888Y-72690358D01*
X156396451Y-72571218D01*
X156387283Y-72554428D01*
X156372114Y-72495000D01*
X156387283Y-72435572D01*
X156396451Y-72418781D01*
X156440888Y-72299641D01*
X156444426Y-72284667D01*
X156449646Y-72236114D01*
X156450000Y-72229518D01*
X156450000Y-72229480D01*
X163558602Y-72229480D01*
X163566188Y-72240833D01*
X163582407Y-72254686D01*
X163590275Y-72260402D01*
X163789980Y-72382782D01*
X163798643Y-72387196D01*
X164015042Y-72476831D01*
X164024279Y-72479833D01*
X164252043Y-72534514D01*
X164261628Y-72536032D01*
X164495146Y-72554411D01*
X164504854Y-72554411D01*
X164738371Y-72536032D01*
X164747956Y-72534514D01*
X164975720Y-72479833D01*
X164984957Y-72476831D01*
X165201356Y-72387196D01*
X165210019Y-72382782D01*
X165409726Y-72260401D01*
X165417591Y-72254687D01*
X165433811Y-72240833D01*
X165441396Y-72229481D01*
X165434723Y-72217566D01*
X164511542Y-71294385D01*
X164500000Y-71287721D01*
X164488457Y-71294385D01*
X163565275Y-72217566D01*
X163558602Y-72229480D01*
X156450000Y-72229480D01*
X156450000Y-72076326D01*
X156446549Y-72063450D01*
X156433674Y-72060000D01*
X155416326Y-72060000D01*
X155403450Y-72063450D01*
X155400000Y-72076326D01*
X155400000Y-72913674D01*
X155000000Y-72913674D01*
X155000000Y-72076326D01*
X154996549Y-72063450D01*
X154983674Y-72060000D01*
X153966326Y-72060000D01*
X153953450Y-72063450D01*
X153950000Y-72076326D01*
X153950000Y-72229518D01*
X153950353Y-72236114D01*
X153955573Y-72284667D01*
X153959111Y-72299641D01*
X154003547Y-72418780D01*
X154012717Y-72435572D01*
X154027885Y-72494997D01*
X154012719Y-72554422D01*
X154003549Y-72571216D01*
X153959111Y-72690358D01*
X153955573Y-72705332D01*
X153950353Y-72753885D01*
X153950000Y-72760482D01*
X153950000Y-72913674D01*
X153300000Y-72913674D01*
X153300000Y-71643674D01*
X153950000Y-71643674D01*
X153953450Y-71656549D01*
X153966326Y-71660000D01*
X154983674Y-71660000D01*
X154996549Y-71656549D01*
X155000000Y-71643674D01*
X155400000Y-71643674D01*
X155403450Y-71656549D01*
X155416326Y-71660000D01*
X156433674Y-71660000D01*
X156446549Y-71656549D01*
X156450000Y-71643674D01*
X156450000Y-71490482D01*
X156449646Y-71483885D01*
X156444426Y-71435332D01*
X156440888Y-71420358D01*
X156396451Y-71301218D01*
X156387283Y-71284428D01*
X156372114Y-71225000D01*
X156387283Y-71165572D01*
X156396451Y-71148781D01*
X156440888Y-71029641D01*
X156444426Y-71014667D01*
X156445481Y-71004854D01*
X162945589Y-71004854D01*
X162963967Y-71238371D01*
X162965485Y-71247956D01*
X163020166Y-71475720D01*
X163023168Y-71484957D01*
X163112803Y-71701356D01*
X163117217Y-71710019D01*
X163239597Y-71909724D01*
X163245313Y-71917593D01*
X163259165Y-71933811D01*
X163270518Y-71941396D01*
X163282432Y-71934723D01*
X164205614Y-71011542D01*
X164212278Y-71000000D01*
X164787721Y-71000000D01*
X164794385Y-71011542D01*
X165717566Y-71934723D01*
X165729481Y-71941396D01*
X165740833Y-71933811D01*
X165754687Y-71917591D01*
X165760401Y-71909726D01*
X165882782Y-71710019D01*
X165887196Y-71701356D01*
X165976831Y-71484957D01*
X165979833Y-71475720D01*
X166034514Y-71247956D01*
X166036032Y-71238371D01*
X166054411Y-71004854D01*
X166054411Y-70995146D01*
X166036032Y-70761628D01*
X166034514Y-70752043D01*
X165979833Y-70524279D01*
X165976831Y-70515042D01*
X165887196Y-70298643D01*
X165882782Y-70289980D01*
X165760402Y-70090275D01*
X165754686Y-70082407D01*
X165740833Y-70066188D01*
X165729480Y-70058602D01*
X165717566Y-70065275D01*
X164794385Y-70988457D01*
X164787721Y-71000000D01*
X164212278Y-71000000D01*
X164205614Y-70988457D01*
X163282432Y-70065275D01*
X163270518Y-70058603D01*
X163259165Y-70066188D01*
X163245310Y-70082410D01*
X163239598Y-70090272D01*
X163117217Y-70289980D01*
X163112803Y-70298643D01*
X163023168Y-70515042D01*
X163020166Y-70524279D01*
X162965485Y-70752043D01*
X162963967Y-70761628D01*
X162945589Y-70995146D01*
X162945589Y-71004854D01*
X156445481Y-71004854D01*
X156449646Y-70966114D01*
X156450000Y-70959518D01*
X156450000Y-70806326D01*
X156446549Y-70793450D01*
X156433674Y-70790000D01*
X155416326Y-70790000D01*
X155403450Y-70793450D01*
X155400000Y-70806326D01*
X155400000Y-71643674D01*
X155000000Y-71643674D01*
X155000000Y-70806326D01*
X154996549Y-70793450D01*
X154983674Y-70790000D01*
X153966326Y-70790000D01*
X153953450Y-70793450D01*
X153950000Y-70806326D01*
X153950000Y-70959518D01*
X153950353Y-70966114D01*
X153955573Y-71014667D01*
X153959111Y-71029641D01*
X154003547Y-71148780D01*
X154012717Y-71165572D01*
X154027885Y-71224997D01*
X154012719Y-71284422D01*
X154003549Y-71301216D01*
X153959111Y-71420358D01*
X153955573Y-71435332D01*
X153950353Y-71483885D01*
X153950000Y-71490482D01*
X153950000Y-71643674D01*
X153300000Y-71643674D01*
X153300000Y-70373674D01*
X153950000Y-70373674D01*
X153953450Y-70386549D01*
X153966326Y-70390000D01*
X154983674Y-70390000D01*
X154996549Y-70386549D01*
X155000000Y-70373674D01*
X155400000Y-70373674D01*
X155403450Y-70386549D01*
X155416326Y-70390000D01*
X156433674Y-70390000D01*
X156446549Y-70386549D01*
X156450000Y-70373674D01*
X156450000Y-70220482D01*
X156449646Y-70213885D01*
X156444426Y-70165332D01*
X156440888Y-70150358D01*
X156396451Y-70031218D01*
X156387283Y-70014428D01*
X156372114Y-69955000D01*
X156387283Y-69895572D01*
X156396451Y-69878781D01*
X156436831Y-69770518D01*
X163558603Y-69770518D01*
X163565275Y-69782432D01*
X164488457Y-70705614D01*
X164500000Y-70712278D01*
X164511542Y-70705614D01*
X165434723Y-69782432D01*
X165441396Y-69770518D01*
X165433811Y-69759165D01*
X165417593Y-69745313D01*
X165409724Y-69739597D01*
X165210019Y-69617217D01*
X165201356Y-69612803D01*
X164984957Y-69523168D01*
X164975720Y-69520166D01*
X164747956Y-69465485D01*
X164738371Y-69463967D01*
X164504854Y-69445589D01*
X164495146Y-69445589D01*
X164261628Y-69463967D01*
X164252043Y-69465485D01*
X164024279Y-69520166D01*
X164015042Y-69523168D01*
X163798643Y-69612803D01*
X163789980Y-69617217D01*
X163590272Y-69739598D01*
X163582410Y-69745310D01*
X163566188Y-69759165D01*
X163558603Y-69770518D01*
X156436831Y-69770518D01*
X156440888Y-69759641D01*
X156444426Y-69744667D01*
X156449646Y-69696114D01*
X156450000Y-69689518D01*
X156450000Y-69536326D01*
X156446549Y-69523450D01*
X156433674Y-69520000D01*
X155416326Y-69520000D01*
X155403450Y-69523450D01*
X155400000Y-69536326D01*
X155400000Y-70373674D01*
X155000000Y-70373674D01*
X155000000Y-69536326D01*
X154996549Y-69523450D01*
X154983674Y-69520000D01*
X153966326Y-69520000D01*
X153953450Y-69523450D01*
X153950000Y-69536326D01*
X153950000Y-69689518D01*
X153950353Y-69696114D01*
X153955573Y-69744667D01*
X153959111Y-69759641D01*
X154003548Y-69878781D01*
X154012718Y-69895575D01*
X154027885Y-69955000D01*
X154012718Y-70014425D01*
X154003548Y-70031218D01*
X153959111Y-70150358D01*
X153955573Y-70165332D01*
X153950353Y-70213885D01*
X153950000Y-70220482D01*
X153950000Y-70373674D01*
X153300000Y-70373674D01*
X153300000Y-69103674D01*
X153950000Y-69103674D01*
X153953450Y-69116549D01*
X153966326Y-69120000D01*
X154983674Y-69120000D01*
X154996549Y-69116549D01*
X155000000Y-69103674D01*
X155400000Y-69103674D01*
X155403450Y-69116549D01*
X155416326Y-69120000D01*
X156433674Y-69120000D01*
X156446549Y-69116549D01*
X156450000Y-69103674D01*
X156450000Y-68950482D01*
X156449646Y-68943885D01*
X156444426Y-68895332D01*
X156440888Y-68880358D01*
X156396452Y-68761222D01*
X156388037Y-68745810D01*
X156312501Y-68644907D01*
X156300092Y-68632498D01*
X156199189Y-68556962D01*
X156183777Y-68548547D01*
X156064641Y-68504111D01*
X156049667Y-68500573D01*
X156001114Y-68495353D01*
X155994518Y-68495000D01*
X155416326Y-68495000D01*
X155403450Y-68498450D01*
X155400000Y-68511326D01*
X155400000Y-69103674D01*
X155000000Y-69103674D01*
X155000000Y-68511326D01*
X154996549Y-68498450D01*
X154983674Y-68495000D01*
X154405482Y-68495000D01*
X154398885Y-68495353D01*
X154350332Y-68500573D01*
X154335358Y-68504111D01*
X154216222Y-68548547D01*
X154200810Y-68556962D01*
X154099907Y-68632498D01*
X154087498Y-68644907D01*
X154011962Y-68745810D01*
X154003547Y-68761222D01*
X153959111Y-68880358D01*
X153955573Y-68895332D01*
X153950353Y-68943885D01*
X153950000Y-68950482D01*
X153950000Y-69103674D01*
X153300000Y-69103674D01*
X153300000Y-67551362D01*
X153309439Y-67503909D01*
X153336319Y-67463681D01*
X153863681Y-66936319D01*
X153903909Y-66909439D01*
X153951362Y-66900000D01*
X166948638Y-66900000D01*
X166996091Y-66909439D01*
G37*
G04 #@! TD.AperFunction*
G04 #@! TA.AperFunction,Conductor*
G36*
X151897319Y-66907406D02*
G01*
X151934489Y-66928741D01*
X152455383Y-67362819D01*
X152488293Y-67405483D01*
X152500000Y-67458078D01*
X152500000Y-71733637D01*
X152485328Y-71792147D01*
X152444783Y-71836811D01*
X151931239Y-72179174D01*
X151898389Y-72194679D01*
X151862456Y-72200000D01*
X151174000Y-72200000D01*
X151112000Y-72183387D01*
X151066613Y-72138000D01*
X151054306Y-72092072D01*
X151054225Y-72092094D01*
X151046549Y-72063450D01*
X151033674Y-72060000D01*
X150660164Y-72060000D01*
X150647562Y-72059358D01*
X150603141Y-72054819D01*
X150603122Y-72054818D01*
X150600009Y-72054500D01*
X150596861Y-72054500D01*
X149003140Y-72054500D01*
X149003120Y-72054500D01*
X148999992Y-72054501D01*
X148996860Y-72054820D01*
X148996858Y-72054821D01*
X148952445Y-72059358D01*
X148939844Y-72060000D01*
X148566326Y-72060000D01*
X148553450Y-72063450D01*
X148550000Y-72076326D01*
X148550000Y-72192268D01*
X148540561Y-72239720D01*
X148513682Y-72279948D01*
X148462395Y-72331234D01*
X148462383Y-72331248D01*
X148457288Y-72336344D01*
X148453500Y-72342484D01*
X148453497Y-72342489D01*
X148368977Y-72479519D01*
X148365186Y-72485666D01*
X148310001Y-72652203D01*
X148309313Y-72658933D01*
X148309312Y-72658940D01*
X148299819Y-72751859D01*
X148299818Y-72751877D01*
X148299500Y-72754991D01*
X148299500Y-72758138D01*
X148299500Y-72758139D01*
X148299500Y-73501858D01*
X148299500Y-73501877D01*
X148299501Y-73505008D01*
X148299820Y-73508140D01*
X148299821Y-73508141D01*
X148309312Y-73601061D01*
X148309313Y-73601069D01*
X148310001Y-73607797D01*
X148312129Y-73614219D01*
X148312130Y-73614223D01*
X148362914Y-73767478D01*
X148365186Y-73774334D01*
X148368977Y-73780480D01*
X148453497Y-73917511D01*
X148453500Y-73917515D01*
X148457288Y-73923656D01*
X148581344Y-74047712D01*
X148587495Y-74051506D01*
X148589219Y-74052869D01*
X148629078Y-74108404D01*
X148633451Y-74176622D01*
X148601009Y-74236792D01*
X148541611Y-74270627D01*
X148473310Y-74267844D01*
X148381578Y-74237448D01*
X148368419Y-74234631D01*
X148277276Y-74225319D01*
X148271000Y-74225000D01*
X148191326Y-74225000D01*
X148178450Y-74228450D01*
X148175000Y-74241326D01*
X148175000Y-76158673D01*
X148178450Y-76171548D01*
X148191326Y-76174999D01*
X148270997Y-76174999D01*
X148277279Y-76174678D01*
X148368412Y-76165369D01*
X148381581Y-76162550D01*
X148531944Y-76112725D01*
X148544952Y-76106659D01*
X148610903Y-76065981D01*
X148673295Y-76047549D01*
X148736432Y-76063241D01*
X148782933Y-76108740D01*
X148800000Y-76171519D01*
X148800000Y-80200000D01*
X149700000Y-81100000D01*
X150404154Y-81100000D01*
X150460610Y-81113597D01*
X150504684Y-81151407D01*
X150526711Y-81205137D01*
X150521860Y-81263004D01*
X150512624Y-81290874D01*
X150509805Y-81304041D01*
X150500319Y-81396890D01*
X150500000Y-81403168D01*
X150500000Y-81646174D01*
X150503450Y-81659049D01*
X150516326Y-81662500D01*
X153283673Y-81662500D01*
X153296548Y-81659049D01*
X153299999Y-81646174D01*
X153299999Y-81403171D01*
X153299678Y-81396888D01*
X153290194Y-81304040D01*
X153287376Y-81290877D01*
X153278140Y-81263004D01*
X153273289Y-81205137D01*
X153295316Y-81151407D01*
X153339390Y-81113597D01*
X153395846Y-81100000D01*
X172552855Y-81100000D01*
X172596922Y-81108095D01*
X172635236Y-81131321D01*
X172814733Y-81290874D01*
X173232812Y-81662500D01*
X173458381Y-81863005D01*
X173489118Y-81904887D01*
X173500000Y-81955684D01*
X173500000Y-86331930D01*
X173484699Y-86391600D01*
X173442573Y-86436544D01*
X172430464Y-87080614D01*
X172363891Y-87100000D01*
X155198549Y-87100000D01*
X155141138Y-87085908D01*
X155005888Y-87015259D01*
X154999844Y-87013529D01*
X154999840Y-87013528D01*
X154818364Y-86961602D01*
X154818363Y-86961601D01*
X154812702Y-86959982D01*
X154806836Y-86959460D01*
X154806834Y-86959460D01*
X154697536Y-86949742D01*
X154697519Y-86949741D01*
X154694806Y-86949500D01*
X154105194Y-86949500D01*
X154102481Y-86949741D01*
X154102463Y-86949742D01*
X153993165Y-86959460D01*
X153993161Y-86959460D01*
X153987298Y-86959982D01*
X153981638Y-86961601D01*
X153981635Y-86961602D01*
X153800159Y-87013528D01*
X153800152Y-87013530D01*
X153794112Y-87015259D01*
X153658861Y-87085908D01*
X153601451Y-87100000D01*
X152999000Y-87100000D01*
X152937000Y-87083387D01*
X152891613Y-87038000D01*
X152875000Y-86976000D01*
X152875000Y-86916326D01*
X152871549Y-86903450D01*
X152858674Y-86900000D01*
X150941326Y-86900000D01*
X150928450Y-86903450D01*
X150925000Y-86916326D01*
X150925000Y-87112270D01*
X150915561Y-87159723D01*
X150888681Y-87199951D01*
X150837393Y-87251238D01*
X150837389Y-87251242D01*
X150832288Y-87256344D01*
X150828503Y-87262480D01*
X150828497Y-87262488D01*
X150743976Y-87399520D01*
X150743973Y-87399525D01*
X150740186Y-87405666D01*
X150737917Y-87412513D01*
X150737912Y-87412524D01*
X150717957Y-87472742D01*
X150688913Y-87520427D01*
X146708414Y-91591394D01*
X146708412Y-91591396D01*
X146700000Y-91600000D01*
X146700000Y-96400000D01*
X146704798Y-96407463D01*
X147591578Y-97786900D01*
X147591579Y-97786901D01*
X147600000Y-97800000D01*
X151848638Y-97800000D01*
X151896091Y-97809439D01*
X151936319Y-97836319D01*
X152363681Y-98263681D01*
X152390561Y-98303909D01*
X152400000Y-98351362D01*
X152400000Y-103041922D01*
X152388293Y-103094517D01*
X152355383Y-103137181D01*
X151834489Y-103571259D01*
X151797319Y-103592594D01*
X151755106Y-103600000D01*
X151159531Y-103600000D01*
X151107128Y-103588383D01*
X151064544Y-103555709D01*
X151058907Y-103544882D01*
X151047813Y-103533788D01*
X151033674Y-103530000D01*
X150660164Y-103530000D01*
X150647562Y-103529358D01*
X150603141Y-103524819D01*
X150603122Y-103524818D01*
X150600009Y-103524500D01*
X150596861Y-103524500D01*
X149003140Y-103524500D01*
X149003120Y-103524500D01*
X148999992Y-103524501D01*
X148996860Y-103524820D01*
X148996858Y-103524821D01*
X148952445Y-103529358D01*
X148939844Y-103530000D01*
X148566326Y-103530000D01*
X148553450Y-103533450D01*
X148550000Y-103546326D01*
X148550000Y-103662268D01*
X148540561Y-103709720D01*
X148513682Y-103749948D01*
X148462395Y-103801234D01*
X148462383Y-103801248D01*
X148457288Y-103806344D01*
X148453500Y-103812484D01*
X148453497Y-103812489D01*
X148394429Y-103908255D01*
X148365186Y-103955666D01*
X148362915Y-103962517D01*
X148362914Y-103962521D01*
X148312131Y-104115774D01*
X148310001Y-104122203D01*
X148309313Y-104128933D01*
X148309312Y-104128940D01*
X148299819Y-104221859D01*
X148299818Y-104221877D01*
X148299500Y-104224991D01*
X148299500Y-104228138D01*
X148299500Y-104228139D01*
X148299500Y-104971858D01*
X148299500Y-104971877D01*
X148299501Y-104975008D01*
X148299820Y-104978140D01*
X148299821Y-104978141D01*
X148309312Y-105071061D01*
X148309313Y-105071069D01*
X148310001Y-105077797D01*
X148312129Y-105084219D01*
X148312130Y-105084223D01*
X148362914Y-105237478D01*
X148365186Y-105244334D01*
X148368977Y-105250480D01*
X148453497Y-105387511D01*
X148453500Y-105387515D01*
X148457288Y-105393656D01*
X148462393Y-105398760D01*
X148462393Y-105398761D01*
X148513353Y-105449721D01*
X148545114Y-105504090D01*
X148546076Y-105567049D01*
X148515991Y-105622364D01*
X148462617Y-105655770D01*
X148399716Y-105658655D01*
X148380918Y-105654631D01*
X148289776Y-105645319D01*
X148283500Y-105645000D01*
X148203826Y-105645000D01*
X148190950Y-105648450D01*
X148187500Y-105661326D01*
X148187500Y-106696000D01*
X148170887Y-106758000D01*
X148125500Y-106803387D01*
X148063500Y-106820000D01*
X147016327Y-106820000D01*
X147003451Y-106823450D01*
X147000001Y-106836326D01*
X147000001Y-106876000D01*
X146983388Y-106938000D01*
X146938001Y-106983387D01*
X146876001Y-107000000D01*
X144446885Y-107000000D01*
X144403030Y-106991986D01*
X144364844Y-106968980D01*
X143724164Y-106403674D01*
X147000000Y-106403674D01*
X147003450Y-106416549D01*
X147016326Y-106420000D01*
X147771174Y-106420000D01*
X147784049Y-106416549D01*
X147787500Y-106403674D01*
X147787500Y-105661327D01*
X147784049Y-105648451D01*
X147771174Y-105645001D01*
X147691503Y-105645001D01*
X147685220Y-105645321D01*
X147594087Y-105654630D01*
X147580918Y-105657449D01*
X147430555Y-105707274D01*
X147417547Y-105713340D01*
X147283113Y-105796260D01*
X147271851Y-105805165D01*
X147160165Y-105916851D01*
X147151260Y-105928113D01*
X147068340Y-106062547D01*
X147062274Y-106075555D01*
X147012447Y-106225924D01*
X147009631Y-106239080D01*
X147000319Y-106330223D01*
X147000000Y-106336500D01*
X147000000Y-106403674D01*
X143724164Y-106403674D01*
X142787163Y-105576908D01*
X142758655Y-105540097D01*
X142745733Y-105495371D01*
X142735756Y-105387690D01*
X142704733Y-105278660D01*
X142700000Y-105244726D01*
X142700000Y-103113674D01*
X148550000Y-103113674D01*
X148553450Y-103126549D01*
X148566326Y-103130000D01*
X149583674Y-103130000D01*
X149596549Y-103126549D01*
X149600000Y-103113674D01*
X150000000Y-103113674D01*
X150003450Y-103126549D01*
X150016326Y-103130000D01*
X151033674Y-103130000D01*
X151046549Y-103126549D01*
X151050000Y-103113674D01*
X151050000Y-102960482D01*
X151049646Y-102953885D01*
X151044426Y-102905332D01*
X151040888Y-102890358D01*
X150996451Y-102771218D01*
X150987283Y-102754428D01*
X150972114Y-102695000D01*
X150987283Y-102635572D01*
X150996451Y-102618781D01*
X151040888Y-102499641D01*
X151044426Y-102484667D01*
X151049646Y-102436114D01*
X151050000Y-102429518D01*
X151050000Y-102276326D01*
X151046549Y-102263450D01*
X151033674Y-102260000D01*
X150016326Y-102260000D01*
X150003450Y-102263450D01*
X150000000Y-102276326D01*
X150000000Y-103113674D01*
X149600000Y-103113674D01*
X149600000Y-102276326D01*
X149596549Y-102263450D01*
X149583674Y-102260000D01*
X148566326Y-102260000D01*
X148553450Y-102263450D01*
X148550000Y-102276326D01*
X148550000Y-102429518D01*
X148550353Y-102436114D01*
X148555573Y-102484667D01*
X148559111Y-102499641D01*
X148603548Y-102618781D01*
X148612718Y-102635575D01*
X148627885Y-102695000D01*
X148612718Y-102754425D01*
X148603548Y-102771218D01*
X148559111Y-102890358D01*
X148555573Y-102905332D01*
X148550353Y-102953885D01*
X148550000Y-102960482D01*
X148550000Y-103113674D01*
X142700000Y-103113674D01*
X142700000Y-101843674D01*
X148550000Y-101843674D01*
X148553450Y-101856549D01*
X148566326Y-101860000D01*
X149583674Y-101860000D01*
X149596549Y-101856549D01*
X149600000Y-101843674D01*
X150000000Y-101843674D01*
X150003450Y-101856549D01*
X150016326Y-101860000D01*
X151033674Y-101860000D01*
X151046549Y-101856549D01*
X151050000Y-101843674D01*
X151050000Y-101690482D01*
X151049646Y-101683885D01*
X151044426Y-101635332D01*
X151040888Y-101620358D01*
X150996450Y-101501216D01*
X150987282Y-101484425D01*
X150972114Y-101424997D01*
X150987284Y-101365569D01*
X150996451Y-101348780D01*
X151040888Y-101229641D01*
X151044426Y-101214667D01*
X151049646Y-101166114D01*
X151050000Y-101159518D01*
X151050000Y-101006326D01*
X151046549Y-100993450D01*
X151033674Y-100990000D01*
X150016326Y-100990000D01*
X150003450Y-100993450D01*
X150000000Y-101006326D01*
X150000000Y-101843674D01*
X149600000Y-101843674D01*
X149600000Y-101006326D01*
X149596549Y-100993450D01*
X149583674Y-100990000D01*
X148566326Y-100990000D01*
X148553450Y-100993450D01*
X148550000Y-101006326D01*
X148550000Y-101159518D01*
X148550353Y-101166114D01*
X148555573Y-101214667D01*
X148559111Y-101229641D01*
X148603548Y-101348781D01*
X148612718Y-101365575D01*
X148627885Y-101425000D01*
X148612718Y-101484425D01*
X148603548Y-101501218D01*
X148559111Y-101620358D01*
X148555573Y-101635332D01*
X148550353Y-101683885D01*
X148550000Y-101690482D01*
X148550000Y-101843674D01*
X142700000Y-101843674D01*
X142700000Y-100573674D01*
X148550000Y-100573674D01*
X148553450Y-100586549D01*
X148566326Y-100590000D01*
X149583674Y-100590000D01*
X149596549Y-100586549D01*
X149600000Y-100573674D01*
X150000000Y-100573674D01*
X150003450Y-100586549D01*
X150016326Y-100590000D01*
X151033674Y-100590000D01*
X151046549Y-100586549D01*
X151050000Y-100573674D01*
X151050000Y-100420482D01*
X151049646Y-100413885D01*
X151044426Y-100365332D01*
X151040888Y-100350358D01*
X150996452Y-100231222D01*
X150988037Y-100215810D01*
X150912501Y-100114907D01*
X150900092Y-100102498D01*
X150799189Y-100026962D01*
X150783777Y-100018547D01*
X150664641Y-99974111D01*
X150649667Y-99970573D01*
X150601114Y-99965353D01*
X150594518Y-99965000D01*
X150016326Y-99965000D01*
X150003450Y-99968450D01*
X150000000Y-99981326D01*
X150000000Y-100573674D01*
X149600000Y-100573674D01*
X149600000Y-99981326D01*
X149596549Y-99968450D01*
X149583674Y-99965000D01*
X149005482Y-99965000D01*
X148998885Y-99965353D01*
X148950332Y-99970573D01*
X148935358Y-99974111D01*
X148816222Y-100018547D01*
X148800810Y-100026962D01*
X148699907Y-100102498D01*
X148687498Y-100114907D01*
X148611962Y-100215810D01*
X148603547Y-100231222D01*
X148559111Y-100350358D01*
X148555573Y-100365332D01*
X148550353Y-100413885D01*
X148550000Y-100420482D01*
X148550000Y-100573674D01*
X142700000Y-100573674D01*
X142700000Y-98421829D01*
X148700001Y-98421829D01*
X148700321Y-98428111D01*
X148709805Y-98520959D01*
X148712623Y-98534122D01*
X148763370Y-98687267D01*
X148769432Y-98700266D01*
X148853890Y-98837194D01*
X148862794Y-98848455D01*
X148976544Y-98962205D01*
X148987805Y-98971109D01*
X149124733Y-99055567D01*
X149137732Y-99061629D01*
X149290874Y-99112375D01*
X149304041Y-99115194D01*
X149396890Y-99124680D01*
X149403168Y-99125000D01*
X149883674Y-99125000D01*
X149896549Y-99121549D01*
X149900000Y-99108674D01*
X149900000Y-99108673D01*
X150300000Y-99108673D01*
X150303450Y-99121548D01*
X150316326Y-99124999D01*
X150796829Y-99124999D01*
X150803111Y-99124678D01*
X150895959Y-99115194D01*
X150909122Y-99112376D01*
X151062267Y-99061629D01*
X151075266Y-99055567D01*
X151212194Y-98971109D01*
X151223455Y-98962205D01*
X151337205Y-98848455D01*
X151346109Y-98837194D01*
X151430567Y-98700266D01*
X151436629Y-98687267D01*
X151487375Y-98534125D01*
X151490194Y-98520958D01*
X151499680Y-98428109D01*
X151500000Y-98421832D01*
X151500000Y-98178826D01*
X151496549Y-98165950D01*
X151483674Y-98162500D01*
X150316326Y-98162500D01*
X150303450Y-98165950D01*
X150300000Y-98178826D01*
X150300000Y-99108673D01*
X149900000Y-99108673D01*
X149900000Y-98178826D01*
X149896549Y-98165950D01*
X149883674Y-98162500D01*
X148716327Y-98162500D01*
X148703451Y-98165950D01*
X148700001Y-98178826D01*
X148700001Y-98421829D01*
X142700000Y-98421829D01*
X142700000Y-86483674D01*
X150925000Y-86483674D01*
X150928450Y-86496549D01*
X150941326Y-86500000D01*
X151683674Y-86500000D01*
X151696549Y-86496549D01*
X151700000Y-86483674D01*
X152100000Y-86483674D01*
X152103450Y-86496549D01*
X152116326Y-86500000D01*
X152858674Y-86500000D01*
X152871549Y-86496549D01*
X152875000Y-86483674D01*
X152875000Y-86229480D01*
X163558602Y-86229480D01*
X163566188Y-86240833D01*
X163582407Y-86254686D01*
X163590275Y-86260402D01*
X163789980Y-86382782D01*
X163798643Y-86387196D01*
X164015042Y-86476831D01*
X164024279Y-86479833D01*
X164252043Y-86534514D01*
X164261628Y-86536032D01*
X164495146Y-86554411D01*
X164504854Y-86554411D01*
X164738371Y-86536032D01*
X164747956Y-86534514D01*
X164975720Y-86479833D01*
X164984957Y-86476831D01*
X165201356Y-86387196D01*
X165210019Y-86382782D01*
X165409726Y-86260401D01*
X165417591Y-86254687D01*
X165433811Y-86240833D01*
X165441396Y-86229481D01*
X165434723Y-86217566D01*
X164511542Y-85294385D01*
X164499999Y-85287721D01*
X164488457Y-85294385D01*
X163565275Y-86217566D01*
X163558602Y-86229480D01*
X152875000Y-86229480D01*
X152875000Y-86180482D01*
X152874646Y-86173885D01*
X152869426Y-86125332D01*
X152865888Y-86110358D01*
X152821452Y-85991222D01*
X152813037Y-85975810D01*
X152737501Y-85874907D01*
X152725092Y-85862498D01*
X152624189Y-85786962D01*
X152608777Y-85778547D01*
X152489641Y-85734111D01*
X152474667Y-85730573D01*
X152426114Y-85725353D01*
X152419518Y-85725000D01*
X152116326Y-85725000D01*
X152103450Y-85728450D01*
X152100000Y-85741326D01*
X152100000Y-86483674D01*
X151700000Y-86483674D01*
X151700000Y-85741326D01*
X151696549Y-85728450D01*
X151683674Y-85725000D01*
X151380482Y-85725000D01*
X151373885Y-85725353D01*
X151325332Y-85730573D01*
X151310358Y-85734111D01*
X151191222Y-85778547D01*
X151175810Y-85786962D01*
X151074907Y-85862498D01*
X151062498Y-85874907D01*
X150986962Y-85975810D01*
X150978547Y-85991222D01*
X150934111Y-86110358D01*
X150930573Y-86125332D01*
X150925353Y-86173885D01*
X150925000Y-86180482D01*
X150925000Y-86483674D01*
X142700000Y-86483674D01*
X142700000Y-85004854D01*
X162945589Y-85004854D01*
X162963967Y-85238371D01*
X162965485Y-85247956D01*
X163020166Y-85475720D01*
X163023168Y-85484957D01*
X163112803Y-85701356D01*
X163117217Y-85710019D01*
X163239597Y-85909724D01*
X163245313Y-85917593D01*
X163259165Y-85933811D01*
X163270518Y-85941396D01*
X163282432Y-85934723D01*
X164205614Y-85011542D01*
X164212278Y-85000000D01*
X164787721Y-85000000D01*
X164794385Y-85011542D01*
X165717566Y-85934723D01*
X165729481Y-85941396D01*
X165740833Y-85933811D01*
X165754687Y-85917591D01*
X165760401Y-85909726D01*
X165882782Y-85710019D01*
X165887196Y-85701356D01*
X165976831Y-85484957D01*
X165979833Y-85475720D01*
X166034514Y-85247956D01*
X166036032Y-85238371D01*
X166054411Y-85004854D01*
X166054411Y-84995146D01*
X166036032Y-84761628D01*
X166034514Y-84752043D01*
X165979833Y-84524279D01*
X165976831Y-84515042D01*
X165887196Y-84298643D01*
X165882782Y-84289980D01*
X165760402Y-84090275D01*
X165754686Y-84082407D01*
X165740833Y-84066188D01*
X165729480Y-84058602D01*
X165717566Y-84065275D01*
X164794385Y-84988457D01*
X164787721Y-85000000D01*
X164212278Y-85000000D01*
X164205614Y-84988457D01*
X163282432Y-84065275D01*
X163270518Y-84058603D01*
X163259165Y-84066188D01*
X163245310Y-84082410D01*
X163239598Y-84090272D01*
X163117217Y-84289980D01*
X163112803Y-84298643D01*
X163023168Y-84515042D01*
X163020166Y-84524279D01*
X162965485Y-84752043D01*
X162963967Y-84761628D01*
X162945589Y-84995146D01*
X162945589Y-85004854D01*
X142700000Y-85004854D01*
X142700000Y-83770518D01*
X163558603Y-83770518D01*
X163565275Y-83782432D01*
X164488457Y-84705614D01*
X164500000Y-84712278D01*
X164511542Y-84705614D01*
X165434723Y-83782432D01*
X165441396Y-83770518D01*
X165433811Y-83759165D01*
X165417593Y-83745313D01*
X165409724Y-83739597D01*
X165210019Y-83617217D01*
X165201356Y-83612803D01*
X164984957Y-83523168D01*
X164975720Y-83520166D01*
X164747956Y-83465485D01*
X164738371Y-83463967D01*
X164504854Y-83445589D01*
X164495146Y-83445589D01*
X164261628Y-83463967D01*
X164252043Y-83465485D01*
X164024279Y-83520166D01*
X164015042Y-83523168D01*
X163798643Y-83612803D01*
X163789980Y-83617217D01*
X163590272Y-83739598D01*
X163582410Y-83745310D01*
X163566188Y-83759165D01*
X163558603Y-83770518D01*
X142700000Y-83770518D01*
X142700000Y-82321829D01*
X150500001Y-82321829D01*
X150500321Y-82328111D01*
X150509805Y-82420959D01*
X150512623Y-82434122D01*
X150563370Y-82587267D01*
X150569432Y-82600266D01*
X150653890Y-82737194D01*
X150662794Y-82748455D01*
X150776544Y-82862205D01*
X150787805Y-82871109D01*
X150924733Y-82955567D01*
X150937732Y-82961629D01*
X151090874Y-83012375D01*
X151104041Y-83015194D01*
X151196890Y-83024680D01*
X151203168Y-83025000D01*
X151683674Y-83025000D01*
X151696549Y-83021549D01*
X151700000Y-83008674D01*
X151700000Y-83008673D01*
X152100000Y-83008673D01*
X152103450Y-83021548D01*
X152116326Y-83024999D01*
X152596829Y-83024999D01*
X152603111Y-83024678D01*
X152695959Y-83015194D01*
X152709122Y-83012376D01*
X152862267Y-82961629D01*
X152875266Y-82955567D01*
X153012194Y-82871109D01*
X153023455Y-82862205D01*
X153137205Y-82748455D01*
X153146109Y-82737194D01*
X153230567Y-82600266D01*
X153236629Y-82587267D01*
X153287375Y-82434125D01*
X153290194Y-82420958D01*
X153299680Y-82328109D01*
X153300000Y-82321832D01*
X153300000Y-82078826D01*
X153296549Y-82065950D01*
X153283674Y-82062500D01*
X152116326Y-82062500D01*
X152103450Y-82065950D01*
X152100000Y-82078826D01*
X152100000Y-83008673D01*
X151700000Y-83008673D01*
X151700000Y-82078826D01*
X151696549Y-82065950D01*
X151683674Y-82062500D01*
X150516327Y-82062500D01*
X150503451Y-82065950D01*
X150500001Y-82078826D01*
X150500001Y-82321829D01*
X142700000Y-82321829D01*
X142700000Y-75483497D01*
X146987501Y-75483497D01*
X146987821Y-75489779D01*
X146997130Y-75580912D01*
X146999949Y-75594081D01*
X147049774Y-75744444D01*
X147055840Y-75757452D01*
X147138760Y-75891886D01*
X147147665Y-75903148D01*
X147259351Y-76014834D01*
X147270613Y-76023739D01*
X147405047Y-76106659D01*
X147418055Y-76112725D01*
X147568424Y-76162552D01*
X147581580Y-76165368D01*
X147672723Y-76174680D01*
X147679000Y-76175000D01*
X147758674Y-76175000D01*
X147771549Y-76171549D01*
X147775000Y-76158674D01*
X147775000Y-75416326D01*
X147771549Y-75403450D01*
X147758674Y-75400000D01*
X147003827Y-75400000D01*
X146990951Y-75403450D01*
X146987501Y-75416326D01*
X146987501Y-75483497D01*
X142700000Y-75483497D01*
X142700000Y-74983674D01*
X146987500Y-74983674D01*
X146990950Y-74996549D01*
X147003826Y-75000000D01*
X147758674Y-75000000D01*
X147771549Y-74996549D01*
X147775000Y-74983674D01*
X147775000Y-74241327D01*
X147771549Y-74228451D01*
X147758674Y-74225001D01*
X147679003Y-74225001D01*
X147672720Y-74225321D01*
X147581587Y-74234630D01*
X147568418Y-74237449D01*
X147418055Y-74287274D01*
X147405047Y-74293340D01*
X147270613Y-74376260D01*
X147259351Y-74385165D01*
X147147665Y-74496851D01*
X147138760Y-74508113D01*
X147055840Y-74642547D01*
X147049774Y-74655555D01*
X146999947Y-74805924D01*
X146997131Y-74819080D01*
X146987819Y-74910223D01*
X146987500Y-74916500D01*
X146987500Y-74983674D01*
X142700000Y-74983674D01*
X142700000Y-71643674D01*
X148550000Y-71643674D01*
X148553450Y-71656549D01*
X148566326Y-71660000D01*
X149583674Y-71660000D01*
X149596549Y-71656549D01*
X149600000Y-71643674D01*
X150000000Y-71643674D01*
X150003450Y-71656549D01*
X150016326Y-71660000D01*
X151033674Y-71660000D01*
X151046549Y-71656549D01*
X151050000Y-71643674D01*
X151050000Y-71490482D01*
X151049646Y-71483885D01*
X151044426Y-71435332D01*
X151040888Y-71420358D01*
X150996451Y-71301218D01*
X150987283Y-71284428D01*
X150972114Y-71225000D01*
X150987283Y-71165572D01*
X150996451Y-71148781D01*
X151040888Y-71029641D01*
X151044426Y-71014667D01*
X151049646Y-70966114D01*
X151050000Y-70959518D01*
X151050000Y-70806326D01*
X151046549Y-70793450D01*
X151033674Y-70790000D01*
X150016326Y-70790000D01*
X150003450Y-70793450D01*
X150000000Y-70806326D01*
X150000000Y-71643674D01*
X149600000Y-71643674D01*
X149600000Y-70806326D01*
X149596549Y-70793450D01*
X149583674Y-70790000D01*
X148566326Y-70790000D01*
X148553450Y-70793450D01*
X148550000Y-70806326D01*
X148550000Y-70959518D01*
X148550353Y-70966114D01*
X148555573Y-71014667D01*
X148559111Y-71029641D01*
X148603547Y-71148780D01*
X148612717Y-71165572D01*
X148627885Y-71224997D01*
X148612719Y-71284422D01*
X148603549Y-71301216D01*
X148559111Y-71420358D01*
X148555573Y-71435332D01*
X148550353Y-71483885D01*
X148550000Y-71490482D01*
X148550000Y-71643674D01*
X142700000Y-71643674D01*
X142700000Y-70373674D01*
X148550000Y-70373674D01*
X148553450Y-70386549D01*
X148566326Y-70390000D01*
X149583674Y-70390000D01*
X149596549Y-70386549D01*
X149600000Y-70373674D01*
X150000000Y-70373674D01*
X150003450Y-70386549D01*
X150016326Y-70390000D01*
X151033674Y-70390000D01*
X151046549Y-70386549D01*
X151050000Y-70373674D01*
X151050000Y-70220482D01*
X151049646Y-70213885D01*
X151044426Y-70165332D01*
X151040888Y-70150358D01*
X150996451Y-70031218D01*
X150987283Y-70014428D01*
X150972114Y-69955000D01*
X150987283Y-69895572D01*
X150996451Y-69878781D01*
X151040888Y-69759641D01*
X151044426Y-69744667D01*
X151049646Y-69696114D01*
X151050000Y-69689518D01*
X151050000Y-69536326D01*
X151046549Y-69523450D01*
X151033674Y-69520000D01*
X150016326Y-69520000D01*
X150003450Y-69523450D01*
X150000000Y-69536326D01*
X150000000Y-70373674D01*
X149600000Y-70373674D01*
X149600000Y-69536326D01*
X149596549Y-69523450D01*
X149583674Y-69520000D01*
X148566326Y-69520000D01*
X148553450Y-69523450D01*
X148550000Y-69536326D01*
X148550000Y-69689518D01*
X148550353Y-69696114D01*
X148555573Y-69744667D01*
X148559111Y-69759641D01*
X148603548Y-69878781D01*
X148612718Y-69895575D01*
X148627885Y-69955000D01*
X148612718Y-70014425D01*
X148603548Y-70031218D01*
X148559111Y-70150358D01*
X148555573Y-70165332D01*
X148550353Y-70213885D01*
X148550000Y-70220482D01*
X148550000Y-70373674D01*
X142700000Y-70373674D01*
X142700000Y-69103674D01*
X148550000Y-69103674D01*
X148553450Y-69116549D01*
X148566326Y-69120000D01*
X149583674Y-69120000D01*
X149596549Y-69116549D01*
X149600000Y-69103674D01*
X150000000Y-69103674D01*
X150003450Y-69116549D01*
X150016326Y-69120000D01*
X151033674Y-69120000D01*
X151046549Y-69116549D01*
X151050000Y-69103674D01*
X151050000Y-68950482D01*
X151049646Y-68943885D01*
X151044426Y-68895332D01*
X151040888Y-68880358D01*
X150996452Y-68761222D01*
X150988037Y-68745810D01*
X150912501Y-68644907D01*
X150900092Y-68632498D01*
X150799189Y-68556962D01*
X150783777Y-68548547D01*
X150664641Y-68504111D01*
X150649667Y-68500573D01*
X150601114Y-68495353D01*
X150594518Y-68495000D01*
X150016326Y-68495000D01*
X150003450Y-68498450D01*
X150000000Y-68511326D01*
X150000000Y-69103674D01*
X149600000Y-69103674D01*
X149600000Y-68511326D01*
X149596549Y-68498450D01*
X149583674Y-68495000D01*
X149005482Y-68495000D01*
X148998885Y-68495353D01*
X148950332Y-68500573D01*
X148935358Y-68504111D01*
X148816222Y-68548547D01*
X148800810Y-68556962D01*
X148699907Y-68632498D01*
X148687498Y-68644907D01*
X148611962Y-68745810D01*
X148603547Y-68761222D01*
X148559111Y-68880358D01*
X148555573Y-68895332D01*
X148550353Y-68943885D01*
X148550000Y-68950482D01*
X148550000Y-69103674D01*
X142700000Y-69103674D01*
X142700000Y-67463813D01*
X142713743Y-67407073D01*
X142751926Y-67362910D01*
X142752053Y-67362819D01*
X143315024Y-66960696D01*
X143364304Y-66939715D01*
X143516198Y-66911321D01*
X143521542Y-66909250D01*
X143521548Y-66909249D01*
X143523810Y-66908373D01*
X143526194Y-66907927D01*
X143527060Y-66907681D01*
X143527082Y-66907761D01*
X143568602Y-66900000D01*
X151855106Y-66900000D01*
X151897319Y-66907406D01*
G37*
G04 #@! TD.AperFunction*
G04 #@! TA.AperFunction,Conductor*
G36*
X172396842Y-87908231D02*
G01*
X172435369Y-87931832D01*
X173358952Y-88763057D01*
X173389274Y-88804777D01*
X173400000Y-88855225D01*
X173400000Y-100348638D01*
X173390561Y-100396091D01*
X173363681Y-100436319D01*
X172836319Y-100963681D01*
X172796091Y-100990561D01*
X172748638Y-101000000D01*
X161654940Y-101000000D01*
X161604710Y-100989371D01*
X161563091Y-100959305D01*
X160901157Y-100229480D01*
X163558602Y-100229480D01*
X163566188Y-100240833D01*
X163582407Y-100254686D01*
X163590275Y-100260402D01*
X163789980Y-100382782D01*
X163798643Y-100387196D01*
X164015042Y-100476831D01*
X164024279Y-100479833D01*
X164252043Y-100534514D01*
X164261628Y-100536032D01*
X164495146Y-100554411D01*
X164504854Y-100554411D01*
X164738371Y-100536032D01*
X164747956Y-100534514D01*
X164975720Y-100479833D01*
X164984957Y-100476831D01*
X165201356Y-100387196D01*
X165210019Y-100382782D01*
X165409726Y-100260401D01*
X165417591Y-100254687D01*
X165433811Y-100240833D01*
X165441396Y-100229481D01*
X165434723Y-100217566D01*
X164511542Y-99294385D01*
X164500000Y-99287721D01*
X164488457Y-99294385D01*
X163565275Y-100217566D01*
X163558602Y-100229480D01*
X160901157Y-100229480D01*
X159790449Y-99004854D01*
X162945589Y-99004854D01*
X162963967Y-99238371D01*
X162965485Y-99247956D01*
X163020166Y-99475720D01*
X163023168Y-99484957D01*
X163112803Y-99701356D01*
X163117217Y-99710019D01*
X163239597Y-99909724D01*
X163245313Y-99917593D01*
X163259165Y-99933811D01*
X163270518Y-99941396D01*
X163282432Y-99934723D01*
X164205614Y-99011542D01*
X164212278Y-99000000D01*
X164787721Y-99000000D01*
X164794385Y-99011542D01*
X165717566Y-99934723D01*
X165729481Y-99941396D01*
X165740833Y-99933811D01*
X165754687Y-99917591D01*
X165760401Y-99909726D01*
X165882782Y-99710019D01*
X165887196Y-99701356D01*
X165976831Y-99484957D01*
X165979833Y-99475720D01*
X166034514Y-99247956D01*
X166036032Y-99238371D01*
X166054411Y-99004854D01*
X166054411Y-98995146D01*
X166036032Y-98761628D01*
X166034514Y-98752043D01*
X165979833Y-98524279D01*
X165976831Y-98515042D01*
X165887196Y-98298643D01*
X165882782Y-98289980D01*
X165760402Y-98090275D01*
X165754686Y-98082407D01*
X165740833Y-98066188D01*
X165729480Y-98058602D01*
X165717566Y-98065275D01*
X164794385Y-98988457D01*
X164787721Y-99000000D01*
X164212278Y-99000000D01*
X164205614Y-98988457D01*
X163282432Y-98065275D01*
X163270518Y-98058603D01*
X163259165Y-98066188D01*
X163245310Y-98082410D01*
X163239598Y-98090272D01*
X163117217Y-98289980D01*
X163112803Y-98298643D01*
X163023168Y-98515042D01*
X163020166Y-98524279D01*
X162965485Y-98752043D01*
X162963967Y-98761628D01*
X162945589Y-98995146D01*
X162945589Y-99004854D01*
X159790449Y-99004854D01*
X158670935Y-97770518D01*
X163558603Y-97770518D01*
X163565275Y-97782432D01*
X164488457Y-98705614D01*
X164500000Y-98712278D01*
X164511542Y-98705614D01*
X165434723Y-97782432D01*
X165441396Y-97770518D01*
X165433811Y-97759165D01*
X165417593Y-97745313D01*
X165409724Y-97739597D01*
X165210019Y-97617217D01*
X165201356Y-97612803D01*
X164984957Y-97523168D01*
X164975720Y-97520166D01*
X164747956Y-97465485D01*
X164738371Y-97463967D01*
X164504854Y-97445589D01*
X164495146Y-97445589D01*
X164261628Y-97463967D01*
X164252043Y-97465485D01*
X164024279Y-97520166D01*
X164015042Y-97523168D01*
X163798643Y-97612803D01*
X163789980Y-97617217D01*
X163590272Y-97739598D01*
X163582410Y-97745310D01*
X163566188Y-97759165D01*
X163558603Y-97770518D01*
X158670935Y-97770518D01*
X157708716Y-96709610D01*
X157700000Y-96700000D01*
X157687022Y-96700000D01*
X156724000Y-96700000D01*
X156662000Y-96683387D01*
X156616613Y-96638000D01*
X156600000Y-96576000D01*
X156600000Y-96436326D01*
X156596549Y-96423450D01*
X156583674Y-96420000D01*
X155016326Y-96420000D01*
X155003450Y-96423450D01*
X155000000Y-96436326D01*
X155000000Y-96576000D01*
X154983387Y-96638000D01*
X154938000Y-96683387D01*
X154876000Y-96700000D01*
X151314120Y-96700000D01*
X151256709Y-96685909D01*
X151223724Y-96668679D01*
X151123049Y-96616091D01*
X151117004Y-96614361D01*
X151117001Y-96614360D01*
X150933080Y-96561734D01*
X150933079Y-96561733D01*
X150927418Y-96560114D01*
X150921552Y-96559592D01*
X150921550Y-96559592D01*
X150810767Y-96549742D01*
X150810750Y-96549741D01*
X150808037Y-96549500D01*
X150805293Y-96549500D01*
X149394707Y-96549500D01*
X149394684Y-96549500D01*
X149391964Y-96549501D01*
X149389251Y-96549742D01*
X149389232Y-96549743D01*
X149278448Y-96559592D01*
X149278442Y-96559592D01*
X149272582Y-96560114D01*
X149266930Y-96561730D01*
X149266920Y-96561733D01*
X149082998Y-96614360D01*
X149082991Y-96614362D01*
X149076951Y-96616091D01*
X149071375Y-96619003D01*
X149071374Y-96619004D01*
X148943291Y-96685909D01*
X148885880Y-96700000D01*
X148447145Y-96700000D01*
X148403078Y-96691905D01*
X148364764Y-96668679D01*
X147635000Y-96020000D01*
X147616633Y-96003674D01*
X155000000Y-96003674D01*
X155003450Y-96016549D01*
X155016326Y-96020000D01*
X155583674Y-96020000D01*
X155596549Y-96016549D01*
X155600000Y-96003674D01*
X156000000Y-96003674D01*
X156003450Y-96016549D01*
X156016326Y-96020000D01*
X156583674Y-96020000D01*
X156596549Y-96016549D01*
X156600000Y-96003674D01*
X156600000Y-95725482D01*
X156599646Y-95718885D01*
X156594426Y-95670332D01*
X156590888Y-95655358D01*
X156546452Y-95536222D01*
X156538037Y-95520810D01*
X156462501Y-95419907D01*
X156450092Y-95407498D01*
X156349189Y-95331962D01*
X156333777Y-95323547D01*
X156214641Y-95279111D01*
X156199667Y-95275573D01*
X156151114Y-95270353D01*
X156144518Y-95270000D01*
X156016326Y-95270000D01*
X156003450Y-95273450D01*
X156000000Y-95286326D01*
X156000000Y-96003674D01*
X155600000Y-96003674D01*
X155600000Y-95286326D01*
X155596549Y-95273450D01*
X155583674Y-95270000D01*
X155455482Y-95270000D01*
X155448885Y-95270353D01*
X155400332Y-95275573D01*
X155385358Y-95279111D01*
X155266222Y-95323547D01*
X155250810Y-95331962D01*
X155149907Y-95407498D01*
X155137498Y-95419907D01*
X155061962Y-95520810D01*
X155053547Y-95536222D01*
X155009111Y-95655358D01*
X155005573Y-95670332D01*
X155000353Y-95718885D01*
X155000000Y-95725482D01*
X155000000Y-96003674D01*
X147616633Y-96003674D01*
X147541618Y-95936994D01*
X147510882Y-95895113D01*
X147500000Y-95844316D01*
X147500000Y-95296829D01*
X148700001Y-95296829D01*
X148700321Y-95303111D01*
X148709805Y-95395959D01*
X148712623Y-95409122D01*
X148763370Y-95562267D01*
X148769432Y-95575266D01*
X148853890Y-95712194D01*
X148862794Y-95723455D01*
X148976544Y-95837205D01*
X148987805Y-95846109D01*
X149124733Y-95930567D01*
X149137732Y-95936629D01*
X149290874Y-95987375D01*
X149304041Y-95990194D01*
X149396890Y-95999680D01*
X149403168Y-96000000D01*
X149883674Y-96000000D01*
X149896549Y-95996549D01*
X149900000Y-95983674D01*
X149900000Y-95983673D01*
X150300000Y-95983673D01*
X150303450Y-95996548D01*
X150316326Y-95999999D01*
X150796829Y-95999999D01*
X150803111Y-95999678D01*
X150895959Y-95990194D01*
X150909122Y-95987376D01*
X151062267Y-95936629D01*
X151075266Y-95930567D01*
X151212194Y-95846109D01*
X151223455Y-95837205D01*
X151337205Y-95723455D01*
X151346109Y-95712194D01*
X151430567Y-95575266D01*
X151436629Y-95562267D01*
X151487375Y-95409125D01*
X151490194Y-95395958D01*
X151499680Y-95303109D01*
X151500000Y-95296832D01*
X151500000Y-95053826D01*
X151496549Y-95040950D01*
X151483674Y-95037500D01*
X150316326Y-95037500D01*
X150303450Y-95040950D01*
X150300000Y-95053826D01*
X150300000Y-95983673D01*
X149900000Y-95983673D01*
X149900000Y-95053826D01*
X149896549Y-95040950D01*
X149883674Y-95037500D01*
X148716327Y-95037500D01*
X148703451Y-95040950D01*
X148700001Y-95053826D01*
X148700001Y-95296829D01*
X147500000Y-95296829D01*
X147500000Y-94621174D01*
X148700000Y-94621174D01*
X148703450Y-94634049D01*
X148716326Y-94637500D01*
X149883674Y-94637500D01*
X149896549Y-94634049D01*
X149900000Y-94621174D01*
X150300000Y-94621174D01*
X150303450Y-94634049D01*
X150316326Y-94637500D01*
X151483673Y-94637500D01*
X151496548Y-94634049D01*
X151499999Y-94621174D01*
X151499999Y-94378171D01*
X151499678Y-94371888D01*
X151490194Y-94279040D01*
X151487376Y-94265877D01*
X151436629Y-94112732D01*
X151430567Y-94099733D01*
X151346109Y-93962805D01*
X151337205Y-93951544D01*
X151223455Y-93837794D01*
X151212194Y-93828890D01*
X151075266Y-93744432D01*
X151062267Y-93738370D01*
X150909125Y-93687624D01*
X150895958Y-93684805D01*
X150803109Y-93675319D01*
X150796832Y-93675000D01*
X150316326Y-93675000D01*
X150303450Y-93678450D01*
X150300000Y-93691326D01*
X150300000Y-94621174D01*
X149900000Y-94621174D01*
X149900000Y-93691327D01*
X149896549Y-93678451D01*
X149883674Y-93675001D01*
X149403171Y-93675001D01*
X149396888Y-93675321D01*
X149304040Y-93684805D01*
X149290877Y-93687623D01*
X149137732Y-93738370D01*
X149124733Y-93744432D01*
X148987805Y-93828890D01*
X148976544Y-93837794D01*
X148862794Y-93951544D01*
X148853890Y-93962805D01*
X148769432Y-94099733D01*
X148763370Y-94112732D01*
X148712624Y-94265874D01*
X148709805Y-94279041D01*
X148700319Y-94371890D01*
X148700000Y-94378168D01*
X148700000Y-94621174D01*
X147500000Y-94621174D01*
X147500000Y-91951362D01*
X147509439Y-91903909D01*
X147536319Y-91863681D01*
X148170520Y-91229480D01*
X163558602Y-91229480D01*
X163566188Y-91240833D01*
X163582407Y-91254686D01*
X163590275Y-91260402D01*
X163789980Y-91382782D01*
X163798643Y-91387196D01*
X164015042Y-91476831D01*
X164024279Y-91479833D01*
X164252043Y-91534514D01*
X164261628Y-91536032D01*
X164495146Y-91554411D01*
X164504854Y-91554411D01*
X164738371Y-91536032D01*
X164747956Y-91534514D01*
X164975720Y-91479833D01*
X164984957Y-91476831D01*
X165201356Y-91387196D01*
X165210019Y-91382782D01*
X165409726Y-91260401D01*
X165417591Y-91254687D01*
X165433811Y-91240833D01*
X165441396Y-91229481D01*
X165434723Y-91217566D01*
X164511542Y-90294385D01*
X164500000Y-90287721D01*
X164488457Y-90294385D01*
X163565275Y-91217566D01*
X163558602Y-91229480D01*
X148170520Y-91229480D01*
X149091503Y-90308497D01*
X153425001Y-90308497D01*
X153425321Y-90314779D01*
X153434630Y-90405912D01*
X153437449Y-90419081D01*
X153487274Y-90569444D01*
X153493340Y-90582452D01*
X153576260Y-90716886D01*
X153585165Y-90728148D01*
X153696851Y-90839834D01*
X153708113Y-90848739D01*
X153842547Y-90931659D01*
X153855555Y-90937725D01*
X154005924Y-90987552D01*
X154019080Y-90990368D01*
X154110223Y-90999680D01*
X154116500Y-91000000D01*
X154183674Y-91000000D01*
X154196549Y-90996549D01*
X154200000Y-90983674D01*
X154200000Y-90983673D01*
X154600000Y-90983673D01*
X154603450Y-90996548D01*
X154616326Y-90999999D01*
X154683497Y-90999999D01*
X154689779Y-90999678D01*
X154780912Y-90990369D01*
X154794081Y-90987550D01*
X154944444Y-90937725D01*
X154957452Y-90931659D01*
X155091886Y-90848739D01*
X155103148Y-90839834D01*
X155214834Y-90728148D01*
X155223739Y-90716886D01*
X155306659Y-90582452D01*
X155312725Y-90569444D01*
X155362552Y-90419075D01*
X155365368Y-90405919D01*
X155374680Y-90314776D01*
X155375000Y-90308500D01*
X155375000Y-90228826D01*
X155371549Y-90215950D01*
X155358674Y-90212500D01*
X154616326Y-90212500D01*
X154603450Y-90215950D01*
X154600000Y-90228826D01*
X154600000Y-90983673D01*
X154200000Y-90983673D01*
X154200000Y-90228826D01*
X154196549Y-90215950D01*
X154183674Y-90212500D01*
X153441327Y-90212500D01*
X153428451Y-90215950D01*
X153425001Y-90228826D01*
X153425001Y-90308497D01*
X149091503Y-90308497D01*
X149395146Y-90004854D01*
X162945589Y-90004854D01*
X162963967Y-90238371D01*
X162965485Y-90247956D01*
X163020166Y-90475720D01*
X163023168Y-90484957D01*
X163112803Y-90701356D01*
X163117217Y-90710019D01*
X163239597Y-90909724D01*
X163245313Y-90917593D01*
X163259165Y-90933811D01*
X163270518Y-90941396D01*
X163282432Y-90934723D01*
X164205614Y-90011542D01*
X164212277Y-90000000D01*
X164787721Y-90000000D01*
X164794385Y-90011542D01*
X165717566Y-90934723D01*
X165729481Y-90941396D01*
X165740833Y-90933811D01*
X165754687Y-90917591D01*
X165760401Y-90909726D01*
X165882782Y-90710019D01*
X165887196Y-90701356D01*
X165976831Y-90484957D01*
X165979833Y-90475720D01*
X166034514Y-90247956D01*
X166036032Y-90238371D01*
X166054411Y-90004854D01*
X166054411Y-89995146D01*
X166036032Y-89761628D01*
X166034514Y-89752043D01*
X165979833Y-89524279D01*
X165976831Y-89515042D01*
X165887196Y-89298643D01*
X165882782Y-89289980D01*
X165760402Y-89090275D01*
X165754686Y-89082407D01*
X165740833Y-89066188D01*
X165729480Y-89058602D01*
X165717566Y-89065275D01*
X164794385Y-89988457D01*
X164787721Y-90000000D01*
X164212277Y-90000000D01*
X164212278Y-89999999D01*
X164205614Y-89988457D01*
X163282432Y-89065275D01*
X163270518Y-89058603D01*
X163259165Y-89066188D01*
X163245310Y-89082410D01*
X163239598Y-89090272D01*
X163117217Y-89289980D01*
X163112803Y-89298643D01*
X163023168Y-89515042D01*
X163020166Y-89524279D01*
X162965485Y-89752043D01*
X162963967Y-89761628D01*
X162945589Y-89995146D01*
X162945589Y-90004854D01*
X149395146Y-90004854D01*
X149963681Y-89436319D01*
X150003909Y-89409439D01*
X150051362Y-89400000D01*
X151206929Y-89400000D01*
X151245933Y-89406294D01*
X151272203Y-89414999D01*
X151374991Y-89425500D01*
X152425008Y-89425499D01*
X152527797Y-89414999D01*
X152554066Y-89406294D01*
X152593071Y-89400000D01*
X153333964Y-89400000D01*
X153390419Y-89413597D01*
X153434493Y-89451406D01*
X153456521Y-89505136D01*
X153451670Y-89563003D01*
X153437447Y-89605924D01*
X153434631Y-89619080D01*
X153425319Y-89710223D01*
X153425000Y-89716500D01*
X153425000Y-89796174D01*
X153428450Y-89809049D01*
X153441326Y-89812500D01*
X155358673Y-89812500D01*
X155371548Y-89809049D01*
X155374999Y-89796174D01*
X155374999Y-89716503D01*
X155374678Y-89710220D01*
X155365369Y-89619087D01*
X155362550Y-89605918D01*
X155317155Y-89468923D01*
X155312807Y-89408040D01*
X155338032Y-89352459D01*
X155803584Y-88770518D01*
X163558603Y-88770518D01*
X163565275Y-88782432D01*
X164488457Y-89705614D01*
X164500000Y-89712278D01*
X164511542Y-89705614D01*
X165434723Y-88782432D01*
X165441396Y-88770518D01*
X165433811Y-88759165D01*
X165417593Y-88745313D01*
X165409724Y-88739597D01*
X165210019Y-88617217D01*
X165201356Y-88612803D01*
X164984957Y-88523168D01*
X164975720Y-88520166D01*
X164747956Y-88465485D01*
X164738371Y-88463967D01*
X164504854Y-88445589D01*
X164495146Y-88445589D01*
X164261628Y-88463967D01*
X164252043Y-88465485D01*
X164024279Y-88520166D01*
X164015042Y-88523168D01*
X163798643Y-88612803D01*
X163789980Y-88617217D01*
X163590272Y-88739598D01*
X163582410Y-88745310D01*
X163566188Y-88759165D01*
X163558603Y-88770518D01*
X155803584Y-88770518D01*
X156462768Y-87946538D01*
X156505883Y-87912238D01*
X156559598Y-87900000D01*
X172352417Y-87900000D01*
X172396842Y-87908231D01*
G37*
G04 #@! TD.AperFunction*
G04 #@! TA.AperFunction,Conductor*
G36*
X155114339Y-97513515D02*
G01*
X155158362Y-97551115D01*
X155180517Y-97604602D01*
X155175975Y-97662318D01*
X155145725Y-97711681D01*
X155137498Y-97719907D01*
X155061962Y-97820810D01*
X155053547Y-97836222D01*
X155009111Y-97955358D01*
X155005573Y-97970332D01*
X155000353Y-98018885D01*
X155000000Y-98025482D01*
X155000000Y-98303674D01*
X155003450Y-98316549D01*
X155016326Y-98320000D01*
X156583674Y-98320000D01*
X156596549Y-98316549D01*
X156600000Y-98303674D01*
X156600000Y-98025482D01*
X156599646Y-98018885D01*
X156594426Y-97970332D01*
X156590888Y-97955358D01*
X156546452Y-97836222D01*
X156538037Y-97820810D01*
X156462501Y-97719907D01*
X156454275Y-97711681D01*
X156424025Y-97662318D01*
X156419483Y-97604602D01*
X156441638Y-97551115D01*
X156485661Y-97513515D01*
X156541956Y-97500000D01*
X157045060Y-97500000D01*
X157095290Y-97510629D01*
X157136909Y-97540695D01*
X160482698Y-101229641D01*
X161000000Y-101800000D01*
X168356503Y-101800000D01*
X168397548Y-101806990D01*
X168433965Y-101827172D01*
X169353462Y-102562770D01*
X169387762Y-102605883D01*
X169400000Y-102659598D01*
X169400000Y-106748638D01*
X169390561Y-106796091D01*
X169363681Y-106836319D01*
X168436319Y-107763681D01*
X168396091Y-107790561D01*
X168348638Y-107800000D01*
X154351362Y-107800000D01*
X154303909Y-107790561D01*
X154263681Y-107763681D01*
X153236319Y-106736319D01*
X153209439Y-106696091D01*
X153200000Y-106648638D01*
X153200000Y-104969518D01*
X153950000Y-104969518D01*
X153950353Y-104976114D01*
X153955573Y-105024667D01*
X153959111Y-105039641D01*
X154003547Y-105158777D01*
X154011962Y-105174189D01*
X154087498Y-105275092D01*
X154099907Y-105287501D01*
X154200810Y-105363037D01*
X154216222Y-105371452D01*
X154335358Y-105415888D01*
X154350332Y-105419426D01*
X154398885Y-105424646D01*
X154405482Y-105425000D01*
X154983674Y-105425000D01*
X154996549Y-105421549D01*
X155000000Y-105408674D01*
X155400000Y-105408674D01*
X155403450Y-105421549D01*
X155416326Y-105425000D01*
X155994518Y-105425000D01*
X156001114Y-105424646D01*
X156049667Y-105419426D01*
X156064641Y-105415888D01*
X156183777Y-105371452D01*
X156199189Y-105363037D01*
X156300092Y-105287501D01*
X156312501Y-105275092D01*
X156346646Y-105229480D01*
X163558602Y-105229480D01*
X163566188Y-105240833D01*
X163582407Y-105254686D01*
X163590275Y-105260402D01*
X163789980Y-105382782D01*
X163798643Y-105387196D01*
X164015042Y-105476831D01*
X164024279Y-105479833D01*
X164252043Y-105534514D01*
X164261628Y-105536032D01*
X164495146Y-105554411D01*
X164504854Y-105554411D01*
X164738371Y-105536032D01*
X164747956Y-105534514D01*
X164975720Y-105479833D01*
X164984957Y-105476831D01*
X165201356Y-105387196D01*
X165210019Y-105382782D01*
X165409726Y-105260401D01*
X165417591Y-105254687D01*
X165433811Y-105240833D01*
X165441396Y-105229481D01*
X165434723Y-105217566D01*
X164511542Y-104294385D01*
X164500000Y-104287721D01*
X164488457Y-104294385D01*
X163565275Y-105217566D01*
X163558602Y-105229480D01*
X156346646Y-105229480D01*
X156388037Y-105174189D01*
X156396452Y-105158777D01*
X156440888Y-105039641D01*
X156444426Y-105024667D01*
X156449646Y-104976114D01*
X156450000Y-104969518D01*
X156450000Y-104816326D01*
X156446549Y-104803450D01*
X156433674Y-104800000D01*
X155416326Y-104800000D01*
X155403450Y-104803450D01*
X155400000Y-104816326D01*
X155400000Y-105408674D01*
X155000000Y-105408674D01*
X155000000Y-104816326D01*
X154996549Y-104803450D01*
X154983674Y-104800000D01*
X153966326Y-104800000D01*
X153953450Y-104803450D01*
X153950000Y-104816326D01*
X153950000Y-104969518D01*
X153200000Y-104969518D01*
X153200000Y-104383674D01*
X153950000Y-104383674D01*
X153953450Y-104396549D01*
X153966326Y-104400000D01*
X154983674Y-104400000D01*
X154996549Y-104396549D01*
X155000000Y-104383674D01*
X155400000Y-104383674D01*
X155403450Y-104396549D01*
X155416326Y-104400000D01*
X156433674Y-104400000D01*
X156446549Y-104396549D01*
X156450000Y-104383674D01*
X156450000Y-104230482D01*
X156449646Y-104223885D01*
X156444426Y-104175332D01*
X156440888Y-104160358D01*
X156396450Y-104041216D01*
X156387282Y-104024425D01*
X156382287Y-104004854D01*
X162945589Y-104004854D01*
X162963967Y-104238371D01*
X162965485Y-104247956D01*
X163020166Y-104475720D01*
X163023168Y-104484957D01*
X163112803Y-104701356D01*
X163117217Y-104710019D01*
X163239597Y-104909724D01*
X163245313Y-104917593D01*
X163259165Y-104933811D01*
X163270518Y-104941396D01*
X163282432Y-104934723D01*
X164205614Y-104011542D01*
X164212278Y-104000000D01*
X164787721Y-104000000D01*
X164794385Y-104011542D01*
X165717566Y-104934723D01*
X165729481Y-104941396D01*
X165740833Y-104933811D01*
X165754687Y-104917591D01*
X165760401Y-104909726D01*
X165882782Y-104710019D01*
X165887196Y-104701356D01*
X165976831Y-104484957D01*
X165979833Y-104475720D01*
X166034514Y-104247956D01*
X166036032Y-104238371D01*
X166054411Y-104004854D01*
X166054411Y-103995146D01*
X166036032Y-103761628D01*
X166034514Y-103752043D01*
X165979833Y-103524279D01*
X165976831Y-103515042D01*
X165887196Y-103298643D01*
X165882782Y-103289980D01*
X165760402Y-103090275D01*
X165754686Y-103082407D01*
X165740833Y-103066188D01*
X165729480Y-103058602D01*
X165717566Y-103065275D01*
X164794385Y-103988457D01*
X164787721Y-104000000D01*
X164212278Y-104000000D01*
X164205614Y-103988457D01*
X163282432Y-103065275D01*
X163270518Y-103058603D01*
X163259165Y-103066188D01*
X163245310Y-103082410D01*
X163239598Y-103090272D01*
X163117217Y-103289980D01*
X163112803Y-103298643D01*
X163023168Y-103515042D01*
X163020166Y-103524279D01*
X162965485Y-103752043D01*
X162963967Y-103761628D01*
X162945589Y-103995146D01*
X162945589Y-104004854D01*
X156382287Y-104004854D01*
X156372114Y-103964997D01*
X156387284Y-103905569D01*
X156396451Y-103888780D01*
X156440888Y-103769641D01*
X156444426Y-103754667D01*
X156449646Y-103706114D01*
X156450000Y-103699518D01*
X156450000Y-103546326D01*
X156446549Y-103533450D01*
X156433674Y-103530000D01*
X155416326Y-103530000D01*
X155403450Y-103533450D01*
X155400000Y-103546326D01*
X155400000Y-104383674D01*
X155000000Y-104383674D01*
X155000000Y-103546326D01*
X154996549Y-103533450D01*
X154983674Y-103530000D01*
X153966326Y-103530000D01*
X153953450Y-103533450D01*
X153950000Y-103546326D01*
X153950000Y-103699518D01*
X153950353Y-103706114D01*
X153955573Y-103754667D01*
X153959111Y-103769641D01*
X154003547Y-103888780D01*
X154012717Y-103905572D01*
X154027885Y-103964997D01*
X154012719Y-104024422D01*
X154003549Y-104041216D01*
X153959111Y-104160358D01*
X153955573Y-104175332D01*
X153950353Y-104223885D01*
X153950000Y-104230482D01*
X153950000Y-104383674D01*
X153200000Y-104383674D01*
X153200000Y-103113674D01*
X153950000Y-103113674D01*
X153953450Y-103126549D01*
X153966326Y-103130000D01*
X154983674Y-103130000D01*
X154996549Y-103126549D01*
X155000000Y-103113674D01*
X155400000Y-103113674D01*
X155403450Y-103126549D01*
X155416326Y-103130000D01*
X156433674Y-103130000D01*
X156446549Y-103126549D01*
X156450000Y-103113674D01*
X156450000Y-102960482D01*
X156449646Y-102953885D01*
X156444426Y-102905332D01*
X156440888Y-102890358D01*
X156396451Y-102771218D01*
X156396069Y-102770518D01*
X163558603Y-102770518D01*
X163565275Y-102782432D01*
X164488457Y-103705614D01*
X164500000Y-103712278D01*
X164511542Y-103705614D01*
X165434723Y-102782432D01*
X165441396Y-102770518D01*
X165433811Y-102759165D01*
X165417593Y-102745313D01*
X165409724Y-102739597D01*
X165210019Y-102617217D01*
X165201356Y-102612803D01*
X164984957Y-102523168D01*
X164975720Y-102520166D01*
X164747956Y-102465485D01*
X164738371Y-102463967D01*
X164504854Y-102445589D01*
X164495146Y-102445589D01*
X164261628Y-102463967D01*
X164252043Y-102465485D01*
X164024279Y-102520166D01*
X164015042Y-102523168D01*
X163798643Y-102612803D01*
X163789980Y-102617217D01*
X163590272Y-102739598D01*
X163582410Y-102745310D01*
X163566188Y-102759165D01*
X163558603Y-102770518D01*
X156396069Y-102770518D01*
X156387283Y-102754428D01*
X156372114Y-102695000D01*
X156387283Y-102635572D01*
X156396451Y-102618781D01*
X156440888Y-102499641D01*
X156444426Y-102484667D01*
X156449646Y-102436114D01*
X156450000Y-102429518D01*
X156450000Y-102276326D01*
X156446549Y-102263450D01*
X156433674Y-102260000D01*
X155416326Y-102260000D01*
X155403450Y-102263450D01*
X155400000Y-102276326D01*
X155400000Y-103113674D01*
X155000000Y-103113674D01*
X155000000Y-102276326D01*
X154996549Y-102263450D01*
X154983674Y-102260000D01*
X153966326Y-102260000D01*
X153953450Y-102263450D01*
X153950000Y-102276326D01*
X153950000Y-102429518D01*
X153950353Y-102436114D01*
X153955573Y-102484667D01*
X153959111Y-102499641D01*
X154003548Y-102618781D01*
X154012718Y-102635575D01*
X154027885Y-102695000D01*
X154012718Y-102754425D01*
X154003548Y-102771218D01*
X153959111Y-102890358D01*
X153955573Y-102905332D01*
X153950353Y-102953885D01*
X153950000Y-102960482D01*
X153950000Y-103113674D01*
X153200000Y-103113674D01*
X153200000Y-101843674D01*
X153950000Y-101843674D01*
X153953450Y-101856549D01*
X153966326Y-101860000D01*
X154983674Y-101860000D01*
X154996549Y-101856549D01*
X155000000Y-101843674D01*
X155400000Y-101843674D01*
X155403450Y-101856549D01*
X155416326Y-101860000D01*
X156433674Y-101860000D01*
X156446549Y-101856549D01*
X156450000Y-101843674D01*
X156450000Y-101690482D01*
X156449646Y-101683885D01*
X156444426Y-101635332D01*
X156440888Y-101620358D01*
X156396450Y-101501216D01*
X156387282Y-101484425D01*
X156372114Y-101424997D01*
X156387284Y-101365569D01*
X156396451Y-101348780D01*
X156440888Y-101229641D01*
X156444426Y-101214667D01*
X156449646Y-101166114D01*
X156450000Y-101159518D01*
X156450000Y-101006326D01*
X156446549Y-100993450D01*
X156433674Y-100990000D01*
X155416326Y-100990000D01*
X155403450Y-100993450D01*
X155400000Y-101006326D01*
X155400000Y-101843674D01*
X155000000Y-101843674D01*
X155000000Y-101006326D01*
X154996549Y-100993450D01*
X154983674Y-100990000D01*
X153966326Y-100990000D01*
X153953450Y-100993450D01*
X153950000Y-101006326D01*
X153950000Y-101159518D01*
X153950353Y-101166114D01*
X153955573Y-101214667D01*
X153959111Y-101229641D01*
X154003548Y-101348781D01*
X154012718Y-101365575D01*
X154027885Y-101425000D01*
X154012718Y-101484425D01*
X154003548Y-101501218D01*
X153959111Y-101620358D01*
X153955573Y-101635332D01*
X153950353Y-101683885D01*
X153950000Y-101690482D01*
X153950000Y-101843674D01*
X153200000Y-101843674D01*
X153200000Y-100573674D01*
X153950000Y-100573674D01*
X153953450Y-100586549D01*
X153966326Y-100590000D01*
X154983674Y-100590000D01*
X154996549Y-100586549D01*
X155000000Y-100573674D01*
X155400000Y-100573674D01*
X155403450Y-100586549D01*
X155416326Y-100590000D01*
X156433674Y-100590000D01*
X156446549Y-100586549D01*
X156450000Y-100573674D01*
X156450000Y-100420482D01*
X156449646Y-100413885D01*
X156444426Y-100365332D01*
X156440888Y-100350358D01*
X156396452Y-100231222D01*
X156388037Y-100215810D01*
X156312501Y-100114907D01*
X156300092Y-100102498D01*
X156199189Y-100026962D01*
X156183777Y-100018547D01*
X156064641Y-99974111D01*
X156049667Y-99970573D01*
X156001114Y-99965353D01*
X155994518Y-99965000D01*
X155416326Y-99965000D01*
X155403450Y-99968450D01*
X155400000Y-99981326D01*
X155400000Y-100573674D01*
X155000000Y-100573674D01*
X155000000Y-99981326D01*
X154996549Y-99968450D01*
X154983674Y-99965000D01*
X154405482Y-99965000D01*
X154398885Y-99965353D01*
X154350332Y-99970573D01*
X154335358Y-99974111D01*
X154216222Y-100018547D01*
X154200810Y-100026962D01*
X154099907Y-100102498D01*
X154087498Y-100114907D01*
X154011962Y-100215810D01*
X154003547Y-100231222D01*
X153959111Y-100350358D01*
X153955573Y-100365332D01*
X153950353Y-100413885D01*
X153950000Y-100420482D01*
X153950000Y-100573674D01*
X153200000Y-100573674D01*
X153200000Y-99014518D01*
X155000000Y-99014518D01*
X155000353Y-99021114D01*
X155005573Y-99069667D01*
X155009111Y-99084641D01*
X155053547Y-99203777D01*
X155061962Y-99219189D01*
X155137498Y-99320092D01*
X155149907Y-99332501D01*
X155250810Y-99408037D01*
X155266222Y-99416452D01*
X155385358Y-99460888D01*
X155400332Y-99464426D01*
X155448885Y-99469646D01*
X155455482Y-99470000D01*
X155583674Y-99470000D01*
X155596549Y-99466549D01*
X155600000Y-99453674D01*
X156000000Y-99453674D01*
X156003450Y-99466549D01*
X156016326Y-99470000D01*
X156144518Y-99470000D01*
X156151114Y-99469646D01*
X156199667Y-99464426D01*
X156214641Y-99460888D01*
X156333777Y-99416452D01*
X156349189Y-99408037D01*
X156450092Y-99332501D01*
X156462501Y-99320092D01*
X156538037Y-99219189D01*
X156546452Y-99203777D01*
X156590888Y-99084641D01*
X156594426Y-99069667D01*
X156599646Y-99021114D01*
X156600000Y-99014518D01*
X156600000Y-98736326D01*
X156596549Y-98723450D01*
X156583674Y-98720000D01*
X156016326Y-98720000D01*
X156003450Y-98723450D01*
X156000000Y-98736326D01*
X156000000Y-99453674D01*
X155600000Y-99453674D01*
X155600000Y-98736326D01*
X155596549Y-98723450D01*
X155583674Y-98720000D01*
X155016326Y-98720000D01*
X155003450Y-98723450D01*
X155000000Y-98736326D01*
X155000000Y-99014518D01*
X153200000Y-99014518D01*
X153200000Y-98063813D01*
X153213743Y-98007073D01*
X153251926Y-97962910D01*
X153592130Y-97719907D01*
X153867664Y-97523096D01*
X153901896Y-97505915D01*
X153939738Y-97500000D01*
X155058044Y-97500000D01*
X155114339Y-97513515D01*
G37*
G04 #@! TD.AperFunction*
G04 #@! TA.AperFunction,Conductor*
G36*
X172596091Y-74009439D02*
G01*
X172636319Y-74036319D01*
X173463681Y-74863681D01*
X173490561Y-74903909D01*
X173500000Y-74951362D01*
X173500000Y-79638000D01*
X173486909Y-79693454D01*
X173450400Y-79737200D01*
X172733067Y-80275200D01*
X172697879Y-80293637D01*
X172658667Y-80300000D01*
X150546592Y-80300000D01*
X150502978Y-80292077D01*
X150464937Y-80269320D01*
X150028428Y-79887375D01*
X149742344Y-79637051D01*
X149711082Y-79594971D01*
X149700000Y-79543732D01*
X149700000Y-79196829D01*
X150500001Y-79196829D01*
X150500321Y-79203111D01*
X150509805Y-79295959D01*
X150512623Y-79309122D01*
X150563370Y-79462267D01*
X150569432Y-79475266D01*
X150653890Y-79612194D01*
X150662794Y-79623455D01*
X150776544Y-79737205D01*
X150787805Y-79746109D01*
X150924733Y-79830567D01*
X150937732Y-79836629D01*
X151090874Y-79887375D01*
X151104041Y-79890194D01*
X151196890Y-79899680D01*
X151203168Y-79900000D01*
X151683674Y-79900000D01*
X151696549Y-79896549D01*
X151700000Y-79883674D01*
X151700000Y-79883673D01*
X152100000Y-79883673D01*
X152103450Y-79896548D01*
X152116326Y-79899999D01*
X152596829Y-79899999D01*
X152603111Y-79899678D01*
X152695959Y-79890194D01*
X152709122Y-79887376D01*
X152862267Y-79836629D01*
X152875266Y-79830567D01*
X153012194Y-79746109D01*
X153023455Y-79737205D01*
X153137205Y-79623455D01*
X153146109Y-79612194D01*
X153230567Y-79475266D01*
X153236629Y-79462267D01*
X153287375Y-79309125D01*
X153290194Y-79295958D01*
X153299680Y-79203109D01*
X153300000Y-79196832D01*
X153300000Y-78953826D01*
X153296549Y-78940950D01*
X153283674Y-78937500D01*
X152116326Y-78937500D01*
X152103450Y-78940950D01*
X152100000Y-78953826D01*
X152100000Y-79883673D01*
X151700000Y-79883673D01*
X151700000Y-78953826D01*
X151696549Y-78940950D01*
X151683674Y-78937500D01*
X150516327Y-78937500D01*
X150503451Y-78940950D01*
X150500001Y-78953826D01*
X150500001Y-79196829D01*
X149700000Y-79196829D01*
X149700000Y-78521174D01*
X150500000Y-78521174D01*
X150503450Y-78534049D01*
X150516326Y-78537500D01*
X151683674Y-78537500D01*
X151696549Y-78534049D01*
X151700000Y-78521174D01*
X152100000Y-78521174D01*
X152103450Y-78534049D01*
X152116326Y-78537500D01*
X153283673Y-78537500D01*
X153296548Y-78534049D01*
X153299999Y-78521174D01*
X153299999Y-78278171D01*
X153299678Y-78271888D01*
X153296882Y-78244518D01*
X155100000Y-78244518D01*
X155100353Y-78251114D01*
X155105573Y-78299667D01*
X155109111Y-78314641D01*
X155153547Y-78433777D01*
X155161962Y-78449189D01*
X155237498Y-78550092D01*
X155249907Y-78562501D01*
X155350810Y-78638037D01*
X155366222Y-78646452D01*
X155485358Y-78690888D01*
X155500332Y-78694426D01*
X155548885Y-78699646D01*
X155555482Y-78700000D01*
X155683674Y-78700000D01*
X155696549Y-78696549D01*
X155700000Y-78683674D01*
X156100000Y-78683674D01*
X156103450Y-78696549D01*
X156116326Y-78700000D01*
X156244518Y-78700000D01*
X156251114Y-78699646D01*
X156299667Y-78694426D01*
X156314641Y-78690888D01*
X156433777Y-78646452D01*
X156449189Y-78638037D01*
X156550092Y-78562501D01*
X156562501Y-78550092D01*
X156638037Y-78449189D01*
X156646452Y-78433777D01*
X156690888Y-78314641D01*
X156694426Y-78299667D01*
X156699646Y-78251114D01*
X156700000Y-78244518D01*
X156700000Y-77966326D01*
X156696549Y-77953450D01*
X156683674Y-77950000D01*
X156116326Y-77950000D01*
X156103450Y-77953450D01*
X156100000Y-77966326D01*
X156100000Y-78683674D01*
X155700000Y-78683674D01*
X155700000Y-77966326D01*
X155696549Y-77953450D01*
X155683674Y-77950000D01*
X155116326Y-77950000D01*
X155103450Y-77953450D01*
X155100000Y-77966326D01*
X155100000Y-78244518D01*
X153296882Y-78244518D01*
X153290194Y-78179040D01*
X153287376Y-78165877D01*
X153236629Y-78012732D01*
X153230567Y-77999733D01*
X153146109Y-77862805D01*
X153137205Y-77851544D01*
X153023455Y-77737794D01*
X153012194Y-77728890D01*
X152875266Y-77644432D01*
X152862267Y-77638370D01*
X152709125Y-77587624D01*
X152695958Y-77584805D01*
X152603109Y-77575319D01*
X152596832Y-77575000D01*
X152116326Y-77575000D01*
X152103450Y-77578450D01*
X152100000Y-77591326D01*
X152100000Y-78521174D01*
X151700000Y-78521174D01*
X151700000Y-77591327D01*
X151696549Y-77578451D01*
X151683674Y-77575001D01*
X151203171Y-77575001D01*
X151196888Y-77575321D01*
X151104040Y-77584805D01*
X151090877Y-77587623D01*
X150937732Y-77638370D01*
X150924733Y-77644432D01*
X150787805Y-77728890D01*
X150776544Y-77737794D01*
X150662794Y-77851544D01*
X150653890Y-77862805D01*
X150569432Y-77999733D01*
X150563370Y-78012732D01*
X150512624Y-78165874D01*
X150509805Y-78179041D01*
X150500319Y-78271890D01*
X150500000Y-78278168D01*
X150500000Y-78521174D01*
X149700000Y-78521174D01*
X149700000Y-77056267D01*
X149711081Y-77005028D01*
X149742345Y-76962948D01*
X149774602Y-76934723D01*
X150440356Y-76352188D01*
X150464578Y-76335613D01*
X150505783Y-76314089D01*
X150563190Y-76300000D01*
X154895734Y-76300000D01*
X154956166Y-76315723D01*
X155001272Y-76358903D01*
X155007288Y-76368656D01*
X155131344Y-76492712D01*
X155137485Y-76496500D01*
X155137488Y-76496502D01*
X155194558Y-76531702D01*
X155280666Y-76584814D01*
X155373150Y-76615460D01*
X155424205Y-76647929D01*
X155453818Y-76700692D01*
X155454939Y-76761186D01*
X155427300Y-76815009D01*
X155377482Y-76849347D01*
X155366222Y-76853546D01*
X155350810Y-76861962D01*
X155249907Y-76937498D01*
X155237498Y-76949907D01*
X155161962Y-77050810D01*
X155153547Y-77066222D01*
X155109111Y-77185358D01*
X155105573Y-77200332D01*
X155100353Y-77248885D01*
X155100000Y-77255482D01*
X155100000Y-77533674D01*
X155103450Y-77546549D01*
X155116326Y-77550000D01*
X156683674Y-77550000D01*
X156696549Y-77546549D01*
X156700000Y-77533674D01*
X156700000Y-77255482D01*
X156699646Y-77248885D01*
X156697560Y-77229480D01*
X163558602Y-77229480D01*
X163566188Y-77240833D01*
X163582407Y-77254686D01*
X163590275Y-77260402D01*
X163789980Y-77382782D01*
X163798643Y-77387196D01*
X164015042Y-77476831D01*
X164024279Y-77479833D01*
X164252043Y-77534514D01*
X164261628Y-77536032D01*
X164495146Y-77554411D01*
X164504854Y-77554411D01*
X164738371Y-77536032D01*
X164747956Y-77534514D01*
X164975720Y-77479833D01*
X164984957Y-77476831D01*
X165201356Y-77387196D01*
X165210019Y-77382782D01*
X165409726Y-77260401D01*
X165417591Y-77254687D01*
X165433811Y-77240833D01*
X165441396Y-77229481D01*
X165434723Y-77217566D01*
X164511542Y-76294385D01*
X164500000Y-76287721D01*
X164488457Y-76294385D01*
X163565275Y-77217566D01*
X163558602Y-77229480D01*
X156697560Y-77229480D01*
X156694426Y-77200332D01*
X156690888Y-77185358D01*
X156646452Y-77066222D01*
X156638037Y-77050810D01*
X156562501Y-76949907D01*
X156550092Y-76937498D01*
X156449189Y-76861962D01*
X156433773Y-76853544D01*
X156422519Y-76849347D01*
X156372700Y-76815011D01*
X156345061Y-76761187D01*
X156346181Y-76700692D01*
X156375794Y-76647929D01*
X156426849Y-76615460D01*
X156519334Y-76584814D01*
X156668656Y-76492712D01*
X156792712Y-76368656D01*
X156798727Y-76358903D01*
X156843834Y-76315723D01*
X156904266Y-76300000D01*
X157390088Y-76300000D01*
X157400000Y-76300000D01*
X157797805Y-76004854D01*
X162945589Y-76004854D01*
X162963967Y-76238371D01*
X162965485Y-76247956D01*
X163020166Y-76475720D01*
X163023168Y-76484957D01*
X163112803Y-76701356D01*
X163117217Y-76710019D01*
X163239597Y-76909724D01*
X163245313Y-76917593D01*
X163259165Y-76933811D01*
X163270518Y-76941396D01*
X163282432Y-76934723D01*
X164205614Y-76011542D01*
X164212278Y-76000000D01*
X164787721Y-76000000D01*
X164794385Y-76011542D01*
X165717566Y-76934723D01*
X165729481Y-76941396D01*
X165740833Y-76933811D01*
X165754687Y-76917591D01*
X165760401Y-76909726D01*
X165882782Y-76710019D01*
X165887196Y-76701356D01*
X165976831Y-76484957D01*
X165979833Y-76475720D01*
X166034514Y-76247956D01*
X166036032Y-76238371D01*
X166054411Y-76004854D01*
X166054411Y-75995146D01*
X166036032Y-75761628D01*
X166034514Y-75752043D01*
X165979833Y-75524279D01*
X165976831Y-75515042D01*
X165887196Y-75298643D01*
X165882782Y-75289980D01*
X165760402Y-75090275D01*
X165754686Y-75082407D01*
X165740833Y-75066188D01*
X165729480Y-75058602D01*
X165717566Y-75065275D01*
X164794385Y-75988457D01*
X164787721Y-76000000D01*
X164212278Y-76000000D01*
X164205614Y-75988457D01*
X163282432Y-75065275D01*
X163270518Y-75058603D01*
X163259165Y-75066188D01*
X163245310Y-75082410D01*
X163239598Y-75090272D01*
X163117217Y-75289980D01*
X163112803Y-75298643D01*
X163023168Y-75515042D01*
X163020166Y-75524279D01*
X162965485Y-75752043D01*
X162963967Y-75761628D01*
X162945589Y-75995146D01*
X162945589Y-76004854D01*
X157797805Y-76004854D01*
X159461475Y-74770518D01*
X163558603Y-74770518D01*
X163565275Y-74782432D01*
X164488457Y-75705614D01*
X164500000Y-75712278D01*
X164511542Y-75705614D01*
X165434723Y-74782432D01*
X165441396Y-74770518D01*
X165433811Y-74759165D01*
X165417593Y-74745313D01*
X165409724Y-74739597D01*
X165210019Y-74617217D01*
X165201356Y-74612803D01*
X164984957Y-74523168D01*
X164975720Y-74520166D01*
X164747956Y-74465485D01*
X164738371Y-74463967D01*
X164504854Y-74445589D01*
X164495146Y-74445589D01*
X164261628Y-74463967D01*
X164252043Y-74465485D01*
X164024279Y-74520166D01*
X164015042Y-74523168D01*
X163798643Y-74612803D01*
X163789980Y-74617217D01*
X163590272Y-74739598D01*
X163582410Y-74745310D01*
X163566188Y-74759165D01*
X163558603Y-74770518D01*
X159461475Y-74770518D01*
X160467092Y-74024415D01*
X160502069Y-74006262D01*
X160540976Y-74000000D01*
X172548638Y-74000000D01*
X172596091Y-74009439D01*
G37*
G04 #@! TD.AperFunction*
M02*
