G04 #@! TF.GenerationSoftware,KiCad,Pcbnew,(7.0.0)*
G04 #@! TF.CreationDate,2023-05-21T08:53:19-04:00*
G04 #@! TF.ProjectId,Solenoid_Driver,536f6c65-6e6f-4696-945f-447269766572,V1.0*
G04 #@! TF.SameCoordinates,Original*
G04 #@! TF.FileFunction,Copper,L3,Inr*
G04 #@! TF.FilePolarity,Positive*
%FSLAX46Y46*%
G04 Gerber Fmt 4.6, Leading zero omitted, Abs format (unit mm)*
G04 Created by KiCad (PCBNEW (7.0.0)) date 2023-05-21 08:53:19*
%MOMM*%
%LPD*%
G01*
G04 APERTURE LIST*
G04 #@! TA.AperFunction,ComponentPad*
%ADD10C,2.100000*%
G04 #@! TD*
G04 #@! TA.AperFunction,ViaPad*
%ADD11C,0.800000*%
G04 #@! TD*
G04 APERTURE END LIST*
D10*
X128300000Y-83000000D03*
X128300000Y-78000000D03*
X164500000Y-85000000D03*
X164500000Y-90000000D03*
X128300000Y-98000000D03*
X128300000Y-93000000D03*
X164500000Y-99000000D03*
X164500000Y-104000000D03*
X164500000Y-71000000D03*
X164500000Y-76000000D03*
D11*
X158200000Y-73100000D03*
X158200000Y-71800000D03*
X158200000Y-70500000D03*
X158200000Y-69200000D03*
X157200000Y-69900000D03*
X157200000Y-71200000D03*
X157200000Y-72400000D03*
X145500000Y-64300000D03*
X143200000Y-65800000D03*
X152600000Y-74600000D03*
X158200000Y-79600000D03*
X170500000Y-91800000D03*
X170500000Y-95800000D03*
X170500000Y-77800000D03*
X170500000Y-99700000D03*
X158200000Y-77000000D03*
X170500000Y-93200000D03*
X141600000Y-109900000D03*
X134087500Y-65800000D03*
X170500000Y-76500000D03*
X170500000Y-75200000D03*
X170500000Y-89100000D03*
X170500000Y-98500000D03*
X170500000Y-94500000D03*
X170500000Y-79100000D03*
X158200000Y-78300000D03*
X141600000Y-105600000D03*
X170500000Y-90500000D03*
X170500000Y-97200000D03*
X170500000Y-84800000D03*
X151700000Y-101400000D03*
X151700000Y-68000000D03*
X151700000Y-102700000D03*
X158200000Y-86200000D03*
X151700000Y-69900000D03*
X147800000Y-69200000D03*
X151700000Y-71200000D03*
X170500000Y-82200000D03*
X147800000Y-100700000D03*
X158200000Y-83500000D03*
X158200000Y-84800000D03*
X147800000Y-71800000D03*
X147800000Y-102000000D03*
X170500000Y-86200000D03*
X147800000Y-103300000D03*
X147800000Y-70500000D03*
X158200000Y-82100000D03*
X151700000Y-99600000D03*
X170500000Y-83500000D03*
X157100000Y-104000000D03*
X158200000Y-102000000D03*
X157200000Y-101400000D03*
X157100000Y-105400000D03*
X157100000Y-102600000D03*
X158200000Y-103300000D03*
X158200000Y-104700000D03*
G04 #@! TA.AperFunction,Conductor*
G36*
X167896897Y-62208137D02*
G01*
X167935277Y-62231478D01*
X174358558Y-67963021D01*
X174389166Y-68004854D01*
X174400000Y-68055543D01*
X174400000Y-108240555D01*
X174387815Y-108294159D01*
X174353655Y-108337228D01*
X168334019Y-113172673D01*
X168297526Y-113192969D01*
X168256364Y-113200000D01*
X143864970Y-113200000D01*
X143807421Y-113185837D01*
X143763018Y-113146582D01*
X142922048Y-111931847D01*
X142905640Y-111898238D01*
X142900000Y-111861265D01*
X142900000Y-105532083D01*
X154645707Y-105532083D01*
X154645957Y-105535186D01*
X154645958Y-105535189D01*
X154657693Y-105680345D01*
X154657694Y-105680355D01*
X154657944Y-105683443D01*
X154666889Y-105732228D01*
X154709154Y-105878098D01*
X154712054Y-105883623D01*
X154712057Y-105883630D01*
X154778289Y-106009806D01*
X154778294Y-106009815D01*
X154779740Y-106012569D01*
X154807089Y-106053945D01*
X154809051Y-106056349D01*
X154809060Y-106056360D01*
X154901155Y-106169150D01*
X154901163Y-106169159D01*
X154903131Y-106171569D01*
X156129462Y-107397900D01*
X156243942Y-107491853D01*
X156284170Y-107518733D01*
X156414789Y-107588551D01*
X156556518Y-107631544D01*
X156603971Y-107640983D01*
X156606994Y-107641280D01*
X156606996Y-107641281D01*
X156642795Y-107644806D01*
X156751362Y-107655500D01*
X166645588Y-107655500D01*
X166648638Y-107655500D01*
X166796029Y-107640983D01*
X166843482Y-107631544D01*
X166985211Y-107588551D01*
X167115830Y-107518733D01*
X167156058Y-107491853D01*
X167270538Y-107397900D01*
X168197900Y-106470538D01*
X168291853Y-106356058D01*
X168318733Y-106315830D01*
X168388551Y-106185211D01*
X168431544Y-106043482D01*
X168440983Y-105996029D01*
X168455500Y-105848638D01*
X168455500Y-101855225D01*
X168438982Y-101698106D01*
X168428256Y-101647658D01*
X168379423Y-101497411D01*
X168300412Y-101360603D01*
X168270090Y-101318883D01*
X168164355Y-101201498D01*
X167240772Y-100370273D01*
X167130015Y-100287600D01*
X167118951Y-100280822D01*
X167093907Y-100265480D01*
X167093893Y-100265472D01*
X167091488Y-100263999D01*
X167070443Y-100253624D01*
X166972608Y-100205393D01*
X166972601Y-100205390D01*
X166967513Y-100202882D01*
X166962047Y-100201340D01*
X166962042Y-100201339D01*
X166837208Y-100166143D01*
X166837188Y-100166138D01*
X166834477Y-100165374D01*
X166831698Y-100164859D01*
X166831689Y-100164857D01*
X166792854Y-100157662D01*
X166792850Y-100157661D01*
X166790052Y-100157143D01*
X166787211Y-100156882D01*
X166655249Y-100144760D01*
X166655245Y-100144759D01*
X166652417Y-100144500D01*
X166649574Y-100144500D01*
X166133036Y-100144500D01*
X166071036Y-100127887D01*
X166025649Y-100082500D01*
X166009036Y-100020500D01*
X166025649Y-99958501D01*
X166124419Y-99787424D01*
X166124420Y-99787419D01*
X166126743Y-99783398D01*
X166159475Y-99700000D01*
X169344571Y-99700000D01*
X169364244Y-99912310D01*
X169365812Y-99917821D01*
X169365814Y-99917831D01*
X169421024Y-100111870D01*
X169421026Y-100111876D01*
X169422595Y-100117389D01*
X169446871Y-100166143D01*
X169507734Y-100288374D01*
X169517634Y-100308255D01*
X169521086Y-100312826D01*
X169613661Y-100435415D01*
X169646128Y-100478407D01*
X169803698Y-100622052D01*
X169984981Y-100734298D01*
X170183802Y-100811321D01*
X170393390Y-100850500D01*
X170600881Y-100850500D01*
X170606610Y-100850500D01*
X170816198Y-100811321D01*
X171015019Y-100734298D01*
X171196302Y-100622052D01*
X171353872Y-100478407D01*
X171482366Y-100308255D01*
X171577405Y-100117389D01*
X171635756Y-99912310D01*
X171655429Y-99700000D01*
X171635756Y-99487690D01*
X171577405Y-99282611D01*
X171513996Y-99155268D01*
X171500997Y-99099998D01*
X171513995Y-99044731D01*
X171577405Y-98917389D01*
X171635756Y-98712310D01*
X171655429Y-98500000D01*
X171635756Y-98287690D01*
X171577405Y-98082611D01*
X171489099Y-97905267D01*
X171476101Y-97849999D01*
X171489100Y-97794730D01*
X171577405Y-97617389D01*
X171635756Y-97412310D01*
X171655429Y-97200000D01*
X171635756Y-96987690D01*
X171577405Y-96782611D01*
X171482366Y-96591745D01*
X171469514Y-96574727D01*
X171447339Y-96526528D01*
X171447339Y-96473472D01*
X171469515Y-96425272D01*
X171469516Y-96425271D01*
X171482366Y-96408255D01*
X171577405Y-96217389D01*
X171635756Y-96012310D01*
X171655429Y-95800000D01*
X171635756Y-95587690D01*
X171577405Y-95382611D01*
X171489100Y-95205270D01*
X171476101Y-95150000D01*
X171489101Y-95094729D01*
X171577405Y-94917389D01*
X171635756Y-94712310D01*
X171655429Y-94500000D01*
X171635756Y-94287690D01*
X171577405Y-94082611D01*
X171489100Y-93905270D01*
X171476101Y-93850000D01*
X171489101Y-93794729D01*
X171577405Y-93617389D01*
X171635756Y-93412310D01*
X171655429Y-93200000D01*
X171635756Y-92987690D01*
X171577405Y-92782611D01*
X171482366Y-92591745D01*
X171469514Y-92574727D01*
X171447339Y-92526528D01*
X171447339Y-92473472D01*
X171469515Y-92425272D01*
X171469516Y-92425271D01*
X171482366Y-92408255D01*
X171577405Y-92217389D01*
X171635756Y-92012310D01*
X171655429Y-91800000D01*
X171635756Y-91587690D01*
X171577405Y-91382611D01*
X171489099Y-91205267D01*
X171476101Y-91149999D01*
X171489100Y-91094730D01*
X171577405Y-90917389D01*
X171635756Y-90712310D01*
X171655429Y-90500000D01*
X171635756Y-90287690D01*
X171630467Y-90269103D01*
X171578975Y-90088129D01*
X171577405Y-90082611D01*
X171482366Y-89891745D01*
X171469514Y-89874727D01*
X171447339Y-89826528D01*
X171447339Y-89773472D01*
X171469515Y-89725272D01*
X171482366Y-89708255D01*
X171577405Y-89517389D01*
X171635756Y-89312310D01*
X171655429Y-89100000D01*
X171635756Y-88887690D01*
X171577405Y-88682611D01*
X171482366Y-88491745D01*
X171353872Y-88321593D01*
X171263303Y-88239028D01*
X171200531Y-88181803D01*
X171200529Y-88181801D01*
X171196302Y-88177948D01*
X171191438Y-88174936D01*
X171191435Y-88174934D01*
X171019890Y-88068718D01*
X171019889Y-88068717D01*
X171015019Y-88065702D01*
X171009681Y-88063634D01*
X171009677Y-88063632D01*
X170821545Y-87990750D01*
X170821540Y-87990748D01*
X170816198Y-87988679D01*
X170810560Y-87987625D01*
X170612239Y-87950552D01*
X170612236Y-87950551D01*
X170606610Y-87949500D01*
X170393390Y-87949500D01*
X170387764Y-87950551D01*
X170387760Y-87950552D01*
X170189439Y-87987625D01*
X170189436Y-87987625D01*
X170183802Y-87988679D01*
X170178461Y-87990747D01*
X170178454Y-87990750D01*
X169990322Y-88063632D01*
X169990313Y-88063636D01*
X169984981Y-88065702D01*
X169980114Y-88068715D01*
X169980109Y-88068718D01*
X169808564Y-88174934D01*
X169808555Y-88174940D01*
X169803698Y-88177948D01*
X169799475Y-88181797D01*
X169799468Y-88181803D01*
X169650360Y-88317734D01*
X169650354Y-88317739D01*
X169646128Y-88321593D01*
X169642681Y-88326156D01*
X169642675Y-88326164D01*
X169521086Y-88487173D01*
X169521083Y-88487177D01*
X169517634Y-88491745D01*
X169515082Y-88496870D01*
X169515079Y-88496875D01*
X169469523Y-88588365D01*
X169422595Y-88682611D01*
X169421027Y-88688119D01*
X169421024Y-88688129D01*
X169365814Y-88882168D01*
X169365811Y-88882179D01*
X169364244Y-88887690D01*
X169363714Y-88893400D01*
X169363714Y-88893405D01*
X169345100Y-89094291D01*
X169344571Y-89100000D01*
X169345100Y-89105709D01*
X169355375Y-89216602D01*
X169364244Y-89312310D01*
X169365812Y-89317821D01*
X169365814Y-89317831D01*
X169421024Y-89511870D01*
X169421026Y-89511876D01*
X169422595Y-89517389D01*
X169517634Y-89708255D01*
X169521086Y-89712826D01*
X169521089Y-89712831D01*
X169530486Y-89725275D01*
X169552660Y-89773473D01*
X169552660Y-89826527D01*
X169530486Y-89874725D01*
X169521089Y-89887168D01*
X169521082Y-89887178D01*
X169517634Y-89891745D01*
X169515082Y-89896870D01*
X169515079Y-89896875D01*
X169461424Y-90004631D01*
X169422595Y-90082611D01*
X169421027Y-90088119D01*
X169421024Y-90088129D01*
X169365814Y-90282168D01*
X169365811Y-90282179D01*
X169364244Y-90287690D01*
X169344571Y-90500000D01*
X169364244Y-90712310D01*
X169365812Y-90717821D01*
X169365814Y-90717831D01*
X169421024Y-90911870D01*
X169421026Y-90911876D01*
X169422595Y-90917389D01*
X169510899Y-91094730D01*
X169523898Y-91149999D01*
X169510899Y-91205269D01*
X169425151Y-91377477D01*
X169422595Y-91382611D01*
X169421027Y-91388119D01*
X169421024Y-91388129D01*
X169365814Y-91582168D01*
X169365811Y-91582179D01*
X169364244Y-91587690D01*
X169363714Y-91593400D01*
X169363714Y-91593405D01*
X169348187Y-91760971D01*
X169344571Y-91800000D01*
X169364244Y-92012310D01*
X169365812Y-92017821D01*
X169365814Y-92017831D01*
X169421024Y-92211870D01*
X169421026Y-92211876D01*
X169422595Y-92217389D01*
X169517634Y-92408255D01*
X169530484Y-92425271D01*
X169552660Y-92473468D01*
X169552661Y-92526523D01*
X169530488Y-92574721D01*
X169521091Y-92587165D01*
X169521083Y-92587177D01*
X169517634Y-92591745D01*
X169515082Y-92596870D01*
X169515079Y-92596875D01*
X169515074Y-92596886D01*
X169422595Y-92782611D01*
X169421027Y-92788119D01*
X169421024Y-92788129D01*
X169365814Y-92982168D01*
X169365811Y-92982179D01*
X169364244Y-92987690D01*
X169344571Y-93200000D01*
X169364244Y-93412310D01*
X169365812Y-93417821D01*
X169365814Y-93417831D01*
X169421024Y-93611870D01*
X169421026Y-93611876D01*
X169422595Y-93617389D01*
X169425153Y-93622526D01*
X169510899Y-93794729D01*
X169523898Y-93850000D01*
X169510899Y-93905270D01*
X169422595Y-94082611D01*
X169421027Y-94088119D01*
X169421024Y-94088129D01*
X169365814Y-94282168D01*
X169365811Y-94282179D01*
X169364244Y-94287690D01*
X169344571Y-94500000D01*
X169364244Y-94712310D01*
X169365812Y-94717821D01*
X169365814Y-94717831D01*
X169421024Y-94911870D01*
X169421026Y-94911876D01*
X169422595Y-94917389D01*
X169425153Y-94922526D01*
X169510899Y-95094729D01*
X169523898Y-95150000D01*
X169510899Y-95205270D01*
X169422595Y-95382611D01*
X169421027Y-95388119D01*
X169421024Y-95388129D01*
X169365814Y-95582168D01*
X169365811Y-95582179D01*
X169364244Y-95587690D01*
X169344571Y-95800000D01*
X169364244Y-96012310D01*
X169365812Y-96017821D01*
X169365814Y-96017831D01*
X169421024Y-96211870D01*
X169421026Y-96211876D01*
X169422595Y-96217389D01*
X169517634Y-96408255D01*
X169530484Y-96425271D01*
X169552660Y-96473468D01*
X169552661Y-96526523D01*
X169530488Y-96574721D01*
X169521091Y-96587165D01*
X169521083Y-96587177D01*
X169517634Y-96591745D01*
X169515082Y-96596870D01*
X169515079Y-96596875D01*
X169515074Y-96596886D01*
X169422595Y-96782611D01*
X169421027Y-96788119D01*
X169421024Y-96788129D01*
X169365814Y-96982168D01*
X169365811Y-96982179D01*
X169364244Y-96987690D01*
X169344571Y-97200000D01*
X169345100Y-97205709D01*
X169348251Y-97239720D01*
X169364244Y-97412310D01*
X169365812Y-97417821D01*
X169365814Y-97417831D01*
X169421024Y-97611870D01*
X169421026Y-97611876D01*
X169422595Y-97617389D01*
X169510899Y-97794730D01*
X169523898Y-97849999D01*
X169510899Y-97905269D01*
X169425151Y-98077477D01*
X169422595Y-98082611D01*
X169421027Y-98088119D01*
X169421024Y-98088129D01*
X169365814Y-98282168D01*
X169365811Y-98282179D01*
X169364244Y-98287690D01*
X169344571Y-98500000D01*
X169364244Y-98712310D01*
X169365812Y-98717821D01*
X169365814Y-98717831D01*
X169421024Y-98911870D01*
X169421026Y-98911876D01*
X169422595Y-98917389D01*
X169486002Y-99044730D01*
X169499001Y-99099998D01*
X169486002Y-99155268D01*
X169425151Y-99277474D01*
X169425144Y-99277490D01*
X169422595Y-99282611D01*
X169421027Y-99288121D01*
X169421025Y-99288127D01*
X169365814Y-99482168D01*
X169365811Y-99482179D01*
X169364244Y-99487690D01*
X169363714Y-99493400D01*
X169363714Y-99493405D01*
X169360120Y-99532195D01*
X169344571Y-99700000D01*
X166159475Y-99700000D01*
X166225334Y-99532195D01*
X166285383Y-99269103D01*
X166305549Y-99000000D01*
X166285383Y-98730897D01*
X166225334Y-98467805D01*
X166126743Y-98216602D01*
X165991815Y-97982898D01*
X165823561Y-97771915D01*
X165662548Y-97622517D01*
X165629146Y-97591524D01*
X165629143Y-97591521D01*
X165625741Y-97588365D01*
X165621912Y-97585754D01*
X165621909Y-97585752D01*
X165406610Y-97438964D01*
X165402775Y-97436349D01*
X165364322Y-97417831D01*
X165163820Y-97321274D01*
X165163814Y-97321271D01*
X165159641Y-97319262D01*
X165155219Y-97317898D01*
X165155209Y-97317894D01*
X164906202Y-97241086D01*
X164906196Y-97241084D01*
X164901772Y-97239720D01*
X164897195Y-97239030D01*
X164897186Y-97239028D01*
X164639514Y-97200191D01*
X164639513Y-97200190D01*
X164634929Y-97199500D01*
X164365071Y-97199500D01*
X164360487Y-97200190D01*
X164360485Y-97200191D01*
X164102813Y-97239028D01*
X164102801Y-97239030D01*
X164098228Y-97239720D01*
X164093806Y-97241083D01*
X164093797Y-97241086D01*
X163844790Y-97317894D01*
X163844775Y-97317899D01*
X163840359Y-97319262D01*
X163836185Y-97321271D01*
X163836180Y-97321274D01*
X163601411Y-97434333D01*
X163601404Y-97434336D01*
X163597226Y-97436349D01*
X163593393Y-97438962D01*
X163593390Y-97438964D01*
X163378090Y-97585752D01*
X163378080Y-97585759D01*
X163374259Y-97588365D01*
X163370863Y-97591516D01*
X163370853Y-97591524D01*
X163179843Y-97768756D01*
X163179839Y-97768759D01*
X163176439Y-97771915D01*
X163173549Y-97775537D01*
X163173546Y-97775542D01*
X163011077Y-97979271D01*
X163008185Y-97982898D01*
X163005866Y-97986913D01*
X163005865Y-97986916D01*
X162875578Y-98212581D01*
X162875575Y-98212586D01*
X162873257Y-98216602D01*
X162871563Y-98220916D01*
X162871561Y-98220922D01*
X162776363Y-98463480D01*
X162774666Y-98467805D01*
X162773633Y-98472326D01*
X162773632Y-98472333D01*
X162715648Y-98726377D01*
X162715646Y-98726385D01*
X162714617Y-98730897D01*
X162694451Y-99000000D01*
X162694798Y-99004631D01*
X162708161Y-99182959D01*
X162714617Y-99269103D01*
X162715647Y-99273616D01*
X162715648Y-99273622D01*
X162764508Y-99487690D01*
X162774666Y-99532195D01*
X162873257Y-99783398D01*
X162875572Y-99787409D01*
X162875580Y-99787424D01*
X162974351Y-99958501D01*
X162990964Y-100020500D01*
X162974351Y-100082500D01*
X162928964Y-100127887D01*
X162866964Y-100144500D01*
X162764300Y-100144500D01*
X162716847Y-100135061D01*
X162676619Y-100108181D01*
X161872682Y-99304244D01*
X161872682Y-99304243D01*
X161870538Y-99302100D01*
X161840530Y-99277473D01*
X161758395Y-99210065D01*
X161756058Y-99208147D01*
X161753549Y-99206471D01*
X161753543Y-99206466D01*
X161718362Y-99182959D01*
X161715830Y-99181267D01*
X161679850Y-99162035D01*
X161590585Y-99114321D01*
X161590580Y-99114319D01*
X161585211Y-99111449D01*
X161443482Y-99068456D01*
X161440491Y-99067861D01*
X161440487Y-99067860D01*
X161399015Y-99059611D01*
X161396029Y-99059017D01*
X161393022Y-99058720D01*
X161393003Y-99058718D01*
X161251671Y-99044798D01*
X161251656Y-99044797D01*
X161248638Y-99044500D01*
X156447145Y-99044500D01*
X156444365Y-99044753D01*
X156444346Y-99044754D01*
X156313462Y-99056674D01*
X156313440Y-99056676D01*
X156310662Y-99056930D01*
X156307915Y-99057434D01*
X156307897Y-99057437D01*
X156269360Y-99064515D01*
X156269335Y-99064520D01*
X156266595Y-99065024D01*
X156263904Y-99065775D01*
X156263882Y-99065781D01*
X156140019Y-99100392D01*
X156140008Y-99100396D01*
X156134594Y-99101909D01*
X156129542Y-99104374D01*
X156129532Y-99104379D01*
X156013960Y-99160799D01*
X156013944Y-99160807D01*
X156011430Y-99162035D01*
X156009030Y-99163489D01*
X156009017Y-99163497D01*
X155982077Y-99179829D01*
X155973115Y-99185262D01*
X155970869Y-99186919D01*
X155970861Y-99186925D01*
X155865096Y-99264984D01*
X155865082Y-99264995D01*
X155862836Y-99266653D01*
X155860745Y-99268511D01*
X155860731Y-99268523D01*
X155040968Y-99997201D01*
X155040954Y-99997214D01*
X155038580Y-99999325D01*
X155036431Y-100001672D01*
X155036418Y-100001686D01*
X154935832Y-100111598D01*
X154935820Y-100111611D01*
X154933668Y-100113964D01*
X154931761Y-100116534D01*
X154931758Y-100116539D01*
X154905356Y-100152140D01*
X154905348Y-100152151D01*
X154903448Y-100154714D01*
X154901822Y-100157456D01*
X154901818Y-100157463D01*
X154837789Y-100265480D01*
X154824218Y-100288374D01*
X154822154Y-100294415D01*
X154822152Y-100294422D01*
X154775037Y-100432396D01*
X154775032Y-100432412D01*
X154774007Y-100435415D01*
X154773293Y-100438516D01*
X154773291Y-100438526D01*
X154763351Y-100481747D01*
X154763348Y-100481759D01*
X154762636Y-100484859D01*
X154762246Y-100488008D01*
X154762244Y-100488023D01*
X154746149Y-100618196D01*
X154743567Y-100639080D01*
X154743503Y-100642266D01*
X154743503Y-100642270D01*
X154732270Y-101203906D01*
X154701871Y-102723871D01*
X154676553Y-103989747D01*
X154651430Y-105245913D01*
X154651430Y-105245914D01*
X154645707Y-105532083D01*
X142900000Y-105532083D01*
X142900000Y-90000000D01*
X162694451Y-90000000D01*
X162714617Y-90269103D01*
X162715647Y-90273616D01*
X162715648Y-90273622D01*
X162773632Y-90527666D01*
X162774666Y-90532195D01*
X162776362Y-90536518D01*
X162776363Y-90536519D01*
X162847523Y-90717831D01*
X162873257Y-90783398D01*
X163008185Y-91017102D01*
X163176439Y-91228085D01*
X163179843Y-91231243D01*
X163348925Y-91388129D01*
X163374259Y-91411635D01*
X163597226Y-91563651D01*
X163840359Y-91680738D01*
X163844787Y-91682103D01*
X163844790Y-91682105D01*
X163969293Y-91720508D01*
X164098228Y-91760280D01*
X164365071Y-91800500D01*
X164630292Y-91800500D01*
X164634929Y-91800500D01*
X164901772Y-91760280D01*
X165159641Y-91680738D01*
X165402775Y-91563651D01*
X165625741Y-91411635D01*
X165823561Y-91228085D01*
X165991815Y-91017102D01*
X166126743Y-90783398D01*
X166225334Y-90532195D01*
X166285383Y-90269103D01*
X166305549Y-90000000D01*
X166285383Y-89730897D01*
X166225334Y-89467805D01*
X166126743Y-89216602D01*
X165991815Y-88982898D01*
X165823561Y-88771915D01*
X165625741Y-88588365D01*
X165621912Y-88585754D01*
X165621909Y-88585752D01*
X165406610Y-88438964D01*
X165402775Y-88436349D01*
X165398589Y-88434333D01*
X165163820Y-88321274D01*
X165163814Y-88321271D01*
X165159641Y-88319262D01*
X165155219Y-88317898D01*
X165155209Y-88317894D01*
X164906202Y-88241086D01*
X164906196Y-88241084D01*
X164901772Y-88239720D01*
X164897195Y-88239030D01*
X164897186Y-88239028D01*
X164639514Y-88200191D01*
X164639513Y-88200190D01*
X164634929Y-88199500D01*
X164365071Y-88199500D01*
X164360487Y-88200190D01*
X164360485Y-88200191D01*
X164102813Y-88239028D01*
X164102801Y-88239030D01*
X164098228Y-88239720D01*
X164093806Y-88241083D01*
X164093797Y-88241086D01*
X163844790Y-88317894D01*
X163844775Y-88317899D01*
X163840359Y-88319262D01*
X163836185Y-88321271D01*
X163836180Y-88321274D01*
X163601411Y-88434333D01*
X163601404Y-88434336D01*
X163597226Y-88436349D01*
X163593393Y-88438962D01*
X163593390Y-88438964D01*
X163378090Y-88585752D01*
X163378080Y-88585759D01*
X163374259Y-88588365D01*
X163370863Y-88591516D01*
X163370853Y-88591524D01*
X163179843Y-88768756D01*
X163179839Y-88768759D01*
X163176439Y-88771915D01*
X163173549Y-88775537D01*
X163173546Y-88775542D01*
X163011077Y-88979271D01*
X163008185Y-88982898D01*
X163005866Y-88986913D01*
X163005865Y-88986916D01*
X162875578Y-89212581D01*
X162875575Y-89212586D01*
X162873257Y-89216602D01*
X162871563Y-89220916D01*
X162871561Y-89220922D01*
X162833527Y-89317831D01*
X162774666Y-89467805D01*
X162773633Y-89472326D01*
X162773632Y-89472333D01*
X162715648Y-89726377D01*
X162715646Y-89726385D01*
X162714617Y-89730897D01*
X162714270Y-89735516D01*
X162714270Y-89735522D01*
X162702907Y-89887162D01*
X162694451Y-90000000D01*
X142900000Y-90000000D01*
X142900000Y-86261020D01*
X163596068Y-86261020D01*
X163604045Y-86268841D01*
X163789980Y-86382782D01*
X163798643Y-86387196D01*
X164015042Y-86476831D01*
X164024279Y-86479833D01*
X164252043Y-86534514D01*
X164261628Y-86536032D01*
X164495146Y-86554411D01*
X164504854Y-86554411D01*
X164738371Y-86536032D01*
X164747956Y-86534514D01*
X164975720Y-86479833D01*
X164984957Y-86476831D01*
X165201356Y-86387196D01*
X165210019Y-86382782D01*
X165395953Y-86268841D01*
X165403930Y-86261020D01*
X165397999Y-86251552D01*
X164511542Y-85365095D01*
X164500000Y-85358431D01*
X164488457Y-85365095D01*
X163601999Y-86251552D01*
X163596068Y-86261020D01*
X142900000Y-86261020D01*
X142900000Y-85004854D01*
X162945589Y-85004854D01*
X162963967Y-85238371D01*
X162965485Y-85247956D01*
X163020166Y-85475720D01*
X163023168Y-85484957D01*
X163112803Y-85701356D01*
X163117217Y-85710019D01*
X163231157Y-85895953D01*
X163238978Y-85903930D01*
X163248446Y-85897999D01*
X164134904Y-85011542D01*
X164141568Y-85000000D01*
X164858431Y-85000000D01*
X164865095Y-85011542D01*
X165751552Y-85897999D01*
X165761020Y-85903930D01*
X165768841Y-85895953D01*
X165882782Y-85710019D01*
X165887196Y-85701356D01*
X165976831Y-85484957D01*
X165979833Y-85475720D01*
X166034514Y-85247956D01*
X166036032Y-85238371D01*
X166054411Y-85004854D01*
X166054411Y-84995146D01*
X166036032Y-84761628D01*
X166034514Y-84752043D01*
X165979833Y-84524279D01*
X165976831Y-84515042D01*
X165887196Y-84298643D01*
X165882782Y-84289980D01*
X165768841Y-84104045D01*
X165761020Y-84096068D01*
X165751552Y-84101999D01*
X164865095Y-84988457D01*
X164858431Y-85000000D01*
X164141568Y-85000000D01*
X164134904Y-84988457D01*
X163248446Y-84101999D01*
X163238978Y-84096068D01*
X163231157Y-84104044D01*
X163117212Y-84289988D01*
X163112806Y-84298636D01*
X163023168Y-84515042D01*
X163020166Y-84524279D01*
X162965485Y-84752043D01*
X162963967Y-84761628D01*
X162945589Y-84995146D01*
X162945589Y-85004854D01*
X142900000Y-85004854D01*
X142900000Y-83738978D01*
X163596068Y-83738978D01*
X163601999Y-83748446D01*
X164488457Y-84634904D01*
X164499999Y-84641568D01*
X164511542Y-84634904D01*
X165397999Y-83748446D01*
X165403930Y-83738978D01*
X165395953Y-83731157D01*
X165210019Y-83617217D01*
X165201356Y-83612803D01*
X164984957Y-83523168D01*
X164975720Y-83520166D01*
X164747956Y-83465485D01*
X164738371Y-83463967D01*
X164504854Y-83445589D01*
X164495146Y-83445589D01*
X164261628Y-83463967D01*
X164252043Y-83465485D01*
X164024279Y-83520166D01*
X164015042Y-83523168D01*
X163798636Y-83612806D01*
X163789988Y-83617212D01*
X163604044Y-83731157D01*
X163596068Y-83738978D01*
X142900000Y-83738978D01*
X142900000Y-79600000D01*
X157044571Y-79600000D01*
X157045100Y-79605709D01*
X157055025Y-79712826D01*
X157064244Y-79812310D01*
X157065812Y-79817821D01*
X157065814Y-79817831D01*
X157121024Y-80011870D01*
X157121026Y-80011876D01*
X157122595Y-80017389D01*
X157217634Y-80208255D01*
X157346128Y-80378407D01*
X157503698Y-80522052D01*
X157684981Y-80634298D01*
X157883802Y-80711321D01*
X158093390Y-80750500D01*
X158300881Y-80750500D01*
X158306610Y-80750500D01*
X158516198Y-80711321D01*
X158715019Y-80634298D01*
X158896302Y-80522052D01*
X159053872Y-80378407D01*
X159182366Y-80208255D01*
X159277405Y-80017389D01*
X159335756Y-79812310D01*
X159355429Y-79600000D01*
X159335756Y-79387690D01*
X159277405Y-79182611D01*
X159236270Y-79100000D01*
X169344571Y-79100000D01*
X169345100Y-79105709D01*
X169351750Y-79177482D01*
X169364244Y-79312310D01*
X169365812Y-79317821D01*
X169365814Y-79317831D01*
X169421024Y-79511870D01*
X169421026Y-79511876D01*
X169422595Y-79517389D01*
X169517634Y-79708255D01*
X169646128Y-79878407D01*
X169803698Y-80022052D01*
X169984981Y-80134298D01*
X170183802Y-80211321D01*
X170393390Y-80250500D01*
X170600881Y-80250500D01*
X170606610Y-80250500D01*
X170816198Y-80211321D01*
X171015019Y-80134298D01*
X171196302Y-80022052D01*
X171353872Y-79878407D01*
X171482366Y-79708255D01*
X171577405Y-79517389D01*
X171635756Y-79312310D01*
X171655429Y-79100000D01*
X171635756Y-78887690D01*
X171577405Y-78682611D01*
X171489100Y-78505270D01*
X171476101Y-78450000D01*
X171489101Y-78394729D01*
X171533427Y-78305709D01*
X171577405Y-78217389D01*
X171635756Y-78012310D01*
X171655429Y-77800000D01*
X171635756Y-77587690D01*
X171577405Y-77382611D01*
X171489099Y-77205267D01*
X171476101Y-77149999D01*
X171489100Y-77094730D01*
X171577405Y-76917389D01*
X171635756Y-76712310D01*
X171655429Y-76500000D01*
X171635756Y-76287690D01*
X171630467Y-76269103D01*
X171578975Y-76088129D01*
X171577405Y-76082611D01*
X171489099Y-75905267D01*
X171476101Y-75849999D01*
X171489100Y-75794730D01*
X171577405Y-75617389D01*
X171635756Y-75412310D01*
X171655429Y-75200000D01*
X171635756Y-74987690D01*
X171620121Y-74932741D01*
X171578975Y-74788129D01*
X171577405Y-74782611D01*
X171482366Y-74591745D01*
X171353872Y-74421593D01*
X171349639Y-74417734D01*
X171200531Y-74281803D01*
X171200529Y-74281801D01*
X171196302Y-74277948D01*
X171191438Y-74274936D01*
X171191435Y-74274934D01*
X171019890Y-74168718D01*
X171019889Y-74168717D01*
X171015019Y-74165702D01*
X171009681Y-74163634D01*
X171009677Y-74163632D01*
X170821545Y-74090750D01*
X170821540Y-74090748D01*
X170816198Y-74088679D01*
X170792548Y-74084258D01*
X170612239Y-74050552D01*
X170612236Y-74050551D01*
X170606610Y-74049500D01*
X170393390Y-74049500D01*
X170387764Y-74050551D01*
X170387760Y-74050552D01*
X170189439Y-74087625D01*
X170189436Y-74087625D01*
X170183802Y-74088679D01*
X170178461Y-74090747D01*
X170178454Y-74090750D01*
X169990322Y-74163632D01*
X169990313Y-74163636D01*
X169984981Y-74165702D01*
X169980114Y-74168715D01*
X169980109Y-74168718D01*
X169808564Y-74274934D01*
X169808555Y-74274940D01*
X169803698Y-74277948D01*
X169799475Y-74281797D01*
X169799468Y-74281803D01*
X169650360Y-74417734D01*
X169650354Y-74417739D01*
X169646128Y-74421593D01*
X169642681Y-74426156D01*
X169642675Y-74426164D01*
X169521086Y-74587173D01*
X169521083Y-74587177D01*
X169517634Y-74591745D01*
X169515082Y-74596870D01*
X169515079Y-74596875D01*
X169427921Y-74771915D01*
X169422595Y-74782611D01*
X169421027Y-74788119D01*
X169421024Y-74788129D01*
X169365814Y-74982168D01*
X169365811Y-74982179D01*
X169364244Y-74987690D01*
X169363714Y-74993400D01*
X169363714Y-74993405D01*
X169350012Y-75141281D01*
X169344571Y-75200000D01*
X169364244Y-75412310D01*
X169365812Y-75417821D01*
X169365814Y-75417831D01*
X169421024Y-75611870D01*
X169421026Y-75611876D01*
X169422595Y-75617389D01*
X169510899Y-75794730D01*
X169523898Y-75849999D01*
X169510899Y-75905269D01*
X169425151Y-76077477D01*
X169422595Y-76082611D01*
X169421027Y-76088119D01*
X169421024Y-76088129D01*
X169365814Y-76282168D01*
X169365811Y-76282179D01*
X169364244Y-76287690D01*
X169344571Y-76500000D01*
X169364244Y-76712310D01*
X169365812Y-76717821D01*
X169365814Y-76717831D01*
X169421024Y-76911870D01*
X169421026Y-76911876D01*
X169422595Y-76917389D01*
X169510899Y-77094730D01*
X169523898Y-77149999D01*
X169510899Y-77205269D01*
X169425151Y-77377477D01*
X169422595Y-77382611D01*
X169421027Y-77388119D01*
X169421024Y-77388129D01*
X169365814Y-77582168D01*
X169365811Y-77582179D01*
X169364244Y-77587690D01*
X169363714Y-77593400D01*
X169363714Y-77593405D01*
X169348187Y-77760971D01*
X169344571Y-77800000D01*
X169345100Y-77805709D01*
X169351750Y-77877482D01*
X169364244Y-78012310D01*
X169365812Y-78017821D01*
X169365814Y-78017831D01*
X169421024Y-78211870D01*
X169421026Y-78211876D01*
X169422595Y-78217389D01*
X169463730Y-78300000D01*
X169510899Y-78394729D01*
X169523898Y-78450000D01*
X169510899Y-78505270D01*
X169422595Y-78682611D01*
X169421027Y-78688119D01*
X169421024Y-78688129D01*
X169365814Y-78882168D01*
X169365811Y-78882179D01*
X169364244Y-78887690D01*
X169363714Y-78893400D01*
X169363714Y-78893405D01*
X169362338Y-78908255D01*
X169344571Y-79100000D01*
X159236270Y-79100000D01*
X159189100Y-79005270D01*
X159176101Y-78950000D01*
X159189101Y-78894729D01*
X159192606Y-78887690D01*
X159277405Y-78717389D01*
X159335756Y-78512310D01*
X159355429Y-78300000D01*
X159335756Y-78087690D01*
X159277405Y-77882611D01*
X159189100Y-77705270D01*
X159176101Y-77650000D01*
X159189101Y-77594729D01*
X159192606Y-77587690D01*
X159277405Y-77417389D01*
X159335756Y-77212310D01*
X159355429Y-77000000D01*
X159335756Y-76787690D01*
X159333305Y-76779077D01*
X159278975Y-76588129D01*
X159277405Y-76582611D01*
X159182366Y-76391745D01*
X159053872Y-76221593D01*
X158896302Y-76077948D01*
X158891438Y-76074936D01*
X158891435Y-76074934D01*
X158719890Y-75968718D01*
X158719889Y-75968717D01*
X158715019Y-75965702D01*
X158709681Y-75963634D01*
X158709677Y-75963632D01*
X158521545Y-75890750D01*
X158521540Y-75890748D01*
X158516198Y-75888679D01*
X158510560Y-75887625D01*
X158312239Y-75850552D01*
X158312236Y-75850551D01*
X158306610Y-75849500D01*
X158093390Y-75849500D01*
X158087764Y-75850551D01*
X158087760Y-75850552D01*
X157889439Y-75887625D01*
X157889436Y-75887625D01*
X157883802Y-75888679D01*
X157878461Y-75890747D01*
X157878454Y-75890750D01*
X157690322Y-75963632D01*
X157690313Y-75963636D01*
X157684981Y-75965702D01*
X157680114Y-75968715D01*
X157680109Y-75968718D01*
X157508564Y-76074934D01*
X157508555Y-76074940D01*
X157503698Y-76077948D01*
X157499475Y-76081797D01*
X157499468Y-76081803D01*
X157350360Y-76217734D01*
X157350354Y-76217739D01*
X157346128Y-76221593D01*
X157342681Y-76226156D01*
X157342675Y-76226164D01*
X157221086Y-76387173D01*
X157221083Y-76387177D01*
X157217634Y-76391745D01*
X157215082Y-76396870D01*
X157215079Y-76396875D01*
X157125153Y-76577473D01*
X157122595Y-76582611D01*
X157121027Y-76588119D01*
X157121024Y-76588129D01*
X157065814Y-76782168D01*
X157065811Y-76782179D01*
X157064244Y-76787690D01*
X157044571Y-77000000D01*
X157045100Y-77005709D01*
X157063591Y-77205270D01*
X157064244Y-77212310D01*
X157065812Y-77217821D01*
X157065814Y-77217831D01*
X157121024Y-77411870D01*
X157121026Y-77411876D01*
X157122595Y-77417389D01*
X157204644Y-77582168D01*
X157210899Y-77594729D01*
X157223898Y-77650000D01*
X157210899Y-77705270D01*
X157122595Y-77882611D01*
X157121027Y-77888119D01*
X157121024Y-77888129D01*
X157065814Y-78082168D01*
X157065811Y-78082179D01*
X157064244Y-78087690D01*
X157044571Y-78300000D01*
X157045100Y-78305709D01*
X157063591Y-78505271D01*
X157064244Y-78512310D01*
X157065812Y-78517821D01*
X157065814Y-78517831D01*
X157121024Y-78711870D01*
X157121026Y-78711876D01*
X157122595Y-78717389D01*
X157125153Y-78722526D01*
X157210899Y-78894729D01*
X157223898Y-78950000D01*
X157210899Y-79005270D01*
X157122595Y-79182611D01*
X157121027Y-79188119D01*
X157121024Y-79188129D01*
X157065814Y-79382168D01*
X157065811Y-79382179D01*
X157064244Y-79387690D01*
X157044571Y-79600000D01*
X142900000Y-79600000D01*
X142900000Y-74600000D01*
X151444571Y-74600000D01*
X151445100Y-74605709D01*
X151463687Y-74806306D01*
X151464244Y-74812310D01*
X151465812Y-74817821D01*
X151465814Y-74817831D01*
X151521024Y-75011870D01*
X151521026Y-75011876D01*
X151522595Y-75017389D01*
X151525153Y-75022526D01*
X151613523Y-75200000D01*
X151617634Y-75208255D01*
X151746128Y-75378407D01*
X151903698Y-75522052D01*
X152084981Y-75634298D01*
X152283802Y-75711321D01*
X152493390Y-75750500D01*
X152700881Y-75750500D01*
X152706610Y-75750500D01*
X152916198Y-75711321D01*
X153115019Y-75634298D01*
X153296302Y-75522052D01*
X153453872Y-75378407D01*
X153582366Y-75208255D01*
X153677405Y-75017389D01*
X153735756Y-74812310D01*
X153755429Y-74600000D01*
X153735756Y-74387690D01*
X153677405Y-74182611D01*
X153582366Y-73991745D01*
X153453872Y-73821593D01*
X153296302Y-73677948D01*
X153291438Y-73674936D01*
X153291435Y-73674934D01*
X153119890Y-73568718D01*
X153119889Y-73568717D01*
X153115019Y-73565702D01*
X153109681Y-73563634D01*
X153109677Y-73563632D01*
X153096861Y-73558667D01*
X154744500Y-73558667D01*
X154744700Y-73561158D01*
X154744701Y-73561162D01*
X154754053Y-73677186D01*
X154754055Y-73677209D01*
X154754255Y-73679680D01*
X154760618Y-73718892D01*
X154761212Y-73721307D01*
X154761214Y-73721315D01*
X154788437Y-73831935D01*
X154788439Y-73831942D01*
X154789632Y-73836788D01*
X154791586Y-73841383D01*
X154791588Y-73841387D01*
X154836176Y-73946207D01*
X154836182Y-73946220D01*
X154837158Y-73948514D01*
X154838313Y-73950718D01*
X154838319Y-73950731D01*
X154852394Y-73977593D01*
X154855595Y-73983702D01*
X154856929Y-73985815D01*
X154919068Y-74084258D01*
X154919076Y-74084270D01*
X154920400Y-74086367D01*
X154921889Y-74088352D01*
X154921895Y-74088361D01*
X155217090Y-74481954D01*
X155458400Y-74803700D01*
X155578718Y-74930439D01*
X155622464Y-74966948D01*
X155768677Y-75062649D01*
X155932967Y-75122198D01*
X155988421Y-75135289D01*
X156162000Y-75155500D01*
X161345588Y-75155500D01*
X161348638Y-75155500D01*
X161496029Y-75140983D01*
X161543482Y-75131544D01*
X161685211Y-75088551D01*
X161815830Y-75018733D01*
X161856058Y-74991853D01*
X161970538Y-74897900D01*
X162576619Y-74291819D01*
X162616847Y-74264939D01*
X162664300Y-74255500D01*
X163460484Y-74255500D01*
X163520871Y-74271197D01*
X163565968Y-74314315D01*
X163584359Y-74373937D01*
X163571387Y-74434967D01*
X163530335Y-74481954D01*
X163378096Y-74585747D01*
X163378078Y-74585760D01*
X163374259Y-74588365D01*
X163370863Y-74591516D01*
X163370853Y-74591524D01*
X163179843Y-74768756D01*
X163179839Y-74768759D01*
X163176439Y-74771915D01*
X163173549Y-74775537D01*
X163173546Y-74775542D01*
X163011077Y-74979271D01*
X163008185Y-74982898D01*
X163005866Y-74986913D01*
X163005865Y-74986916D01*
X162875578Y-75212581D01*
X162875575Y-75212586D01*
X162873257Y-75216602D01*
X162871563Y-75220916D01*
X162871561Y-75220922D01*
X162776363Y-75463480D01*
X162774666Y-75467805D01*
X162773633Y-75472326D01*
X162773632Y-75472333D01*
X162715648Y-75726377D01*
X162715646Y-75726385D01*
X162714617Y-75730897D01*
X162714270Y-75735516D01*
X162714270Y-75735522D01*
X162705650Y-75850552D01*
X162694451Y-76000000D01*
X162694798Y-76004631D01*
X162711056Y-76221593D01*
X162714617Y-76269103D01*
X162715647Y-76273616D01*
X162715648Y-76273622D01*
X162773632Y-76527666D01*
X162774666Y-76532195D01*
X162776362Y-76536518D01*
X162776363Y-76536519D01*
X162847523Y-76717831D01*
X162873257Y-76783398D01*
X163008185Y-77017102D01*
X163176439Y-77228085D01*
X163179843Y-77231243D01*
X163348925Y-77388129D01*
X163374259Y-77411635D01*
X163597226Y-77563651D01*
X163840359Y-77680738D01*
X163844787Y-77682103D01*
X163844790Y-77682105D01*
X163919893Y-77705271D01*
X164098228Y-77760280D01*
X164365071Y-77800500D01*
X164630292Y-77800500D01*
X164634929Y-77800500D01*
X164901772Y-77760280D01*
X165159641Y-77680738D01*
X165402775Y-77563651D01*
X165625741Y-77411635D01*
X165823561Y-77228085D01*
X165991815Y-77017102D01*
X166126743Y-76783398D01*
X166225334Y-76532195D01*
X166285383Y-76269103D01*
X166305549Y-76000000D01*
X166285383Y-75730897D01*
X166225334Y-75467805D01*
X166126743Y-75216602D01*
X165991815Y-74982898D01*
X165823561Y-74771915D01*
X165724651Y-74680140D01*
X165629146Y-74591524D01*
X165629143Y-74591521D01*
X165625741Y-74588365D01*
X165621912Y-74585754D01*
X165621909Y-74585752D01*
X165469665Y-74481954D01*
X165428614Y-74434967D01*
X165415642Y-74373937D01*
X165434033Y-74314315D01*
X165479130Y-74271197D01*
X165539517Y-74255500D01*
X166745588Y-74255500D01*
X166748638Y-74255500D01*
X166896029Y-74240983D01*
X166943482Y-74231544D01*
X167085211Y-74188551D01*
X167215830Y-74118733D01*
X167256058Y-74091853D01*
X167370538Y-73997900D01*
X168097900Y-73270538D01*
X168191853Y-73156058D01*
X168218733Y-73115830D01*
X168288551Y-72985211D01*
X168331544Y-72843482D01*
X168340983Y-72796029D01*
X168355500Y-72648638D01*
X168355500Y-68456268D01*
X168338427Y-68296561D01*
X168327345Y-68245322D01*
X168276903Y-68092847D01*
X168195371Y-67954480D01*
X168164108Y-67912399D01*
X168113856Y-67857964D01*
X168057396Y-67796803D01*
X168057390Y-67796798D01*
X168055155Y-67794376D01*
X168052684Y-67792214D01*
X168052676Y-67792206D01*
X167334652Y-67163936D01*
X167332563Y-67162108D01*
X167330309Y-67160468D01*
X167225168Y-67083973D01*
X167225157Y-67083966D01*
X167222917Y-67082336D01*
X167184876Y-67059579D01*
X167182360Y-67058365D01*
X167182349Y-67058360D01*
X167067769Y-67003117D01*
X167067770Y-67003117D01*
X167062746Y-67000695D01*
X167057373Y-66999210D01*
X167057369Y-66999209D01*
X166934743Y-66965331D01*
X166934741Y-66965330D01*
X166932057Y-66964589D01*
X166929316Y-66964091D01*
X166891194Y-66957165D01*
X166891177Y-66957162D01*
X166888443Y-66956666D01*
X166885674Y-66956416D01*
X166885663Y-66956415D01*
X166756178Y-66944749D01*
X166756165Y-66944748D01*
X166753408Y-66944500D01*
X156157032Y-66944500D01*
X156153727Y-66944857D01*
X156153718Y-66944858D01*
X155998766Y-66961622D01*
X155998757Y-66961623D01*
X155995452Y-66961981D01*
X155992202Y-66962692D01*
X155992193Y-66962694D01*
X155946911Y-66972608D01*
X155946903Y-66972610D01*
X155943638Y-66973325D01*
X155940475Y-66974384D01*
X155940456Y-66974390D01*
X155795874Y-67022835D01*
X155795868Y-67022837D01*
X155789528Y-67024962D01*
X155783789Y-67028393D01*
X155783783Y-67028396D01*
X155652896Y-67106651D01*
X155652884Y-67106658D01*
X155650029Y-67108366D01*
X155647377Y-67110367D01*
X155647365Y-67110376D01*
X155610355Y-67138315D01*
X155610344Y-67138324D01*
X155607695Y-67140324D01*
X155605271Y-67142601D01*
X155605264Y-67142608D01*
X155491696Y-67249344D01*
X155491685Y-67249355D01*
X155489266Y-67251629D01*
X155487101Y-67254154D01*
X155487096Y-67254160D01*
X155021974Y-67796803D01*
X154956234Y-67873500D01*
X154954645Y-67875725D01*
X154954636Y-67875737D01*
X154880156Y-67980053D01*
X154880142Y-67980073D01*
X154878563Y-67982286D01*
X154877179Y-67984639D01*
X154877170Y-67984654D01*
X154857806Y-68017592D01*
X154857797Y-68017607D01*
X154856413Y-68019963D01*
X154855242Y-68022431D01*
X154855235Y-68022445D01*
X154801485Y-68135765D01*
X154801481Y-68135773D01*
X154799129Y-68140734D01*
X154797688Y-68146027D01*
X154797684Y-68146039D01*
X154764748Y-68267056D01*
X154764745Y-68267068D01*
X154764026Y-68269711D01*
X154763544Y-68272400D01*
X154763539Y-68272425D01*
X154758631Y-68299845D01*
X154756324Y-68312732D01*
X154756083Y-68315437D01*
X154756081Y-68315458D01*
X154744741Y-68443147D01*
X154744740Y-68443167D01*
X154744500Y-68445871D01*
X154744500Y-73558667D01*
X153096861Y-73558667D01*
X152921545Y-73490750D01*
X152921540Y-73490748D01*
X152916198Y-73488679D01*
X152910560Y-73487625D01*
X152712239Y-73450552D01*
X152712236Y-73450551D01*
X152706610Y-73449500D01*
X152493390Y-73449500D01*
X152487764Y-73450551D01*
X152487760Y-73450552D01*
X152289439Y-73487625D01*
X152289436Y-73487625D01*
X152283802Y-73488679D01*
X152278461Y-73490747D01*
X152278454Y-73490750D01*
X152090322Y-73563632D01*
X152090313Y-73563636D01*
X152084981Y-73565702D01*
X152080114Y-73568715D01*
X152080109Y-73568718D01*
X151908564Y-73674934D01*
X151908555Y-73674940D01*
X151903698Y-73677948D01*
X151899475Y-73681797D01*
X151899468Y-73681803D01*
X151750360Y-73817734D01*
X151750354Y-73817739D01*
X151746128Y-73821593D01*
X151742681Y-73826156D01*
X151742675Y-73826164D01*
X151621086Y-73987173D01*
X151621083Y-73987177D01*
X151617634Y-73991745D01*
X151615082Y-73996870D01*
X151615079Y-73996875D01*
X151525153Y-74177473D01*
X151522595Y-74182611D01*
X151521027Y-74188119D01*
X151521024Y-74188129D01*
X151465814Y-74382168D01*
X151465811Y-74382179D01*
X151464244Y-74387690D01*
X151444571Y-74600000D01*
X142900000Y-74600000D01*
X142900000Y-68051984D01*
X142909643Y-68004042D01*
X142937071Y-67963557D01*
X142937617Y-67963021D01*
X145457269Y-65486073D01*
X145497237Y-65459737D01*
X145544200Y-65450500D01*
X145600881Y-65450500D01*
X145606610Y-65450500D01*
X145816198Y-65411321D01*
X146015019Y-65334298D01*
X146196302Y-65222052D01*
X146353872Y-65078407D01*
X146482366Y-64908255D01*
X146577405Y-64717389D01*
X146635756Y-64512310D01*
X146650405Y-64354217D01*
X146661853Y-64312493D01*
X146686939Y-64277246D01*
X148763813Y-62235573D01*
X148803780Y-62209237D01*
X148850743Y-62200000D01*
X167852719Y-62200000D01*
X167896897Y-62208137D01*
G37*
G04 #@! TD.AperFunction*
G04 #@! TA.AperFunction,Conductor*
G36*
X161296091Y-99809439D02*
G01*
X161336319Y-99836319D01*
X162400000Y-100900000D01*
X166652417Y-100900000D01*
X166696842Y-100908231D01*
X166735369Y-100931832D01*
X167658952Y-101763057D01*
X167689274Y-101804777D01*
X167700000Y-101855225D01*
X167700000Y-105848638D01*
X167690561Y-105896091D01*
X167663681Y-105936319D01*
X166736319Y-106863681D01*
X166696091Y-106890561D01*
X166648638Y-106900000D01*
X156751362Y-106900000D01*
X156703909Y-106890561D01*
X156663681Y-106863681D01*
X155437350Y-105637350D01*
X155410001Y-105595974D01*
X155401056Y-105547189D01*
X155406779Y-105261020D01*
X163596068Y-105261020D01*
X163604045Y-105268841D01*
X163789980Y-105382782D01*
X163798643Y-105387196D01*
X164015042Y-105476831D01*
X164024279Y-105479833D01*
X164252043Y-105534514D01*
X164261628Y-105536032D01*
X164495146Y-105554411D01*
X164504854Y-105554411D01*
X164738371Y-105536032D01*
X164747956Y-105534514D01*
X164975720Y-105479833D01*
X164984957Y-105476831D01*
X165201356Y-105387196D01*
X165210019Y-105382782D01*
X165395953Y-105268841D01*
X165403930Y-105261020D01*
X165397999Y-105251552D01*
X164511542Y-104365095D01*
X164500000Y-104358431D01*
X164488457Y-104365095D01*
X163601999Y-105251552D01*
X163596068Y-105261020D01*
X155406779Y-105261020D01*
X155431902Y-104004854D01*
X162945589Y-104004854D01*
X162963967Y-104238371D01*
X162965485Y-104247956D01*
X163020166Y-104475720D01*
X163023168Y-104484957D01*
X163112803Y-104701356D01*
X163117217Y-104710019D01*
X163231157Y-104895953D01*
X163238978Y-104903930D01*
X163248446Y-104897999D01*
X164134904Y-104011542D01*
X164141568Y-104000000D01*
X164858431Y-104000000D01*
X164865095Y-104011542D01*
X165751552Y-104897999D01*
X165761020Y-104903930D01*
X165768841Y-104895953D01*
X165882782Y-104710019D01*
X165887196Y-104701356D01*
X165976831Y-104484957D01*
X165979833Y-104475720D01*
X166034514Y-104247956D01*
X166036032Y-104238371D01*
X166054411Y-104004854D01*
X166054411Y-103995146D01*
X166036032Y-103761628D01*
X166034514Y-103752043D01*
X165979833Y-103524279D01*
X165976831Y-103515042D01*
X165887196Y-103298643D01*
X165882782Y-103289980D01*
X165768841Y-103104045D01*
X165761020Y-103096068D01*
X165751552Y-103101999D01*
X164865095Y-103988457D01*
X164858431Y-104000000D01*
X164141568Y-104000000D01*
X164134904Y-103988457D01*
X163248446Y-103101999D01*
X163238978Y-103096068D01*
X163231157Y-103104044D01*
X163117212Y-103289988D01*
X163112806Y-103298636D01*
X163023168Y-103515042D01*
X163020166Y-103524279D01*
X162965485Y-103752043D01*
X162963967Y-103761628D01*
X162945589Y-103995146D01*
X162945589Y-104004854D01*
X155431902Y-104004854D01*
X155457220Y-102738978D01*
X163596068Y-102738978D01*
X163601999Y-102748446D01*
X164488457Y-103634904D01*
X164500000Y-103641568D01*
X164511542Y-103634904D01*
X165397999Y-102748446D01*
X165403930Y-102738978D01*
X165395953Y-102731157D01*
X165210019Y-102617217D01*
X165201356Y-102612803D01*
X164984957Y-102523168D01*
X164975720Y-102520166D01*
X164747956Y-102465485D01*
X164738371Y-102463967D01*
X164504854Y-102445589D01*
X164495146Y-102445589D01*
X164261628Y-102463967D01*
X164252043Y-102465485D01*
X164024279Y-102520166D01*
X164015042Y-102523168D01*
X163798636Y-102612806D01*
X163789988Y-102617212D01*
X163604044Y-102731157D01*
X163596068Y-102738978D01*
X155457220Y-102738978D01*
X155498916Y-100654187D01*
X155510287Y-100604743D01*
X155540507Y-100563993D01*
X156364763Y-99831321D01*
X156403078Y-99808094D01*
X156447145Y-99800000D01*
X161248638Y-99800000D01*
X161296091Y-99809439D01*
G37*
G04 #@! TD.AperFunction*
G04 #@! TA.AperFunction,Conductor*
G36*
X166797022Y-67707923D02*
G01*
X166835063Y-67730680D01*
X167557655Y-68362948D01*
X167588918Y-68405029D01*
X167600000Y-68456268D01*
X167600000Y-72648638D01*
X167590561Y-72696091D01*
X167563681Y-72736319D01*
X166836319Y-73463681D01*
X166796091Y-73490561D01*
X166748638Y-73500000D01*
X162300000Y-73500000D01*
X162291364Y-73508635D01*
X162291361Y-73508638D01*
X161436319Y-74363681D01*
X161396091Y-74390561D01*
X161348638Y-74400000D01*
X156162000Y-74400000D01*
X156106546Y-74386909D01*
X156062800Y-74350400D01*
X155524800Y-73633067D01*
X155506363Y-73597879D01*
X155500000Y-73558667D01*
X155500000Y-72261020D01*
X163596068Y-72261020D01*
X163604045Y-72268841D01*
X163789980Y-72382782D01*
X163798643Y-72387196D01*
X164015042Y-72476831D01*
X164024279Y-72479833D01*
X164252043Y-72534514D01*
X164261628Y-72536032D01*
X164495146Y-72554411D01*
X164504854Y-72554411D01*
X164738371Y-72536032D01*
X164747956Y-72534514D01*
X164975720Y-72479833D01*
X164984957Y-72476831D01*
X165201356Y-72387196D01*
X165210019Y-72382782D01*
X165395953Y-72268841D01*
X165403930Y-72261020D01*
X165397999Y-72251552D01*
X164511542Y-71365095D01*
X164500000Y-71358431D01*
X164488457Y-71365095D01*
X163601999Y-72251552D01*
X163596068Y-72261020D01*
X155500000Y-72261020D01*
X155500000Y-71004854D01*
X162945589Y-71004854D01*
X162963967Y-71238371D01*
X162965485Y-71247956D01*
X163020166Y-71475720D01*
X163023168Y-71484957D01*
X163112803Y-71701356D01*
X163117217Y-71710019D01*
X163231157Y-71895953D01*
X163238978Y-71903930D01*
X163248446Y-71897999D01*
X164134904Y-71011542D01*
X164141568Y-71000000D01*
X164858431Y-71000000D01*
X164865095Y-71011542D01*
X165751552Y-71897999D01*
X165761020Y-71903930D01*
X165768841Y-71895953D01*
X165882782Y-71710019D01*
X165887196Y-71701356D01*
X165976831Y-71484957D01*
X165979833Y-71475720D01*
X166034514Y-71247956D01*
X166036032Y-71238371D01*
X166054411Y-71004854D01*
X166054411Y-70995146D01*
X166036032Y-70761628D01*
X166034514Y-70752043D01*
X165979833Y-70524279D01*
X165976831Y-70515042D01*
X165887196Y-70298643D01*
X165882782Y-70289980D01*
X165768841Y-70104045D01*
X165761020Y-70096068D01*
X165751552Y-70101999D01*
X164865095Y-70988457D01*
X164858431Y-71000000D01*
X164141568Y-71000000D01*
X164134904Y-70988457D01*
X163248446Y-70101999D01*
X163238978Y-70096068D01*
X163231157Y-70104044D01*
X163117212Y-70289988D01*
X163112806Y-70298636D01*
X163023168Y-70515042D01*
X163020166Y-70524279D01*
X162965485Y-70752043D01*
X162963967Y-70761628D01*
X162945589Y-70995146D01*
X162945589Y-71004854D01*
X155500000Y-71004854D01*
X155500000Y-69738978D01*
X163596068Y-69738978D01*
X163601999Y-69748446D01*
X164488457Y-70634904D01*
X164500000Y-70641568D01*
X164511542Y-70634904D01*
X165397999Y-69748446D01*
X165403930Y-69738978D01*
X165395953Y-69731157D01*
X165210019Y-69617217D01*
X165201356Y-69612803D01*
X164984957Y-69523168D01*
X164975720Y-69520166D01*
X164747956Y-69465485D01*
X164738371Y-69463967D01*
X164504854Y-69445589D01*
X164495146Y-69445589D01*
X164261628Y-69463967D01*
X164252043Y-69465485D01*
X164024279Y-69520166D01*
X164015042Y-69523168D01*
X163798636Y-69612806D01*
X163789988Y-69617212D01*
X163604044Y-69731157D01*
X163596068Y-69738978D01*
X155500000Y-69738978D01*
X155500000Y-68445871D01*
X155507702Y-68402850D01*
X155529852Y-68365173D01*
X156062884Y-67743302D01*
X156105218Y-67711344D01*
X156157032Y-67700000D01*
X166753408Y-67700000D01*
X166797022Y-67707923D01*
G37*
G04 #@! TD.AperFunction*
M02*
