G04 #@! TF.GenerationSoftware,KiCad,Pcbnew,(7.0.0)*
G04 #@! TF.CreationDate,2023-05-21T08:53:19-04:00*
G04 #@! TF.ProjectId,Solenoid_Driver,536f6c65-6e6f-4696-945f-447269766572,V1.0*
G04 #@! TF.SameCoordinates,Original*
G04 #@! TF.FileFunction,Soldermask,Top*
G04 #@! TF.FilePolarity,Negative*
%FSLAX46Y46*%
G04 Gerber Fmt 4.6, Leading zero omitted, Abs format (unit mm)*
G04 Created by KiCad (PCBNEW (7.0.0)) date 2023-05-21 08:53:19*
%MOMM*%
%LPD*%
G01*
G04 APERTURE LIST*
G04 Aperture macros list*
%AMRoundRect*
0 Rectangle with rounded corners*
0 $1 Rounding radius*
0 $2 $3 $4 $5 $6 $7 $8 $9 X,Y pos of 4 corners*
0 Add a 4 corners polygon primitive as box body*
4,1,4,$2,$3,$4,$5,$6,$7,$8,$9,$2,$3,0*
0 Add four circle primitives for the rounded corners*
1,1,$1+$1,$2,$3*
1,1,$1+$1,$4,$5*
1,1,$1+$1,$6,$7*
1,1,$1+$1,$8,$9*
0 Add four rect primitives between the rounded corners*
20,1,$1+$1,$2,$3,$4,$5,0*
20,1,$1+$1,$4,$5,$6,$7,0*
20,1,$1+$1,$6,$7,$8,$9,0*
20,1,$1+$1,$8,$9,$2,$3,0*%
G04 Aperture macros list end*
%ADD10R,0.600000X0.900000*%
%ADD11C,2.200000*%
%ADD12RoundRect,0.250000X-0.650000X0.412500X-0.650000X-0.412500X0.650000X-0.412500X0.650000X0.412500X0*%
%ADD13RoundRect,0.237500X-0.250000X-0.237500X0.250000X-0.237500X0.250000X0.237500X-0.250000X0.237500X0*%
%ADD14C,2.100000*%
%ADD15R,1.780000X2.082800*%
%ADD16R,0.950000X0.950000*%
%ADD17RoundRect,0.237500X0.250000X0.237500X-0.250000X0.237500X-0.250000X-0.237500X0.250000X-0.237500X0*%
%ADD18R,1.500000X0.650000*%
%ADD19RoundRect,0.237500X-0.237500X0.250000X-0.237500X-0.250000X0.237500X-0.250000X0.237500X0.250000X0*%
%ADD20RoundRect,0.237500X0.237500X-0.250000X0.237500X0.250000X-0.237500X0.250000X-0.237500X-0.250000X0*%
G04 APERTURE END LIST*
D10*
X155899999Y-77749999D03*
X155899999Y-75449999D03*
X155799999Y-96219999D03*
X155799999Y-98519999D03*
D11*
X172000000Y-112000000D03*
X172000000Y-64000000D03*
X124000000Y-112000000D03*
X124000000Y-64000000D03*
D12*
X151900000Y-81862500D03*
X151900000Y-78737500D03*
D13*
X151312500Y-109900000D03*
X149487500Y-109900000D03*
D14*
X128300000Y-83000000D03*
X128300000Y-78000000D03*
D15*
X137329999Y-69066099D03*
X139869999Y-69066099D03*
X139869999Y-78133899D03*
X137329999Y-78133899D03*
D14*
X164500000Y-85000000D03*
X164500000Y-90000000D03*
D16*
X153749999Y-109899999D03*
X155249999Y-109899999D03*
X151899999Y-88199999D03*
X151899999Y-86699999D03*
D17*
X147975000Y-75200000D03*
X149800000Y-75200000D03*
D18*
X155199999Y-100789999D03*
X155199999Y-102059999D03*
X155199999Y-103329999D03*
X155199999Y-104599999D03*
X149799999Y-104599999D03*
X149799999Y-103329999D03*
X149799999Y-102059999D03*
X149799999Y-100789999D03*
D19*
X137300000Y-81087500D03*
X137300000Y-82912500D03*
D14*
X128300000Y-98000000D03*
X128300000Y-93000000D03*
X164500000Y-99000000D03*
X164500000Y-104000000D03*
D17*
X147987500Y-106620000D03*
X149812500Y-106620000D03*
D13*
X149187500Y-65500000D03*
X151012500Y-65500000D03*
D16*
X155149999Y-65499999D03*
X153649999Y-65499999D03*
D20*
X137200000Y-103687500D03*
X137200000Y-105512500D03*
X154400000Y-88187500D03*
X154400000Y-90012500D03*
D12*
X150100000Y-97962500D03*
X150100000Y-94837500D03*
D15*
X139743185Y-98833899D03*
X137203185Y-98833899D03*
X137203185Y-89766099D03*
X139743185Y-89766099D03*
D17*
X139887500Y-65800000D03*
X141712500Y-65800000D03*
D13*
X137312500Y-65800000D03*
X135487500Y-65800000D03*
D14*
X164500000Y-71000000D03*
X164500000Y-76000000D03*
D18*
X155199999Y-69319999D03*
X155199999Y-70589999D03*
X155199999Y-71859999D03*
X155199999Y-73129999D03*
X149799999Y-73129999D03*
X149799999Y-71859999D03*
X149799999Y-70589999D03*
X149799999Y-69319999D03*
D17*
X137875000Y-87000000D03*
X139700000Y-87000000D03*
D20*
X139700000Y-102287500D03*
X139700000Y-104112500D03*
M02*
