M48
; DRILL file {KiCad (7.0.0)} date Sun May 21 08:54:38 2023
; FORMAT={-:-/ absolute / metric / decimal}
; #@! TF.CreationDate,2023-05-21T08:54:38-04:00
; #@! TF.GenerationSoftware,Kicad,Pcbnew,(7.0.0)
; #@! TF.FileFunction,Plated,1,4,PTH
FMAT,2
METRIC
; #@! TA.AperFunction,Plated,PTH,ViaDrill
T1C0.400
; #@! TA.AperFunction,Plated,PTH,ComponentDrill
T2C1.400
%
G90
G05
T1
X134.088Y-65.8
X141.6Y-105.6
X141.6Y-109.9
X143.2Y-65.8
X145.5Y-64.3
X147.8Y-69.2
X147.8Y-70.5
X147.8Y-71.8
X147.8Y-100.7
X147.8Y-102.0
X147.8Y-103.3
X151.7Y-68.0
X151.7Y-69.9
X151.7Y-71.2
X151.7Y-99.6
X151.7Y-101.4
X151.7Y-102.7
X152.6Y-74.6
X157.1Y-102.6
X157.1Y-104.0
X157.1Y-105.4
X157.2Y-69.9
X157.2Y-71.2
X157.2Y-72.4
X157.2Y-101.4
X158.2Y-69.2
X158.2Y-70.5
X158.2Y-71.8
X158.2Y-73.1
X158.2Y-77.0
X158.2Y-78.3
X158.2Y-79.6
X158.2Y-82.1
X158.2Y-83.5
X158.2Y-84.8
X158.2Y-86.2
X158.2Y-102.0
X158.2Y-103.3
X158.2Y-104.7
X170.5Y-75.2
X170.5Y-76.5
X170.5Y-77.8
X170.5Y-79.1
X170.5Y-82.2
X170.5Y-83.5
X170.5Y-84.8
X170.5Y-86.2
X170.5Y-89.1
X170.5Y-90.5
X170.5Y-91.8
X170.5Y-93.2
X170.5Y-94.5
X170.5Y-95.8
X170.5Y-97.2
X170.5Y-98.5
X170.5Y-99.7
T2
X128.3Y-78.0
X128.3Y-83.0
X128.3Y-93.0
X128.3Y-98.0
X164.5Y-71.0
X164.5Y-76.0
X164.5Y-85.0
X164.5Y-90.0
X164.5Y-99.0
X164.5Y-104.0
T0
M30
