G04 #@! TF.GenerationSoftware,KiCad,Pcbnew,(7.0.0)*
G04 #@! TF.CreationDate,2023-05-21T08:53:19-04:00*
G04 #@! TF.ProjectId,Solenoid_Driver,536f6c65-6e6f-4696-945f-447269766572,V1.0*
G04 #@! TF.SameCoordinates,Original*
G04 #@! TF.FileFunction,Copper,L4,Bot*
G04 #@! TF.FilePolarity,Positive*
%FSLAX46Y46*%
G04 Gerber Fmt 4.6, Leading zero omitted, Abs format (unit mm)*
G04 Created by KiCad (PCBNEW (7.0.0)) date 2023-05-21 08:53:19*
%MOMM*%
%LPD*%
G01*
G04 APERTURE LIST*
G04 #@! TA.AperFunction,ComponentPad*
%ADD10C,2.100000*%
G04 #@! TD*
G04 #@! TA.AperFunction,ViaPad*
%ADD11C,0.800000*%
G04 #@! TD*
G04 #@! TA.AperFunction,Conductor*
%ADD12C,0.400000*%
G04 #@! TD*
G04 APERTURE END LIST*
D10*
X128300000Y-83000000D03*
X128300000Y-78000000D03*
X164500000Y-85000000D03*
X164500000Y-90000000D03*
X128300000Y-98000000D03*
X128300000Y-93000000D03*
X164500000Y-99000000D03*
X164500000Y-104000000D03*
X164500000Y-71000000D03*
X164500000Y-76000000D03*
D11*
X158200000Y-73100000D03*
X158200000Y-71800000D03*
X158200000Y-70500000D03*
X158200000Y-69200000D03*
X157200000Y-69900000D03*
X157200000Y-71200000D03*
X157200000Y-72400000D03*
X145500000Y-64300000D03*
X143200000Y-65800000D03*
X152600000Y-74600000D03*
X158200000Y-79600000D03*
X170500000Y-91800000D03*
X170500000Y-95800000D03*
X170500000Y-77800000D03*
X170500000Y-99700000D03*
X158200000Y-77000000D03*
X170500000Y-93200000D03*
X141600000Y-109900000D03*
X134087500Y-65800000D03*
X170500000Y-76500000D03*
X170500000Y-75200000D03*
X170500000Y-89100000D03*
X170500000Y-98500000D03*
X170500000Y-94500000D03*
X170500000Y-79100000D03*
X158200000Y-78300000D03*
X141600000Y-105600000D03*
X170500000Y-90500000D03*
X170500000Y-97200000D03*
X170500000Y-84800000D03*
X151700000Y-101400000D03*
X151700000Y-68000000D03*
X151700000Y-102700000D03*
X158200000Y-86200000D03*
X151700000Y-69900000D03*
X147800000Y-69200000D03*
X151700000Y-71200000D03*
X170500000Y-82200000D03*
X147800000Y-100700000D03*
X158200000Y-83500000D03*
X158200000Y-84800000D03*
X147800000Y-71800000D03*
X147800000Y-102000000D03*
X170500000Y-86200000D03*
X147800000Y-103300000D03*
X147800000Y-70500000D03*
X158200000Y-82100000D03*
X151700000Y-99600000D03*
X170500000Y-83500000D03*
X157100000Y-104000000D03*
X158200000Y-102000000D03*
X157200000Y-101400000D03*
X157100000Y-105400000D03*
X157100000Y-102600000D03*
X158200000Y-103300000D03*
X158200000Y-104700000D03*
D12*
X152900000Y-65800000D02*
X143200000Y-65800000D01*
X154700000Y-72500000D02*
X154700000Y-67600000D01*
X152600000Y-74600000D02*
X154700000Y-72500000D01*
X154700000Y-67600000D02*
X152900000Y-65800000D01*
G04 #@! TA.AperFunction,Conductor*
G36*
X166994782Y-66911344D02*
G01*
X167037116Y-66943302D01*
X167570148Y-67565173D01*
X167592298Y-67602850D01*
X167600000Y-67645871D01*
X167600000Y-73648638D01*
X167590561Y-73696091D01*
X167563681Y-73736319D01*
X167136319Y-74163681D01*
X167096091Y-74190561D01*
X167048638Y-74200000D01*
X164641602Y-74200000D01*
X164637136Y-74199832D01*
X164634929Y-74199500D01*
X164365071Y-74199500D01*
X164362863Y-74199832D01*
X164358398Y-74200000D01*
X163100000Y-74200000D01*
X163091364Y-74208635D01*
X163091361Y-74208638D01*
X162537192Y-74762807D01*
X162495991Y-74790085D01*
X162447410Y-74799108D01*
X156643703Y-74700740D01*
X156602605Y-74692990D01*
X156566421Y-74672017D01*
X156044617Y-74237181D01*
X156011707Y-74194517D01*
X156000000Y-74141922D01*
X156000000Y-72229480D01*
X163558602Y-72229480D01*
X163566188Y-72240833D01*
X163582407Y-72254686D01*
X163590275Y-72260402D01*
X163789980Y-72382782D01*
X163798643Y-72387196D01*
X164015042Y-72476831D01*
X164024279Y-72479833D01*
X164252043Y-72534514D01*
X164261628Y-72536032D01*
X164495146Y-72554411D01*
X164504854Y-72554411D01*
X164738371Y-72536032D01*
X164747956Y-72534514D01*
X164975720Y-72479833D01*
X164984957Y-72476831D01*
X165201356Y-72387196D01*
X165210019Y-72382782D01*
X165409726Y-72260401D01*
X165417591Y-72254687D01*
X165433811Y-72240833D01*
X165441396Y-72229481D01*
X165434723Y-72217566D01*
X164511542Y-71294385D01*
X164500000Y-71287721D01*
X164488457Y-71294385D01*
X163565275Y-72217566D01*
X163558602Y-72229480D01*
X156000000Y-72229480D01*
X156000000Y-71004854D01*
X162945589Y-71004854D01*
X162963967Y-71238371D01*
X162965485Y-71247956D01*
X163020166Y-71475720D01*
X163023168Y-71484957D01*
X163112803Y-71701356D01*
X163117217Y-71710019D01*
X163239597Y-71909724D01*
X163245313Y-71917593D01*
X163259165Y-71933811D01*
X163270518Y-71941396D01*
X163282432Y-71934723D01*
X164205614Y-71011542D01*
X164212278Y-71000000D01*
X164787721Y-71000000D01*
X164794385Y-71011542D01*
X165717566Y-71934723D01*
X165729481Y-71941396D01*
X165740833Y-71933811D01*
X165754687Y-71917591D01*
X165760401Y-71909726D01*
X165882782Y-71710019D01*
X165887196Y-71701356D01*
X165976831Y-71484957D01*
X165979833Y-71475720D01*
X166034514Y-71247956D01*
X166036032Y-71238371D01*
X166054411Y-71004854D01*
X166054411Y-70995146D01*
X166036032Y-70761628D01*
X166034514Y-70752043D01*
X165979833Y-70524279D01*
X165976831Y-70515042D01*
X165887196Y-70298643D01*
X165882782Y-70289980D01*
X165760402Y-70090275D01*
X165754686Y-70082407D01*
X165740833Y-70066188D01*
X165729480Y-70058602D01*
X165717566Y-70065275D01*
X164794385Y-70988457D01*
X164787721Y-71000000D01*
X164212278Y-71000000D01*
X164205614Y-70988457D01*
X163282432Y-70065275D01*
X163270518Y-70058603D01*
X163259165Y-70066188D01*
X163245310Y-70082410D01*
X163239598Y-70090272D01*
X163117217Y-70289980D01*
X163112803Y-70298643D01*
X163023168Y-70515042D01*
X163020166Y-70524279D01*
X162965485Y-70752043D01*
X162963967Y-70761628D01*
X162945589Y-70995146D01*
X162945589Y-71004854D01*
X156000000Y-71004854D01*
X156000000Y-69770518D01*
X163558603Y-69770518D01*
X163565275Y-69782432D01*
X164488457Y-70705614D01*
X164500000Y-70712278D01*
X164511542Y-70705614D01*
X165434723Y-69782432D01*
X165441396Y-69770518D01*
X165433811Y-69759165D01*
X165417593Y-69745313D01*
X165409724Y-69739597D01*
X165210019Y-69617217D01*
X165201356Y-69612803D01*
X164984957Y-69523168D01*
X164975720Y-69520166D01*
X164747956Y-69465485D01*
X164738371Y-69463967D01*
X164504854Y-69445589D01*
X164495146Y-69445589D01*
X164261628Y-69463967D01*
X164252043Y-69465485D01*
X164024279Y-69520166D01*
X164015042Y-69523168D01*
X163798643Y-69612803D01*
X163789980Y-69617217D01*
X163590272Y-69739598D01*
X163582410Y-69745310D01*
X163566188Y-69759165D01*
X163558603Y-69770518D01*
X156000000Y-69770518D01*
X156000000Y-67645871D01*
X156007702Y-67602850D01*
X156029852Y-67565173D01*
X156562884Y-66943302D01*
X156605218Y-66911344D01*
X156657032Y-66900000D01*
X166942968Y-66900000D01*
X166994782Y-66911344D01*
G37*
G04 #@! TD.AperFunction*
G04 #@! TA.AperFunction,Conductor*
G36*
X162496091Y-100109439D02*
G01*
X162536319Y-100136318D01*
X163200000Y-100800000D01*
X164358398Y-100800000D01*
X164362863Y-100800167D01*
X164365071Y-100800500D01*
X164630295Y-100800500D01*
X164634929Y-100800500D01*
X164637136Y-100800167D01*
X164641602Y-100800000D01*
X168441239Y-100800000D01*
X168494340Y-100811945D01*
X168537207Y-100845476D01*
X169371973Y-101865745D01*
X169392783Y-101902576D01*
X169400000Y-101944263D01*
X169400000Y-106748638D01*
X169390561Y-106796091D01*
X169363681Y-106836319D01*
X168436319Y-107763681D01*
X168396091Y-107790561D01*
X168348638Y-107800000D01*
X156144894Y-107800000D01*
X156102681Y-107792594D01*
X156065511Y-107771259D01*
X155544617Y-107337181D01*
X155511707Y-107294517D01*
X155500000Y-107241922D01*
X155500000Y-105229480D01*
X163558602Y-105229480D01*
X163566188Y-105240833D01*
X163582407Y-105254686D01*
X163590275Y-105260402D01*
X163789980Y-105382782D01*
X163798643Y-105387196D01*
X164015042Y-105476831D01*
X164024279Y-105479833D01*
X164252043Y-105534514D01*
X164261628Y-105536032D01*
X164495146Y-105554411D01*
X164504854Y-105554411D01*
X164738371Y-105536032D01*
X164747956Y-105534514D01*
X164975720Y-105479833D01*
X164984957Y-105476831D01*
X165201356Y-105387196D01*
X165210019Y-105382782D01*
X165409726Y-105260401D01*
X165417591Y-105254687D01*
X165433811Y-105240833D01*
X165441396Y-105229481D01*
X165434723Y-105217566D01*
X164511542Y-104294385D01*
X164500000Y-104287721D01*
X164488457Y-104294385D01*
X163565275Y-105217566D01*
X163558602Y-105229480D01*
X155500000Y-105229480D01*
X155500000Y-104004854D01*
X162945589Y-104004854D01*
X162963967Y-104238371D01*
X162965485Y-104247956D01*
X163020166Y-104475720D01*
X163023168Y-104484957D01*
X163112803Y-104701356D01*
X163117217Y-104710019D01*
X163239597Y-104909724D01*
X163245313Y-104917593D01*
X163259165Y-104933811D01*
X163270518Y-104941396D01*
X163282432Y-104934723D01*
X164205614Y-104011542D01*
X164212278Y-104000000D01*
X164787721Y-104000000D01*
X164794385Y-104011542D01*
X165717566Y-104934723D01*
X165729481Y-104941396D01*
X165740833Y-104933811D01*
X165754687Y-104917591D01*
X165760401Y-104909726D01*
X165882782Y-104710019D01*
X165887196Y-104701356D01*
X165976831Y-104484957D01*
X165979833Y-104475720D01*
X166034514Y-104247956D01*
X166036032Y-104238371D01*
X166054411Y-104004854D01*
X166054411Y-103995146D01*
X166036032Y-103761628D01*
X166034514Y-103752043D01*
X165979833Y-103524279D01*
X165976831Y-103515042D01*
X165887196Y-103298643D01*
X165882782Y-103289980D01*
X165760402Y-103090275D01*
X165754686Y-103082407D01*
X165740833Y-103066188D01*
X165729480Y-103058602D01*
X165717566Y-103065275D01*
X164794385Y-103988457D01*
X164787721Y-104000000D01*
X164212278Y-104000000D01*
X164205614Y-103988457D01*
X163282432Y-103065275D01*
X163270518Y-103058603D01*
X163259165Y-103066188D01*
X163245310Y-103082410D01*
X163239598Y-103090272D01*
X163117217Y-103289980D01*
X163112803Y-103298643D01*
X163023168Y-103515042D01*
X163020166Y-103524279D01*
X162965485Y-103752043D01*
X162963967Y-103761628D01*
X162945589Y-103995146D01*
X162945589Y-104004854D01*
X155500000Y-104004854D01*
X155500000Y-102770518D01*
X163558603Y-102770518D01*
X163565275Y-102782432D01*
X164488457Y-103705614D01*
X164500000Y-103712278D01*
X164511542Y-103705614D01*
X165434723Y-102782432D01*
X165441396Y-102770518D01*
X165433811Y-102759165D01*
X165417593Y-102745313D01*
X165409724Y-102739597D01*
X165210019Y-102617217D01*
X165201356Y-102612803D01*
X164984957Y-102523168D01*
X164975720Y-102520166D01*
X164747956Y-102465485D01*
X164738371Y-102463967D01*
X164504854Y-102445589D01*
X164495146Y-102445589D01*
X164261628Y-102463967D01*
X164252043Y-102465485D01*
X164024279Y-102520166D01*
X164015042Y-102523168D01*
X163798643Y-102612803D01*
X163789980Y-102617217D01*
X163590272Y-102739598D01*
X163582410Y-102745310D01*
X163566188Y-102759165D01*
X163558603Y-102770518D01*
X155500000Y-102770518D01*
X155500000Y-100757032D01*
X155511344Y-100705218D01*
X155543301Y-100662885D01*
X155560227Y-100648376D01*
X155865081Y-100387072D01*
X155866392Y-100385969D01*
X156178188Y-100128398D01*
X156215197Y-100107316D01*
X156257159Y-100100000D01*
X162448638Y-100100000D01*
X162496091Y-100109439D01*
G37*
G04 #@! TD.AperFunction*
G04 #@! TA.AperFunction,Conductor*
G36*
X152297022Y-66907923D02*
G01*
X152335062Y-66930679D01*
X152341507Y-66936319D01*
X153057655Y-67562948D01*
X153088918Y-67605029D01*
X153100000Y-67656268D01*
X153100000Y-72704428D01*
X153090561Y-72751881D01*
X153063682Y-72792107D01*
X152892131Y-72963658D01*
X152413416Y-73442372D01*
X152383556Y-73464385D01*
X152348522Y-73476579D01*
X152289438Y-73487624D01*
X152289423Y-73487628D01*
X152283802Y-73488679D01*
X152278468Y-73490745D01*
X152278462Y-73490747D01*
X152090322Y-73563632D01*
X152090313Y-73563636D01*
X152084981Y-73565702D01*
X152080114Y-73568715D01*
X152080109Y-73568718D01*
X151908564Y-73674934D01*
X151908555Y-73674940D01*
X151903698Y-73677948D01*
X151899475Y-73681797D01*
X151899468Y-73681803D01*
X151750360Y-73817734D01*
X151750354Y-73817739D01*
X151746128Y-73821593D01*
X151742681Y-73826156D01*
X151742675Y-73826164D01*
X151621086Y-73987173D01*
X151621083Y-73987177D01*
X151617634Y-73991745D01*
X151615082Y-73996870D01*
X151615079Y-73996875D01*
X151525153Y-74177473D01*
X151522595Y-74182611D01*
X151521027Y-74188119D01*
X151521024Y-74188129D01*
X151465814Y-74382168D01*
X151465811Y-74382179D01*
X151464244Y-74387690D01*
X151444571Y-74600000D01*
X151464244Y-74812310D01*
X151465812Y-74817821D01*
X151465814Y-74817831D01*
X151521024Y-75011870D01*
X151521026Y-75011876D01*
X151522595Y-75017389D01*
X151525153Y-75022526D01*
X151613523Y-75200000D01*
X151617634Y-75208255D01*
X151746128Y-75378407D01*
X151903698Y-75522052D01*
X152084981Y-75634298D01*
X152283802Y-75711321D01*
X152493390Y-75750500D01*
X152700881Y-75750500D01*
X152706610Y-75750500D01*
X152916198Y-75711321D01*
X152934685Y-75704158D01*
X152988393Y-75696106D01*
X153040391Y-75711776D01*
X153080706Y-75748164D01*
X153100000Y-75794444D01*
X153100000Y-75800000D01*
X157200000Y-80700000D01*
X157831398Y-80700000D01*
X157872919Y-80707761D01*
X157872942Y-80707681D01*
X157873811Y-80707928D01*
X157876190Y-80708373D01*
X157878446Y-80709247D01*
X157878454Y-80709249D01*
X157883802Y-80711321D01*
X158093390Y-80750500D01*
X158300881Y-80750500D01*
X158306610Y-80750500D01*
X158516198Y-80711321D01*
X158521547Y-80709248D01*
X158521553Y-80709247D01*
X158523810Y-80708373D01*
X158526188Y-80707928D01*
X158527058Y-80707681D01*
X158527080Y-80707761D01*
X158568602Y-80700000D01*
X172653408Y-80700000D01*
X172697022Y-80707923D01*
X172735063Y-80730680D01*
X173457655Y-81362948D01*
X173488918Y-81405029D01*
X173500000Y-81456268D01*
X173500000Y-86848638D01*
X173490561Y-86896091D01*
X173463681Y-86936319D01*
X172736319Y-87663681D01*
X172696091Y-87690561D01*
X172648638Y-87700000D01*
X169900000Y-87700000D01*
X169891517Y-87707711D01*
X169891515Y-87707713D01*
X168809587Y-88691284D01*
X168809585Y-88691285D01*
X168800000Y-88700000D01*
X168800000Y-88712957D01*
X168800000Y-92147550D01*
X168790204Y-92195856D01*
X168762363Y-92236530D01*
X162036081Y-98764980D01*
X161996315Y-98790912D01*
X161949718Y-98800000D01*
X156600000Y-98800000D01*
X156591732Y-98806829D01*
X156591730Y-98806831D01*
X154310565Y-100691272D01*
X154300000Y-100700000D01*
X154300000Y-100713701D01*
X154300000Y-104955106D01*
X154292594Y-104997319D01*
X154271259Y-105034489D01*
X153837181Y-105555383D01*
X153794517Y-105588293D01*
X153741922Y-105600000D01*
X145058078Y-105600000D01*
X145005483Y-105588293D01*
X144962819Y-105555383D01*
X144528861Y-105034633D01*
X144507470Y-104997307D01*
X144500120Y-104954921D01*
X144540107Y-90000000D01*
X162694451Y-90000000D01*
X162714617Y-90269103D01*
X162715647Y-90273616D01*
X162715648Y-90273622D01*
X162773632Y-90527666D01*
X162774666Y-90532195D01*
X162873257Y-90783398D01*
X163008185Y-91017102D01*
X163176439Y-91228085D01*
X163179843Y-91231243D01*
X163342978Y-91382611D01*
X163374259Y-91411635D01*
X163597226Y-91563651D01*
X163840359Y-91680738D01*
X163844787Y-91682103D01*
X163844790Y-91682105D01*
X163969293Y-91720508D01*
X164098228Y-91760280D01*
X164365071Y-91800500D01*
X164630292Y-91800500D01*
X164634929Y-91800500D01*
X164901772Y-91760280D01*
X165159641Y-91680738D01*
X165402775Y-91563651D01*
X165625741Y-91411635D01*
X165823561Y-91228085D01*
X165991815Y-91017102D01*
X166126743Y-90783398D01*
X166225334Y-90532195D01*
X166285383Y-90269103D01*
X166305549Y-90000000D01*
X166285383Y-89730897D01*
X166225334Y-89467805D01*
X166126743Y-89216602D01*
X165991815Y-88982898D01*
X165823561Y-88771915D01*
X165625741Y-88588365D01*
X165621912Y-88585754D01*
X165621909Y-88585752D01*
X165406610Y-88438964D01*
X165402775Y-88436349D01*
X165398589Y-88434333D01*
X165163820Y-88321274D01*
X165163814Y-88321271D01*
X165159641Y-88319262D01*
X165155219Y-88317898D01*
X165155209Y-88317894D01*
X164906202Y-88241086D01*
X164906196Y-88241084D01*
X164901772Y-88239720D01*
X164897195Y-88239030D01*
X164897186Y-88239028D01*
X164639514Y-88200191D01*
X164639513Y-88200190D01*
X164634929Y-88199500D01*
X164365071Y-88199500D01*
X164360487Y-88200190D01*
X164360485Y-88200191D01*
X164102813Y-88239028D01*
X164102801Y-88239030D01*
X164098228Y-88239720D01*
X164093806Y-88241083D01*
X164093797Y-88241086D01*
X163844790Y-88317894D01*
X163844775Y-88317899D01*
X163840359Y-88319262D01*
X163836185Y-88321271D01*
X163836180Y-88321274D01*
X163601411Y-88434333D01*
X163601404Y-88434336D01*
X163597226Y-88436349D01*
X163593393Y-88438962D01*
X163593390Y-88438964D01*
X163378090Y-88585752D01*
X163378080Y-88585759D01*
X163374259Y-88588365D01*
X163370863Y-88591516D01*
X163370853Y-88591524D01*
X163179843Y-88768756D01*
X163179839Y-88768759D01*
X163176439Y-88771915D01*
X163173549Y-88775537D01*
X163173546Y-88775542D01*
X163084111Y-88887690D01*
X163008185Y-88982898D01*
X163005866Y-88986913D01*
X163005865Y-88986916D01*
X162875578Y-89212581D01*
X162875575Y-89212586D01*
X162873257Y-89216602D01*
X162871563Y-89220916D01*
X162871561Y-89220922D01*
X162776363Y-89463480D01*
X162774666Y-89467805D01*
X162773633Y-89472326D01*
X162773632Y-89472333D01*
X162715648Y-89726377D01*
X162715646Y-89726385D01*
X162714617Y-89730897D01*
X162714270Y-89735516D01*
X162714270Y-89735522D01*
X162702563Y-89891745D01*
X162694451Y-90000000D01*
X144540107Y-90000000D01*
X144550189Y-86229480D01*
X163558602Y-86229480D01*
X163566188Y-86240833D01*
X163582407Y-86254686D01*
X163590275Y-86260402D01*
X163789980Y-86382782D01*
X163798643Y-86387196D01*
X164015042Y-86476831D01*
X164024279Y-86479833D01*
X164252043Y-86534514D01*
X164261628Y-86536032D01*
X164495146Y-86554411D01*
X164504854Y-86554411D01*
X164738371Y-86536032D01*
X164747956Y-86534514D01*
X164975720Y-86479833D01*
X164984957Y-86476831D01*
X165201356Y-86387196D01*
X165210019Y-86382782D01*
X165409726Y-86260401D01*
X165417591Y-86254687D01*
X165433811Y-86240833D01*
X165441396Y-86229481D01*
X165434723Y-86217566D01*
X164511542Y-85294385D01*
X164499999Y-85287721D01*
X164488457Y-85294385D01*
X163565275Y-86217566D01*
X163558602Y-86229480D01*
X144550189Y-86229480D01*
X144553463Y-85004854D01*
X162945589Y-85004854D01*
X162963967Y-85238371D01*
X162965485Y-85247956D01*
X163020166Y-85475720D01*
X163023168Y-85484957D01*
X163112803Y-85701356D01*
X163117217Y-85710019D01*
X163239597Y-85909724D01*
X163245313Y-85917593D01*
X163259165Y-85933811D01*
X163270518Y-85941396D01*
X163282432Y-85934723D01*
X164205614Y-85011542D01*
X164212278Y-85000000D01*
X164787721Y-85000000D01*
X164794385Y-85011542D01*
X165717566Y-85934723D01*
X165729481Y-85941396D01*
X165740833Y-85933811D01*
X165754687Y-85917591D01*
X165760401Y-85909726D01*
X165882782Y-85710019D01*
X165887196Y-85701356D01*
X165976831Y-85484957D01*
X165979833Y-85475720D01*
X166034514Y-85247956D01*
X166036032Y-85238371D01*
X166054411Y-85004854D01*
X166054411Y-84995146D01*
X166036032Y-84761628D01*
X166034514Y-84752043D01*
X165979833Y-84524279D01*
X165976831Y-84515042D01*
X165887196Y-84298643D01*
X165882782Y-84289980D01*
X165760402Y-84090275D01*
X165754686Y-84082407D01*
X165740833Y-84066188D01*
X165729480Y-84058602D01*
X165717566Y-84065275D01*
X164794385Y-84988457D01*
X164787721Y-85000000D01*
X164212278Y-85000000D01*
X164205614Y-84988457D01*
X163282432Y-84065275D01*
X163270518Y-84058603D01*
X163259165Y-84066188D01*
X163245310Y-84082410D01*
X163239598Y-84090272D01*
X163117217Y-84289980D01*
X163112803Y-84298643D01*
X163023168Y-84515042D01*
X163020166Y-84524279D01*
X162965485Y-84752043D01*
X162963967Y-84761628D01*
X162945589Y-84995146D01*
X162945589Y-85004854D01*
X144553463Y-85004854D01*
X144556763Y-83770518D01*
X163558603Y-83770518D01*
X163565275Y-83782432D01*
X164488457Y-84705614D01*
X164500000Y-84712278D01*
X164511542Y-84705614D01*
X165434723Y-83782432D01*
X165441396Y-83770518D01*
X165433811Y-83759165D01*
X165417593Y-83745313D01*
X165409724Y-83739597D01*
X165210019Y-83617217D01*
X165201356Y-83612803D01*
X164984957Y-83523168D01*
X164975720Y-83520166D01*
X164747956Y-83465485D01*
X164738371Y-83463967D01*
X164504854Y-83445589D01*
X164495146Y-83445589D01*
X164261628Y-83463967D01*
X164252043Y-83465485D01*
X164024279Y-83520166D01*
X164015042Y-83523168D01*
X163798643Y-83612803D01*
X163789980Y-83617217D01*
X163590272Y-83739598D01*
X163582410Y-83745310D01*
X163566188Y-83759165D01*
X163558603Y-83770518D01*
X144556763Y-83770518D01*
X144599863Y-67651165D01*
X144609365Y-67603892D01*
X144636179Y-67563820D01*
X145263681Y-66936318D01*
X145303909Y-66909439D01*
X145351362Y-66900000D01*
X152253408Y-66900000D01*
X152297022Y-66907923D01*
G37*
G04 #@! TD.AperFunction*
M02*
